<?xml version="1.0" encoding="utf-8"?>
<!-- Generator: Adobe Illustrator 16.0.0, SVG Export Plug-In . SVG Version: 6.00 Build 0)  -->
<!DOCTYPE svg PUBLIC "-//W3C//DTD SVG 1.1//EN" "http://www.w3.org/Graphics/SVG/1.1/DTD/svg11.dtd">
<svg version="1.1" id="Layer_1" xmlns="http://www.w3.org/2000/svg" xmlns:xlink="http://www.w3.org/1999/xlink" x="0px" y="0px"
	 width="500px" height="409.5px" viewBox="0 0 500 409.5" enable-background="new 0 0 500 409.5" xml:space="preserve">
<rect x="208.334" y="291.666" fill="#F1F1F1" width="83.333" height="104.167"/>
<path fill="#F1F1F1" d="M83.334,41.666h333.333c23.012,0,41.667,18.655,41.667,41.667v229.166c0,23.013-18.655,41.667-41.667,41.667
	H83.334c-23.013,0-41.667-18.654-41.667-41.667V83.333C41.667,60.322,60.321,41.666,83.334,41.666z"/>
<path fill="#3D3D3D" d="M50,41.666h400c4.603,0,8.334,3.731,8.334,8.334v225c0,4.603-3.731,8.333-8.334,8.333H50
	c-4.603,0-8.333-3.73-8.333-8.333V50C41.667,45.398,45.397,41.666,50,41.666z"/>
<path fill="#494C5A" d="M66.667,62.5h366.667c2.301,0,4.166,1.865,4.166,4.166v179.167c0,2.301-1.865,4.167-4.166,4.167H66.667
	c-2.301,0-4.167-1.866-4.167-4.167V66.666C62.5,64.365,64.366,62.5,66.667,62.5z"/>
<circle fill="#3D3D3D" cx="250" cy="312.5" r="16.667"/>
</svg>
