<?xml version="1.0" encoding="utf-8"?>
<!-- Generator: Adobe Illustrator 16.0.0, SVG Export Plug-In . SVG Version: 6.00 Build 0)  -->
<!DOCTYPE svg PUBLIC "-//W3C//DTD SVG 1.1//EN" "http://www.w3.org/Graphics/SVG/1.1/DTD/svg11.dtd">
<svg version="1.1" id="Layer_1" xmlns="http://www.w3.org/2000/svg" xmlns:xlink="http://www.w3.org/1999/xlink" x="0px" y="0px"
	 width="180px" height="350px" viewBox="0 0 180 350" enable-background="new 0 0 180 350" xml:space="preserve">
<defs><style>

		#computer{ animation: tapWobble 0.7 linear infinite;animation-delay: 5s;}
		#left-arm{ transform-origin: 90% 25%; animation: typeLeft 0.8s linear infinite; animation-delay: 5s;}
		#right-arm{ transform-origin: 9% 35%; transform: rotateZ(0deg); animation: typeLeft 0.8s linear infinite;animation-delay: 5s;}
		#left{ transform-origin: 35% 12%; animation: tapRight 1s linear infinite;animation-delay: 5s;}
        #body{ animation: sway 20s ease infinite; transform-origin: 50% 100%;}
        #head{ transform-origin: 50% 85%; animation: headTilt 20s ease infinite;}


@keyframes sway {
    0%   { transform: rotateZ(0deg); }
    20%  { transform: rotateZ(0deg); }
    25%  { transform: rotateZ(4deg); }
    45%  { transform: rotateZ(4deg); }
    50%  { transform: rotateZ(0deg); }
    70%  { transform: rotateZ(0deg); }
    75%  { transform: rotateZ(-4deg); }
    90%  { transform: rotateZ(-4deg); }
    100% { transform: rotateZ(0deg); }
}


@keyframes typeLeft {
  0%   { transform: rotateZ(0deg); }
  25%  { transform: rotateZ(7deg); }
  75%  { transform: rotateZ(-6deg); }
  100% { transform: rotateZ(0deg); }
}

@keyframes typeRight {
  0%   { transform: rotateZ(0deg); }
  25%  { transform: rotateZ(-6deg); }
  75%  { transform: rotateZ(7deg); }
  100% { transform: rotateZ(0deg); }
}

@keyframes tapWobble {
  0%   { transform: rotateZ(-0.2deg); }
  50%  { transform: rotateZ(0.2deg); }
  100% { transform: rotateZ(-0.2deg); }
}

@keyframes tapRight {
  0%   { transform: rotateZ(0deg); }
  90%  { transform: rotateZ(-6deg); }
  100% { transform: rotateZ(0deg); }
}

@keyframes headTilt {
  0%   { transform: rotateZ(0deg); }
  20%  { transform: rotateZ(0deg); }
  25%  { transform: rotateZ(-4deg); }
  35%  { transform: rotateZ(-4deg); }
  38%  { transform: rotateZ(2deg); }
  42%  { transform: rotateZ(2deg); }
  45%  { transform: rotateZ(-4deg); }
  50%  { transform: rotateZ(0deg); }
  70%  { transform: rotateZ(0deg); }
  82%  { transform: rotateZ(0deg); }
  85%  { transform: rotateZ(4deg); }
  90%  { transform: rotateZ(4deg); }
  100% { transform: rotateZ(0deg); }
}
	</style></defs>


    <g id="developer">
		<animate  fill="remove" from="0" begin="0s" restart="always" dur="5s" to="1" additive="replace" calcMode="linear" attributeName="opacity" accumulate="none">
		</animate>
	<g id="chair">
		<path fill="#999999" d="M87.183,316.531c0,1.551,1.259,2.814,2.813,2.814l0,0c1.551,0,2.811-1.266,2.811-2.814v-94.18
			c0-1.551-1.26-2.806-2.811-2.806l0,0c-1.555,0-2.813,1.255-2.813,2.806V316.531z"/>
		<path fill="#C7C6C7" d="M58.586,217.814c0.46-2.477-1.025-4.807-3.305-5.23l0,0c-2.281-0.419-4.5,1.236-4.955,3.715
			L28.981,332.486c-0.455,2.469,1.025,4.809,3.31,5.228l0,0c2.281,0.419,4.5-1.239,4.951-3.708L58.586,217.814z"/>
		<path fill="#C7C6C7" d="M89.771,344.281c0,2.493-1.941,4.514-4.336,4.514l0,0c-2.396,0-4.34-2.021-4.34-4.514V221.975
			c0-2.486,1.944-4.504,4.34-4.504l0,0c2.395,0,4.336,2.018,4.336,4.504V344.281z"/>
		<path fill="#C7C6C7" d="M143.762,330.91c0.524,2.525-0.91,4.965-3.213,5.446l0,0c-2.303,0.483-4.604-1.157-5.136-3.683
			l-24.204-114.647c-0.527-2.511,0.907-4.952,3.213-5.438l0,0c2.299-0.484,4.596,1.164,5.135,3.684L143.762,330.91z"/>
		<g>
			<g>
				<path fill="#C7C6C7" d="M128.484,207.389c0-5.233-18.476-9.467-41.302-9.467c-22.829,0-41.298,4.231-41.298,9.467
					c0,8.188,15.811,14.823,35.351,14.823C107.35,222.212,128.484,215.576,128.484,207.389z"/>
			</g>
			<g>
				<path fill="#999999" d="M128.484,205.97c0-4.446-18.476-8.048-41.302-8.048c-22.829,0-41.298,3.602-41.298,8.048
					c0,6.964,15.811,12.601,35.351,12.601C107.35,218.57,128.484,212.934,128.484,205.97z"/>
			</g>
		</g>
		<g>
			<path fill="none" stroke="#C6C6C6" stroke-width="1.5" stroke-miterlimit="10" d="M44.707,276.033
				c0.147,7.21,18.896,12.654,41.91,12.182"/>
			<path fill="none" stroke="#C6C6C6" stroke-width="1.5" stroke-miterlimit="10" d="M129.452,277.518
				c0.114,5.422-19.042,10.205-42.835,10.697"/>
		</g>
	</g>
	<g id="body">
		<path fill="#393939" d="M40.17,130.054c-0.057,0.151-0.118,0.308-0.176,0.46c-0.078,0.057-0.111,0.135-0.098,0.229
			c-0.506,1.813-1.432,3.447-2.154,5.172c-1.05-0.255-1.496-1.251-2.26-1.862c-0.455-0.365-0.768-0.955-1.484-0.854
			c-0.058-0.256-0.201-0.436-0.406-0.604c-1.361-1.103-2.773-2.133-4.213-3.13c-4.967-3.438-10.233-6.254-16.086-7.874
			c1.223-1.612,1.756-3.585,2.633-5.369c1.436-2.929,3.162-5.685,4.754-8.515c0.533-0.939,1.1-1.898,1.723-2.808
			c0.96-1.4,1.871-2.834,2.793-4.261c1.465-2.269,2.863-4.578,4.393-6.801c1.502-2.183,2.967-4.385,4.496-6.55
			c1.066-1.505,2.145-3.017,3.17-4.555c0.566-0.851,1.439-1.572,1.436-2.732c0.07-0.346,0.32-0.497,0.624-0.596
			c0.095-0.104,0.188-0.208,0.282-0.312c0.784-1.297,1.986-2.224,2.979-3.336c1.1-1.229,2.514-1.938,4.02-2.538
			c3.027-1.21,6.168-2.044,9.34-2.756c6.463-1.449,12.993-2.467,19.613-2.864c1.324,0.091,2.645,0.09,3.938-0.286
			c2.416,0,4.832,0,7.252,0c1.402,0.253,2.809,0.398,4.236,0.278c6.074,0.365,12.111,1.106,18.127,1.981
			c5.42,0.787,10.82,1.648,16.185,2.783c0.985,0.209,1.791,0.646,2.524,1.244c2.688,2.188,5.295,4.465,7.859,6.795
			c3.268,2.969,6.572,5.896,9.83,8.874c2.697,2.47,5.355,4.988,8.039,7.485c3.189,2.981,6.381,5.96,9.572,8.945
			c2.601,2.437,5.193,4.881,7.785,7.32c0.146,0.141,0.271,0.295,0.156,0.521c-1.896,0.077-3.514,1.062-5.242,1.669
			c-0.131,0.041-0.164,0.336-0.246,0.518c-0.346-0.114-0.674-0.104-1.025,0.045c-2.584,1.097-5.145,2.257-7.588,3.662
			c-5.145,2.97-9.844,6.551-14.273,10.5c-0.14-0.295-0.436-0.395-0.688-0.559c-1.643-1.055-3.281-2.087-4.826-3.293
			c-2.048-1.604-4.023-3.277-5.963-5.013c-1.877-1.675-3.646-3.411-5.34-5.268c-0.49-0.537-0.84-1.452-2.086-1.55
			c1.199,1.829,2.279,3.433,3.322,5.061c1.158,1.807,2.537,3.472,3.461,5.428c0.086,0.118,0.025,0.4,0.32,0.286l-0.047-0.013
			c0.457,1.78,0.859,3.576,1.37,5.344c1.313,4.529,2.601,9.073,3.905,13.604c1.137,3.953,2.287,7.908,3.445,11.854
			c0.549,1.88,1.131,3.744,1.6,5.646c0.082,0.341,0.131,0.681,0.59,0.759c1.223,0.205,1.674,1.251,2.092,2.178
			c0.607,1.329,0.828,2.781,0.96,4.355c-0.935,0.105-1.821,0.259-2.707,0.313c-5.827,0.346-11.659,0.648-17.483,1.011
			c-6.432,0.399-12.871,0.617-19.307,0.845c-7.547,0.263-15.098,0.354-22.648,0.451c-9.413,0.114-18.822-0.024-28.23-0.377
			c-1.81-0.066-3.623,0.082-5.423-0.189c0.558-0.422,1.284,0.074,1.907-0.344c-0.887-1.469-1.775-2.945-1.165-4.783
			c4.151,0.505,8.302,1.01,12.44,0.678c4.121-0.327,8.281-0.045,12.379-0.764c-4.258-0.155-8.52-0.028-12.777-0.324
			c-2.797-0.19-5.59-0.344-8.375-0.68c-2.285-0.279-3.922-1.28-4.381-3.791c-0.631-3.438-1.669-6.775-1.932-10.303
			c-0.229-3.094-0.582-6.179-0.549-9.285c0.027-3.122,0.008-6.243,0.012-9.364c0-0.402-0.049-0.815,0.033-1.202
			c0.524-2.469,0.25-4.991,0.5-7.483c0.188-1.878,0.316-3.794,0.439-5.688c0.184-2.933,0.738-5.84,1.111-8.761
			c0.037-0.278,0.18-0.636-0.182-0.857c-1.086,2.099-1.619,4.401-2.497,6.579c-1.608,3.999-2.933,8.108-4.438,12.148
			c-0.291,0.787-0.176,1.686-0.721,2.383c-0.137,0.201-0.271,0.396-0.406,0.6C40.211,129.677,40.162,129.854,40.17,130.054z"/>
		<path fill="#F5BC95" d="M1.829,141.35c0.397-0.308,0.468-0.791,0.528-1.21c0.365-2.403,1.186-4.685,1.978-6.948
			c0.574-1.641,1.145-3.313,2.03-4.836c1.948,0.074,3.889,0.041,5.845,0.23c2.752,0.266,5.435,0.814,8.089,1.477
			c4.385,1.091,8.58,2.735,12.674,4.646c-0.201,0.479-0.402,0.96-0.604,1.441c-1.473,2.15-2.945,4.291-4.814,6.129
			c-4.135,4.043-8.896,6.988-14.651,8.053c-2.58,0.476-5.173,0.451-7.629-0.75c-1.477-0.725-2.448-1.844-2.912-3.417
			c-0.099-0.333-0.226-0.669-0.533-0.888C1.829,143.971,1.829,142.658,1.829,141.35z"/>
		<path fill="#B5B5B4" d="M90.973,67.597c-1.428,0.12-2.833-0.025-4.236-0.278c1.406,0,2.816,0,4.229,0
			C90.92,67.414,90.924,67.507,90.973,67.597z"/>
		<path fill="#9A9999" d="M75.547,67.605c0.004-0.095,0.004-0.188,0.008-0.286c1.309,0,2.617,0,3.93,0
			C78.191,67.695,76.871,67.697,75.547,67.605z"/>
		<path fill="#F5BC95" d="M169.557,121.367c2.625,3.447,4.84,7.145,6.688,11.062c0.846,1.809,1.561,3.688,1.846,5.701
			c0.297,2.075-0.395,3.454-2.154,4.544c-2.535,1.58-5.311,2.445-8.264,2.511c-2.928,0.069-5.768-0.624-8.488-1.739
			c-5.473-2.237-10.141-5.685-14.535-9.553c-0.418-0.369-0.828-0.729-1.307-1.021c-0.131-0.209-0.262-0.418-0.395-0.627
			c1.066-1.005,2.396-1.629,3.635-2.338c3.995-2.289,8.016-4.551,12.33-6.188c3.346-1.268,6.718-2.583,10.426-2.165
			C169.4,121.564,169.482,121.433,169.557,121.367z"/>
		<path fill="#1D1E1E" d="M40.799,128.967c0.545-0.697,0.43-1.596,0.721-2.383c1.506-4.04,2.83-8.149,4.438-12.148
			c0.878-2.178,1.411-4.48,2.497-6.579c0.361,0.224,0.219,0.579,0.182,0.857c-0.373,2.921-0.928,5.828-1.111,8.761
			c-0.123,1.896-0.251,3.813-0.439,5.688c-0.25,2.492,0.024,5.017-0.5,7.483c-0.082,0.388-0.033,0.8-0.033,1.202
			c-0.004,3.121,0.016,6.242-0.012,9.364c-0.033,3.106,0.319,6.191,0.549,9.285c0.263,3.525,1.301,6.864,1.932,10.303
			c0.459,2.511,2.096,3.512,4.381,3.791c2.785,0.336,5.578,0.487,8.375,0.68c4.258,0.296,8.52,0.169,12.777,0.324
			c-4.098,0.719-8.258,0.437-12.379,0.764c-4.139,0.332-8.289-0.173-12.44-0.678c-0.61,1.838,0.278,3.314,1.165,4.783
			c-0.623,0.418-1.35-0.078-1.907,0.344c-4.771-0.139-9.528-0.5-14.29-0.787c-0.689-0.045-0.988-0.267-0.939-1
			c0.099-1.406,0.189-2.807,0.66-4.149c0.173-0.478,0.324-1.101,0.764-1.247c0.895-0.31,0.89-1.02,0.968-1.684
			c0.738-6.227,1.78-12.415,2.62-18.633c0.501-3.725,1.051-7.453,1.576-11.178c0.098-0.692,0.139-1.396,0.205-2.092l-0.05,0.009
			C40.995,129.795,40.758,129.344,40.799,128.967z"/>
		<path fill="#E7A87F" d="M169.557,121.367c-0.072,0.063-0.154,0.195-0.221,0.188c-3.708-0.418-7.08,0.897-10.426,2.165
			c-4.314,1.637-8.335,3.896-12.33,6.186c-1.238,0.709-2.566,1.333-3.635,2.34c-1.271-1.107-1.271-1.107-0.271-2.303
			c4.432-3.948,9.131-7.529,14.273-10.5c2.443-1.404,5.004-2.565,7.588-3.662c0.354-0.146,0.681-0.158,1.023-0.045
			c0.533,1.056,1.32,1.915,2.117,2.771C168.311,119.46,168.934,120.416,169.557,121.367z"/>
		<path fill="#1D1E1E" d="M142.676,129.943c-1.001,1.193-1.001,1.193,0.271,2.303c0.132,0.209,0.263,0.418,0.394,0.627
			c-0.327,0.1-0.655,0.251-0.991,0.296c-3.972,0.542-2.757,0.941-5.44-1.907c-1.877-1.998-3.726-4.023-5.587-6.033
			c-0.133-0.14-0.252-0.314-0.489-0.201l0.047,0.014c0.035-0.254-0.146-0.271-0.319-0.287c-0.924-1.956-2.304-3.621-3.461-5.426
			c-1.043-1.63-2.123-3.231-3.322-5.063c1.246,0.098,1.595,1.013,2.086,1.55c1.688,1.854,3.461,3.595,5.339,5.269
			c1.938,1.732,3.915,3.406,5.963,5.012c1.545,1.206,3.187,2.239,4.825,3.293C142.24,129.549,142.536,129.648,142.676,129.943z"/>
		<path fill="#1D1E1E" d="M167.68,118.508c-0.797-0.856-1.584-1.718-2.117-2.771c0.082-0.182,0.115-0.477,0.246-0.518
			c1.73-0.607,3.349-1.592,5.242-1.669C170.182,115.371,169.082,117.04,167.68,118.508z"/>
		<path fill="#1D1E1E" d="M32.369,136.152c0.201-0.481,0.402-0.963,0.604-1.441c0.34-0.504,0.685-1.009,1.025-1.51
			c0.717-0.104,1.029,0.486,1.484,0.854c0.764,0.611,1.21,1.607,2.26,1.862c-0.02,0.554-0.426,0.572-0.832,0.604
			C35.376,136.645,33.862,136.551,32.369,136.152z"/>
		<path fill="#554A3E" d="M40.507,130.05l0.05-0.009c-0.132-0.104-0.259-0.105-0.387,0.013c-0.008-0.2,0.041-0.377,0.223-0.487
			C40.43,129.726,40.471,129.886,40.507,130.05z"/>
		<path fill="#554A3E" d="M39.896,130.743c-0.014-0.097,0.02-0.175,0.098-0.229C40.043,130.62,40.011,130.697,39.896,130.743z"/>
		<path fill="#1D1E1E" d="M7.977,124.263c-0.709-0.968-1.587-1.805-2.148-2.892c-0.369-0.713-0.328-1.279,0.188-1.915
			c1.386-1.715,2.711-3.479,4.089-5.201c1.469-1.841,2.966-3.658,4.463-5.478c2.797-3.402,5.603-6.801,8.404-10.198
			c2.071-2.517,4.118-5.051,6.214-7.539c2.124-2.53,4.294-5.024,6.452-7.53c1.009-1.173,2.034-2.336,3.051-3.505
			c0.004,1.161-0.869,1.884-1.436,2.732c-1.025,1.538-2.104,3.049-3.17,4.555c-1.529,2.166-2.994,4.368-4.496,6.55
			c-1.529,2.223-2.928,4.532-4.393,6.801c-0.922,1.427-1.833,2.858-2.793,4.261c-0.623,0.907-1.189,1.866-1.723,2.808
			c-1.592,2.83-3.318,5.586-4.754,8.515c-0.877,1.784-1.41,3.757-2.633,5.369c-0.484-0.103-0.969-0.209-1.452-0.308
			c-2.092-0.433-1.563-0.765-2.612,1.25C8.9,123.163,8.851,124.024,7.977,124.263z"/>
		<path fill="#E7A87F" d="M7.977,124.263c0.874-0.238,0.924-1.1,1.252-1.728c1.05-2.015,0.521-1.683,2.612-1.25
			c0.483,0.099,0.968,0.203,1.452,0.308c5.853,1.62,11.119,4.438,16.086,7.874c1.439,0.997,2.852,2.027,4.213,3.13
			c0.205,0.169,0.349,0.349,0.406,0.604c-0.341,0.501-0.686,1.006-1.025,1.51c-4.094-1.911-8.289-3.558-12.674-4.646
			c-2.654-0.66-5.337-1.211-8.089-1.477c-1.956-0.189-3.896-0.156-5.845-0.23C6.8,126.953,7.752,125.752,7.977,124.263z"/>
		<path fill="#1D1E1E" d="M63.729,73.606c4.67,6.767,11.132,9.547,18.887,9.771c7.913,0.226,14.016-3.1,18.62-9.613
			c0.197,0.863-0.245,1.407-0.576,1.892c-1.452,2.115-3.044,4.104-5.168,5.619c-2.239,1.603-4.7,2.696-7.364,3.271
			c-2.297,0.492-4.645,0.771-7.014,0.64c-4.398-0.25-8.533-1.39-12.045-4.127c-2.313-1.805-4.082-4.139-5.422-6.768
			C63.608,74.217,63.666,74.1,63.729,73.606z"/>
		<path fill="#FFFFFF" d="M40.507,130.05c-0.036-0.164-0.077-0.324-0.114-0.483c0.135-0.199,0.27-0.396,0.406-0.6
			C40.758,129.344,40.995,129.795,40.507,130.05z"/>
		<path fill="#1D1E1E" d="M39.313,79.41c0.024-0.164,0.118-0.271,0.282-0.313C39.502,79.202,39.408,79.307,39.313,79.41z"/>
		<path fill="#FFFFFF" d="M130.557,124.75c0.176,0.018,0.355,0.033,0.32,0.287C130.582,125.152,130.643,124.869,130.557,124.75z"/>
		<g id="left-arm">
			<path fill="#F5BC95" d="M161.166,129.496c2.395-0.406,4.749-0.601,7.029,0.572c2.822,1.452,5.586,2.961,7.883,5.201
				c0.813,0.787,1.42,1.714,1.83,2.739c0.664,1.674,0,3.331-1.715,4.737c-1.061,0.863-2.256,1.521-3.461,2.129
				c-7.639,3.807-15.529,7.038-23.502,10.09c-6.326,2.428-12.726,4.643-19.215,6.583c-4.273,1.274-8.58,2.489-13.027,2.978
				c-2.326,0.254-4.709,0.447-7.014-0.394c-1.123-0.406-1.908-1.07-2.207-2.252c0.322,0,0.545-0.192,0.791-0.386
				c2.244-1.766,4.482-3.527,6.752-5.264c1.982-1.521,3.981-3.025,6.018-4.481c3.17-2.272,6.311-4.6,9.592-6.706
				c2.691-1.73,5.398-3.441,8.18-5.041c3.184-1.82,6.373-3.609,9.662-5.217c3.782-1.854,7.646-3.563,11.674-4.842
				C160.723,129.857,161.043,129.836,161.166,129.496z"/>
			<path fill="#E7A87F" d="M161.166,129.496c-0.123,0.34-0.443,0.359-0.73,0.449c-4.025,1.279-7.892,2.986-11.674,4.842
				c-3.289,1.605-6.479,3.396-9.662,5.217c-2.781,1.6-5.488,3.311-8.18,5.041c-3.281,2.106-6.422,4.434-9.592,6.706
				c-2.034,1.456-4.033,2.962-6.018,4.481c-2.27,1.734-4.508,3.498-6.752,5.264c-0.246,0.191-0.469,0.386-0.791,0.386
				c-0.234-1.985,0.691-3.572,1.715-5.151c1.264-1.952,3.063-3.27,4.988-4.495c8.041-5.132,16.17-10.112,24.67-14.471
				c5.725-2.929,11.549-5.623,17.768-7.387C158.303,129.98,159.697,129.554,161.166,129.496z"/>
		</g>
		<g id="right-arm">
			<path fill="#F5BC95" d="M76.445,158.031c1.164,2.411,0.611,3.89-1.871,4.872c-2.965,1.183-6.082,1.302-9.195,1.042
				c-2.396-0.191-4.791-0.418-7.178-0.744c-4.475-0.607-8.921-1.381-13.347-2.263c-6.837-1.355-13.626-2.938-20.356-4.745
				c-5.574-1.497-11.148-2.992-16.525-5.131c-1.361-0.542-2.621-1.191-3.531-2.449c-0.984-1.359-0.918-2.682-0.233-4.085
				c1.156-2.368,3.067-4.089,5.017-5.759c0.836-0.713,1.828-1.238,2.689-1.928c1.703-1.361,3.684-1.76,5.783-1.788
				c2.561-0.032,5.104,0.078,7.576,0.841c0.391,0.455,0.973,0.496,1.48,0.668c2.848,0.969,5.738,1.822,8.544,2.895
				c4.872,1.855,9.771,3.646,14.565,5.705c4.195,1.797,8.403,3.566,12.501,5.568c4.405,2.152,8.777,4.38,12.952,6.964
				C75.682,157.924,76.039,158.022,76.445,158.031z"/>
			<path fill="#E7A87F" d="M76.445,158.031c-0.406-0.009-0.764-0.105-1.129-0.337c-4.175-2.584-8.547-4.812-12.952-6.964
				c-4.098-2.002-8.306-3.771-12.501-5.568c-4.795-2.061-9.693-3.85-14.565-5.705c-2.806-1.07-5.696-1.926-8.544-2.895
				c-0.508-0.172-1.09-0.213-1.48-0.668c2.929,0.209,5.723,1.07,8.516,1.87c8.227,2.351,16.172,5.468,24.035,8.818
				c4.482,1.915,8.953,3.866,13.313,6.038C73.463,153.781,75.193,155.717,76.445,158.031z"/>
		</g>
		<g id="head">
			<g>
				<path fill="#F5BB95" d="M105.841,59.888c-0.024-2.327,0.29-4.583,1.526-6.719c0.646-1.12,0.623-2.436,0.992-3.635
					c0.91-2.96,0.951-6.124,2.723-8.889c0.246-0.39,0.566-0.748,0.854-1.121c0.258-0.078,0.52-0.163,0.779-0.245
					c0.756-0.244,1.37-0.162,1.686,0.564c0.291,0.67,0.646,1.305,0.705,2.055c0.229,2.729,0.418,5.438-0.287,8.147
					c-0.5,1.951-0.649,3.98-1.668,5.804c-0.828,1.497-2.01,2.854-3.575,3.802C108.482,60.309,107.111,60.191,105.841,59.888z"/>
				<path fill="#F5BB95" d="M54.912,39.177c0.701,0.547,0.631,1.367,0.545,1.973c-0.316,2.163,0.033,4.22,0.738,6.285
					c1.178,3.444,2.166,6.938,4.102,10.147c0.271,0.455,0.308,0.915,0.238,1.396c-1.411,0.62-2.346,0.542-3.445-0.395
					c-1.07-0.923-1.771-2.026-2.281-3.288c-0.926-2.313-1.313-4.739-1.861-7.104c-0.525-2.297-0.723-4.731-0.082-7.101
					C53.127,40.146,53.521,39.255,54.912,39.177z"/>
				<path fill="#F5BB95" d="M97.966,63.66c-1.769,0.09-3.511,0.083-5.168-0.54c-0.983-0.371-2.001-0.471-3.076-0.229
					C89.239,63,88.82,63.15,88.594,63.496c-0.809,1.283-2.199,1.747-3.74,1.878c-2.162,0.188-4.328,0.318-6.439-0.361
					c-0.542-0.176-1.079-0.393-1.375-0.788c-0.926-1.258-2.301-1.296-3.715-1.028c-2.707,0.521-5.443,0.313-8.167,0.29
					c-0.853-0.003-1.645-0.298-2.433-0.531c-0.5-0.15-0.685-0.48-0.705-0.911c-0.229-3.669-1.674-7.067-3.068-10.486
					c-0.606-1.472-1.074-2.99-1.559-4.5c-0.721-2.22,0.074-4.345,0.23-6.506c0.221-3.043,0.631-6.058,1.678-8.993
					c0.479-1.322,1.227-2.548,1.628-3.896c0.558-1.896,0.902-3.825,1.329-5.741c0.385-1.684,1.436-3.063,2.842-4.222
					c0.932-0.765,1.949-1.539,3.08-2.019c1.489-0.623,3.143-0.451,4.652,0.085c3.264,1.158,6.554,1.434,9.982,0.563
					c2.268-0.574,4.602-0.689,6.883,0.027c1.329,0.422,2.708,0.563,4.094,0.604c1.025,0.032,1.891,0.273,2.723,0.77
					c1.063,0.629,2.174,1.185,3.24,1.811c1.641,0.961,1.846,2.561,2.248,4.031c0.41,1.492,1.607,6.657,2.354,7.602
					c1.389,1.764,1.715,3.798,2.062,5.814c0.306,1.813,0.399,3.635,0.952,5.433c0.582,1.894,0.672,3.854-0.082,5.782
					c-0.214,0.533-0.287,1.118-0.352,1.687c-0.225,2.026-1.063,3.912-1.773,5.831c-0.602,1.633-1.001,3.322-1.438,5.001
					c-0.666,2.526-1.244,2.943-4.295,2.939C98.941,63.66,98.449,63.66,97.966,63.66z"/>
				<g>
					<g>
						<path fill="#F5BC95" d="M66.654,46.586c-0.037,0.04-0.07,0.078-0.111,0.119c0-0.026-0.008-0.063,0.009-0.075
							c0.032-0.021,0.073-0.027,0.114-0.04L66.654,46.586z"/>
						<g>
							<path fill="#1D1E1E" d="M66.498,41.078c0.018-0.892,0.091-1.766,0.6-2.576c0.57-0.937,1.518-1.386,2.678-1.382
								c1.104,0.008,1.94,0.509,2.441,1.391c0.418,0.747,0.672,1.53,0.729,2.362c0.164,2.088-0.931,3.271-3.126,3.343
								C67.568,44.289,66.498,43.272,66.498,41.078z M69.805,39.101c0.188,0.377,0.525,0.656,1.004,0.563
								c0.419-0.096,0.82-0.373,0.645-0.829c-0.156-0.385-0.57-0.57-1.055-0.433C70.025,38.502,69.797,38.731,69.805,39.101z"/>
							<path fill="#BEC5C9" d="M69.805,39.101c-0.008-0.369,0.221-0.599,0.594-0.697c0.484-0.139,0.898,0.047,1.055,0.433
								c0.176,0.456-0.226,0.732-0.645,0.829C70.33,39.757,69.993,39.478,69.805,39.101z"/>
						</g>
						<g>
							<path fill="#1D1E1E" d="M88.605,40.515c-0.045-0.895,0.296-2.076,1.559-2.949c1.111-0.777,2.691-0.822,3.557,0.063
								c0.828,0.859,1.525,1.829,1.625,3.025c0.159,1.899-1.066,3.245-3.131,3.359C89.828,44.136,88.605,43.086,88.605,40.515z
								 M92.99,38.374c-0.344,0.057-0.734,0.205-0.82,0.5c-0.119,0.451,0.264,0.681,0.751,0.722
								c0.423,0.033,0.681-0.164,0.718-0.533C93.672,38.689,93.396,38.505,92.99,38.374z"/>
							<path fill="#BEC5C9" d="M92.941,38.476c0.385,0.123,0.646,0.301,0.619,0.653c-0.037,0.353-0.283,0.542-0.688,0.511
								c-0.463-0.04-0.828-0.258-0.713-0.688C92.244,38.67,92.613,38.529,92.941,38.476z"/>
						</g>
					</g>
					<g>
						<path fill="#23201D" d="M72.729,32.354c0.07,0,0.316,0.015,0.559,0c0.688-0.062,1,0.283,1.037,0.81
							c0.058,0.591-0.455,0.64-0.98,0.644c-1.361,0.024-2.727,0.041-4.085,0.172c-1.809,0.176-3.548,0.542-5.286,0.974
							c-0.227,0.062-0.46,0.146-0.697,0.18c-0.432,0.078-0.939,0.168-1.088-0.332c-0.127-0.427,0.313-0.574,0.682-0.681
							c1.152-0.342,2.297-0.709,3.461-0.98C68.365,32.674,70.465,32.493,72.729,32.354z"/>
						<path fill="#23201D" d="M88.655,32.419c3.306,0.109,6.521,0.599,9.598,1.661c0.455,0.158,1.239,0.188,1.024,0.814
							c-0.186,0.525-0.856,0.292-1.291,0.168c-3.146-0.9-6.365-1.309-9.676-1.263c-0.492,0.004-1.066-0.013-1.046-0.611
							c0.028-0.562,0.479-0.792,1.099-0.777C88.467,32.411,88.561,32.415,88.655,32.419z"/>
					</g>
				</g>
				<path fill="#23201D" d="M110.643,37.083c0-1.083-0.006-2.18-0.017-3.274c-0.276-1.46-0.187-3.089-0.114-4.405
					c-0.318-6.986-1.443-13.923-5.584-19.723c-0.613-0.472-1.203-0.965-1.725-1.53c-0.865-0.931-2.029-1.604-3.121-2.35
					c-1.747-0.804-3.479-1.625-5.143-2.536c-0.279-0.094-0.57-0.189-0.857-0.27c-0.316-0.083-0.637-0.182-0.947-0.276
					c-2.384-0.257-4.693-0.849-7.096-0.975c-0.05,0-0.082-0.02-0.123-0.026c-0.21,0.07-0.41,0.123-0.566,0.099
					c-1.141-0.189-2.178-0.023-3.277,0.034c-1.242,0.063-2.478,0.093-3.703,0.291c-2.15,0.336-4.315,0.574-6.23,1.616
					c-1.264,0.688-2.588,1.296-3.859,1.985c-0.457,0.25-0.891,0.571-1.398,0.75c-0.196,0.244-0.473,0.349-0.798,0.326
					c-0.159,0.061-0.317,0.123-0.475,0.187c-0.083,0.09-0.1,0.209-0.245,0.271c-0.719,0.32-1.389,0.681-2.1,1.007
					c-1.05,0.766-2.066,1.563-2.881,2.559c-0.274,0.339-0.63,0.62-0.977,0.909c-0.107,0.191-0.264,0.345-0.359,0.55
					c-0.014,0.03-0.043,0.024-0.06,0.053c-0.036,0.092-0.032,0.188-0.104,0.272c-0.661,0.829-1.418,1.651-2.188,2.479
					c-0.801,1.71-1.386,3.517-1.915,5.365c-0.542,2.656-0.829,5.344-0.966,8.021c0.211,1.95,0.461,3.898,0.652,5.855
					c0.012,0.123-0.07,0.175-0.092,0.275c0.068,0.322,0.137,0.646,0.168,0.979c0.11,1.189-0.104,2.411,0.369,3.575
					c0.701,0.547,0.631,1.367,0.545,1.973c-0.316,2.163,0.033,4.22,0.738,6.285c1.178,3.444,2.166,6.938,4.102,10.147
					c0.271,0.455,0.308,0.915,0.238,1.396c-0.012,2.026,0.462,3.954,1.141,5.841c0.725,1.206,1.436,2.421,2.097,3.663
					c0.024,0.045-0.005,0.082,0.014,0.127c0.265,0.241,0.599,0.429,0.81,0.706c1.854,2.488,4.232,4.584,6.734,6.563
					c1.189,0.934,2.806,1.391,4.359,1.705c4.065,0.809,8.158,1.043,12.228-0.119c1.896-0.544,3.507-1.5,5.127-2.449
					c3.438-2.008,6.652-4.203,8.982-7.251c0.515-0.671,0.863-1.396,1.24-2.111c0.012-0.155,0.053-0.318,0.168-0.486
					c0.729-1.067,1.176-2.169,1.467-3.425c0.01-0.037,0.045-0.038,0.056-0.071c0.246-0.61,0.542-1.202,0.884-1.783
					c-0.023-2.327,0.29-4.583,1.526-6.719c0.647-1.12,0.623-2.436,0.991-3.635c0.711-2.313,0.918-4.744,1.808-7.018
					c0.271-1.628,0.562-3.253,0.606-4.91c0-0.001,0-0.004,0-0.005C110.691,37.463,110.643,37.292,110.643,37.083z M107.285,48.201
					c-0.215,0.533-0.287,1.118-0.352,1.687c-0.225,2.026-1.063,3.912-1.773,5.831c-0.6,1.633-1.001,3.322-1.439,5.001
					c-0.664,2.526-1.242,2.943-4.295,2.939h-1.46c-1.769,0.09-3.511,0.083-5.168-0.54c-0.983-0.371-2.001-0.471-3.076-0.229
					C89.239,63,88.82,63.15,88.594,63.495c-0.809,1.283-2.199,1.747-3.74,1.878c-2.162,0.188-4.328,0.318-6.439-0.361
					c-0.542-0.176-1.079-0.393-1.375-0.788c-0.926-1.258-2.301-1.296-3.715-1.028c-2.707,0.521-5.443,0.313-8.167,0.29
					c-0.853-0.003-1.645-0.298-2.433-0.531c-0.5-0.15-0.685-0.48-0.705-0.911c-0.229-3.669-1.674-7.067-3.068-10.486
					c-0.606-1.472-1.074-2.99-1.559-4.5c-0.721-2.22,0.074-4.345,0.23-6.506c0.221-3.043,0.631-6.058,1.678-8.993
					c0.479-1.322,1.227-2.548,1.628-3.896c0.558-1.896,0.902-3.825,1.329-5.741c0.385-1.684,1.436-3.063,2.842-4.223
					c0.932-0.764,1.949-1.539,3.08-2.018c1.489-0.623,3.143-0.451,4.652,0.085c3.264,1.158,6.554,1.433,9.982,0.563
					c2.268-0.574,4.602-0.689,6.883,0.027c1.329,0.422,2.708,0.563,4.094,0.604c1.025,0.032,1.891,0.273,2.723,0.77
					c1.063,0.629,2.174,1.185,3.24,1.811c1.641,0.961,1.846,2.561,2.248,4.031c0.41,1.492,0.436,3.023,0.59,4.551
					c0.115,1.116,1.018,2.106,1.764,3.051c1.389,1.764,1.715,3.798,2.062,5.814c0.306,1.813,0.399,3.635,0.952,5.433
					C107.949,44.313,108.039,46.273,107.285,48.201z"/>
			</g>
			<path fill="#101010" d="M76.568,60.6c1.045-0.127,1.98,0.813,2.99,1.091c2.76,0.754,5.426,0.299,8.066-1.153
				c0.246-0.137,0.488-0.27,0.734-0.403l0.013,0.026c-0.077,1.104-0.587,1.221-1.017,1.453c-2.285,1.229-4.594,1.789-6.99,1.038
				c-0.996-0.31-2.001-0.462-2.953-1.102c-0.319-0.209-0.647-0.382-0.865-0.92L76.568,60.6z"/>
			<path fill="none" stroke="#000000" stroke-miterlimit="10" d="M80.891,44.22c-1.906,2.01-1.141,4.581,0.5,6.14"/>
		</g>
	</g>
	<g id="shoes">
		<g id="right">
			<path fill="#4F4035" d="M25.172,294.842c-1.572-2.961-1.764-6.094-1.157-9.318c0.931-4.922,3.382-8.893,7.403-11.91
				c5.233-3.922,11.172-6.092,17.551-7.188c5.094-0.882,10.217-0.931,15.355-0.472c2.174,0.195,4.242-0.164,5.951-1.607
				c1.637-1.371,3.286-1.297,5.074-0.387c2.313,1.174,4.053,2.921,5.349,5.145c0.259,0.442,0.515,0.886,0.771,1.328
				c-0.098,0.697-0.406,1.271-0.943,1.748c-1.066,0.943-2.096,1.919-3.154,2.871c-3.99,3.568-8.26,6.768-12.751,9.68
				c-3.146,2.042-6.448,3.814-9.717,5.645c-3.913,1.785-7.851,3.508-11.923,4.894c-2.269,0.677-4.531,1.37-6.854,1.858
				c-0.701,0.146-1.494-0.066-2.117,0.459c-1.234,0.017-2.473,0.049-3.707,0.041C28.1,297.615,26.221,296.983,25.172,294.842z"/>
			<path fill="#8C8D8D" d="M82.564,271.209c-0.321-0.313-0.604-0.697-1.096-0.779c-0.098,0.697-0.406,1.271-0.943,1.748
				c-1.066,0.943-2.096,1.919-3.154,2.871c-3.99,3.568-8.26,6.768-12.751,9.68c-3.146,2.042-6.448,3.814-9.717,5.645
				c-3.913,1.785-7.851,3.508-11.923,4.894c-2.269,0.677-4.531,1.37-6.854,1.858c-0.701,0.146-1.494-0.066-2.117,0.459
				c-1.234,0.017-2.473,0.049-3.707,0.04c-2.203-0.009-4.082-0.641-5.131-2.78c-0.943,1.756-0.939,1.752,0.453,3.463
				c1.002,1.238,1.982,2.493,2.77,3.892c0.443,0.792,0.952,1.552,1.592,2.211c0.459,0.478,0.96,0.788,1.648,0.729
				c2.429-0.205,4.861-0.369,7.228-1.019c2.112-0.209,4.143-0.777,6.152-1.436c4.466-1.189,8.563-3.188,12.411-5.718
				c0.455-0.229,0.928-0.435,1.357-0.705c4.948-3.102,9.605-6.588,13.912-10.524c3.844-3.52,7.338-7.356,10.182-11.745
				C83.762,272.624,83.725,272.333,82.564,271.209z"/>
			<path fill="#9A9A9A" d="M54.903,290.238c0.677,0.023,0.722,0.592,0.909,1.041c0.613,1.512,0.772,3.136,1.179,4.696
				c0.086,0.328,0.11,0.661,0.435,0.857c-3.848,2.528-7.945,4.526-12.411,5.718c0.073-0.643-0.164-1.202-0.378-1.797
				c-0.666-1.84-1.76-3.558-1.656-5.623C47.053,293.744,50.99,292.021,54.903,290.238z"/>
			<path fill="#9A9A9A" d="M25.172,294.709c1.049,2.141,2.928,2.771,5.131,2.778c1.234,0.011,2.473-0.022,3.707-0.04
				c1.021-0.128,1.559,0.327,1.801,1.328c0.361,1.492,1.179,2.806,1.842,4.181c0.254,0.528,0.525,1.014,1.21,1.028
				c-2.366,0.648-4.799,0.813-7.228,1.02c-0.688,0.057-1.189-0.257-1.648-0.73c-0.64-0.66-1.148-1.42-1.592-2.211
				c-0.787-1.398-1.768-2.654-2.77-3.893C24.232,296.46,24.229,296.464,25.172,294.709z"/>
		</g>
		<g id="left">
			<path fill="#8C8D8D" d="M149.574,289.354c-0.667,1.602-1.952,2.37-3.563,2.808c-1.785,0.482-3.576,0.326-5.373,0.312
				c-0.803,0.018-1.605,0.032-2.41,0.05c-7.223-0.865-14.209-2.657-20.99-5.291c-0.1-0.031-0.168-0.141-0.25-0.214
				c-0.693-0.242-1.399-0.44-2.072-0.729c-2.387-1.021-4.76-2.072-7.139-3.109c-0.4-0.436-0.967-0.591-1.461-0.856
				c-4.977-2.653-9.809-5.532-14.285-8.979c-0.566-0.438-1.002-0.91-1.239-1.566c-0.423,0.1-0.651,0.438-0.902,0.742
				c-1.198,1.443-1.214,1.588-0.031,3.011c2.114,2.538,4.493,4.819,7.054,6.903c3.399,2.756,6.914,5.354,10.793,7.406
				c0.129,0.111,0.241,0.246,0.383,0.328c4.188,2.438,8.526,4.574,13.033,6.366c5.829,2.313,11.883,3.452,18.155,3.437
				c1.531,0.009,3.068-0.036,4.597,0.05c1.338,0.078,2.142-0.546,2.69-1.665c1.146-2.346,2.229-4.725,3.725-6.891
				C150.961,290.486,150.748,290.076,149.574,289.354z"/>
			<path fill="#4F4035" d="M145.271,292.611c-1.203,0.192-2.416,0.342-3.619,0.515c-0.692-0.456-1.43-0.119-2.137-0.169
				c-2.345-0.155-4.658-0.541-6.979-0.914c-4.19-0.832-8.306-2.043-12.397-3.314c-3.479-1.419-6.979-2.768-10.369-4.43
				c-4.845-2.362-9.513-5.064-13.97-8.184c-1.185-0.833-2.35-1.692-3.534-2.521c-0.601-0.41-0.99-0.959-1.195-1.673
				c0.179-0.497,0.354-1.005,0.535-1.497c0.908-2.51,2.328-4.59,4.396-6.16c1.601-1.219,3.196-1.535,5.006-0.35
				c1.896,1.237,3.97,1.313,6.058,0.781c4.935-1.24,9.938-1.964,15.045-1.796c6.389,0.188,12.521,1.567,18.25,4.864
				c4.397,2.543,7.418,6.32,9.109,11.305c1.107,3.271,1.42,6.563,0.358,9.88C149.145,291.34,147.414,292.275,145.271,292.611z"/>
			<path fill="#9A9A9A" d="M108.491,284.299c2.379,0.966,4.752,1.942,7.14,2.893c0.672,0.27,1.378,0.455,2.072,0.682
				c0.082,0.066,0.15,0.168,0.249,0.196c6.78,2.45,13.771,4.118,20.991,4.926c1.238,0.634,2.672-0.022,4.05,0.466
				c-0.483,1.863-1.247,3.541-2.37,5.066c-0.328,0.442-0.721,0.816-0.632,1.396c-6.272,0.016-12.327-1.045-18.156-3.198
				c-4.507-1.668-8.847-3.656-13.032-5.923c-0.143-0.077-0.254-0.203-0.383-0.307c0.038-0.635-0.093-1.251-0.164-1.877
				C108.1,287.184,107.747,285.703,108.491,284.299z"/>
		</g>
	</g>
	<g id="computer">
		<path fill="#D0DADA" d="M171.592,99.485c-0.533-1.587-1.92-2.82-3.609-2.933c-1.346-0.086-2.697-0.14-4.045-0.254
			c-2.6-0.221-5.209-0.063-7.824-0.303c-3.094-0.287-6.211-0.045-9.326-0.295c-4.003-0.32-8.031-0.063-12.055-0.301
			c-6.066-0.359-12.155-0.164-18.239-0.267c-10.199-0.168-20.417-0.357-30.625,0.151c-5.267,0.263-10.546,0.031-15.828,0.271
			c-3.757,0.172-7.519,0.5-11.292,0.398c-0.146-0.004-0.303-0.004-0.451,0.026c-2.316,0.497-4.691,0.306-7.037,0.488
			c-2.191,0.176-4.397,0.365-6.604,0.459c-1.338,0.053-2.712,0.078-4.045,0.291c-1.834,0.299-3.684,0.345-5.529,0.504
			c-1.443,0.123-2.887,0.309-4.339,0.406c-2.589,0.172-5.168,0.542-7.752,0.833c-1.989,0.222-3.975,0.476-5.964,0.697
			c-2.035,0.226-4.057,0.564-6.091,0.833c-2.183,0.291-3.667,1.506-3.585,3.844c0.053,1.591,0.55,3.072,1.107,4.503
			c0.91,2.343,1.575,4.763,2.362,7.137c0.788,2.375,1.493,4.786,2.293,7.153c1.637,4.836,3.113,9.725,4.737,14.563
			c0.824,2.461,1.661,4.938,2.387,7.439c1.28,4.43,2.934,8.745,4.197,13.184c0.172,0.606,0.258,1.41,1.012,1.746
			c0.037,0.551,0.1,1.092,0.264,1.625c1.637,5.304,3.178,10.641,5.094,15.85c0.221,0.105,0.476,0.182,0.66,0.337
			c1.998,1.688,4.393,2.073,6.887,2.051c2.613-0.032,5.209,0.296,7.813,0.394c1.796,0.074,3.618,0.025,5.397,0.265
			c2.309,0.296,4.635,0.03,6.911,0.317c2.411,0.296,4.831,0,7.215,0.279c3.563,0.41,7.137,0.033,10.688,0.295
			c7.49,0.561,14.98,0.287,22.471,0.189c3.756-0.051,7.537,0.022,11.279-0.287c2.518-0.205,5.027-0.019,7.521-0.279
			c2.355-0.246,4.729-0.057,7.059-0.32c1.91-0.213,3.844,0.025,5.701-0.295c2.393-0.418,4.814,0.041,7.193-0.5
			c0.859-0.195,1.813-0.105,2.707-0.033c1.277,0.107,2.492-0.244,3.73-0.377c0.826-0.082,1.543-0.673,2.025-1.428
			c0.926-1.441,1.795-2.904,2.533-4.438c0.092-0.189,0.107-0.715,0.574-0.336c0.82-2.109,1.297-4.319,2.02-6.452
			c1.1-3.281,1.918-6.657,3.035-9.938c0.895-2.606,1.59-5.272,2.461-7.891c1.065-3.191,1.951-6.434,2.953-9.647
			c0.844-2.728,1.754-5.438,2.6-8.162c0.979-3.167,1.889-6.349,2.871-9.507c1.348-4.307,2.813-8.58,4.068-12.912
			c0.723-2.502,1.674-4.93,2.248-7.473C171.559,100.766,171.83,100.195,171.592,99.485z"/>
		<path fill="#B5B5B4" d="M30.803,177.537c0.221,0.105,0.476,0.182,0.66,0.337c1.998,1.688,4.393,2.075,6.887,2.051
			c2.613-0.032,5.209,0.296,7.813,0.394c1.796,0.074,3.618,0.025,5.397,0.265c2.309,0.296,4.635,0.03,6.911,0.317
			c2.411,0.296,4.831,0,7.215,0.279c3.563,0.41,7.137,0.033,10.688,0.295c7.49,0.561,14.981,0.287,22.469,0.189
			c3.757-0.051,7.539,0.022,11.281-0.287c2.517-0.205,5.028-0.019,7.521-0.279c2.356-0.246,4.729-0.057,7.06-0.32
			c1.909-0.213,3.844,0.025,5.7-0.295c2.394-0.418,4.813,0.041,7.193-0.5c0.86-0.195,1.813-0.105,2.707-0.031
			c1.278,0.105,2.493-0.246,3.731-0.379c0.827-0.082,1.543-0.673,2.026-1.428c0.926-1.441,1.795-2.904,2.533-4.438
			c0.092-0.189,0.106-0.714,0.573-0.336c-0.819,2.206-1.155,4.561-2.106,6.732c-0.754,1.73-2.025,2.485-3.871,2.602
			c-5.069,0.318-10.144,0.408-15.213,0.641c-3.572,0.164-7.146,0.057-10.705,0.295c-5.026,0.328-10.063,0.082-15.084,0.287
			c-6.842,0.279-13.685,0.328-20.521,0.14c-6.086-0.164-12.178-0.017-18.252-0.296c-3.42-0.153-6.842-0.09-10.254-0.262
			c-5.27-0.254-10.545-0.468-15.819-0.6c-0.902-0.023-1.81-0.105-2.698-0.264c-1.535-0.277-2.654-1.124-3.208-2.633
			C31.143,179.211,30.934,178.383,30.803,177.537z"/>
		<path fill="#BEC5C9" d="M171.232,101.479c-0.573,2.543-1.525,4.973-2.246,7.475c-1.256,4.332-2.725,8.604-4.069,12.91
			c-0.983,3.158-1.896,6.343-2.871,9.51c-0.845,2.723-1.755,5.434-2.601,8.162c-1,3.215-1.887,6.453-2.953,9.646
			c-0.869,2.617-1.566,5.283-2.461,7.891c-1.115,3.281-1.936,6.657-3.035,9.938c-0.723,2.133-1.197,4.344-2.018,6.452
			c-0.47-0.377-0.484,0.146-0.574,0.336c-0.738,1.534-1.607,2.994-2.535,4.438c-0.484,0.758-1.197,1.348-2.025,1.43
			c-1.238,0.131-2.453,0.482-3.732,0.377c-0.895-0.073-1.846-0.164-2.707,0.032c-2.379,0.54-4.803,0.081-7.193,0.5
			c-1.854,0.319-3.789,0.081-5.701,0.297c-2.328,0.263-4.697,0.071-7.057,0.317c-2.491,0.266-5.006,0.074-7.521,0.279
			c-3.744,0.313-7.523,0.238-11.281,0.287c-7.484,0.099-14.979,0.369-22.467-0.188c-3.553-0.263-7.125,0.114-10.689-0.296
			c-2.383-0.276-4.803,0.02-7.215-0.276c-2.275-0.287-4.602-0.024-6.91-0.319c-1.781-0.238-3.602-0.189-5.398-0.264
			c-2.604-0.1-5.201-0.428-7.813-0.395c-2.493,0.023-4.89-0.361-6.886-2.051c-0.186-0.156-0.439-0.23-0.661-0.337
			c-1.915-5.209-3.458-10.545-5.095-15.851c-0.164-0.531-0.225-1.072-0.262-1.624c-0.164-1.501-0.805-2.88-1.124-4.339
			c-0.759-3.471-1.878-6.842-2.646-10.318c-0.918-4.15-2.014-8.262-2.985-12.398c-0.365-1.555-0.46-3.18-0.915-4.705
			c-0.705-2.362-0.931-4.795-1.316-7.201c-0.299-1.875-0.402-3.78-0.738-5.646c-0.144-0.811-0.226-1.604-0.164-2.393
			c0.32-4.108,0.824-4.576,4.098-5.74c4.035-1.438,8.256-1.986,12.46-2.617c1.878-0.283,3.782-0.406,5.651-0.689
			c2.429-0.364,4.873-0.5,7.301-0.773c2.58-0.287,5.186-0.397,7.777-0.615c3.293-0.278,6.6-0.313,9.896-0.611
			c2.092-0.19,4.201-0.053,6.309-0.276c2.584-0.271,5.205-0.06,7.818-0.31c3.24-0.308,6.513-0.082,9.781-0.278
			c5.514-0.337,11.057-0.259,16.572-0.291c15.496-0.087,30.994-0.391,46.49,0.2c3.117,0.119,6.242,0.091,9.369,0
			C163.014,101.027,167.115,101.631,171.232,101.479z"/>
	</g>
	<g id="pants">
		<g>
			<path fill="#41759C" d="M164.885,177.351c-0.547-0.211-1.135-0.337-1.723-0.505c-5.459-1.387-11.045-1.721-16.631-2.016
				c-6.426-0.336-12.852-0.252-19.32-0.127c-9.786,0.168-19.613,0.254-29.441,0.422c-2.938,0.041-5.924,0.334-8.905,0.125
				c-7.77-0.588-15.54-1.011-23.352-1.22c-8.189-0.21-16.421-0.042-24.569,0.8c-1.631,0.176-3.262,0.328-4.865,0.631
				c-0.343,0.063-0.685,0.137-1.023,0.217l-6.156,0.853l-0.705-0.021l-0.583,0.234l-1.167,0.466l-0.934,0.409l-1.195,0.291
				l-1.43,0.801l-2.916,0.949l-1.611,0.681c0.088,0.243-8.697,3.842-8.697,3.842l-0.688,0.229l-0.945,0.315l-0.305,0.104
				c-1.188,0.76-1.955,1.783-2.428,3.025c-0.08,0.042-0.078,0.043-0.004,0.013c-0.133,0.351-0.25,0.711-0.337,1.097
				c-0.647,2.871-0.66,5.733-0.364,8.679c0.496,4.892,1.705,9.589,3.158,14.241c0.524,1.673,1.111,3.346,1.874,4.922
				c2.297,4.749,4.146,9.68,6.099,14.568c1.62,4.053,3.007,8.203,4.586,12.271c0.689,1.78,1.271,3.594,1.944,5.381
				c1.099,2.918,3.073,8.458,4.056,11.236c0.336,0.945,0.556,1.572,0.588,1.666c0.191,0.563,1.91,8.411,1.851,10.055
				c-0.022,0.608-0.036,1.084-0.04,1.416c-0.006,0.34,0,0.527,0.016,0.55c0.387,0.526,0.688,0.864,0.979,1.024
				c0.5,0.274,0.971,0.028,1.794-0.688c1.093-1.012,2.183-2.103,3.527-2.773c4.915-2.563,10.038-3.36,15.499-2.268
				c3.654,0.713,7.182,1.891,10.793,2.896c3.654,1.008,7.309,1.721,11.131,1.47c3.443-0.211,6.637-1.093,9.658-2.646
				c0.631-0.336,0.925-0.715,0.925-1.429c0-1.389,0.085-2.813-0.126-4.2c-0.168-1.219-0.462-2.354-0.965-3.486
				c-1.135-2.52-3.15-4.241-5.209-5.922c-1.47-1.218-2.52-2.604-2.896-4.493c-0.463-2.521-1.01-5.124-1.43-7.687
				c-0.545-3.065-1.596-5.881-3.738-8.232c-1.848-2.1-4.031-3.779-6.383-5.25c-0.504-0.336-0.799-0.63-0.841-1.301
				c-0.209-2.815-0.588-5.672-1.427-8.4c-1.219-4.029-2.941-7.813-5.293-11.299c-0.294-0.419-0.672-0.839-0.756-1.386
				c0.294-0.168,0.504-0.042,0.756,0c4.031,1.093,8.105,2.017,12.223,2.729c5.879,1.095,11.802,1.766,17.808,1.934
				c4.157,0.085,8.273-0.083,12.391-0.337c4.578-0.251,9.114-0.629,13.649-1.346c0.42-0.083,0.883-0.251,1.345,0.085
				c-0.925,3.906-2.142,7.729-3.359,11.552c-1.723,5.208-3.864,10.248-6.342,15.12c-1.304,2.562-2.813,4.998-4.369,7.351
				c-2.017,3.066-3.819,6.174-4.41,9.826c-0.127,0.925-0.252,1.807-0.336,2.688c-0.084,0.797-0.379,1.43-0.84,2.061
				c-1.092,1.386-2.31,2.688-3.442,3.986c-0.925,1.137-1.975,2.145-2.688,3.444c-0.757,1.513-0.337,3.024,1.05,3.948
				c1.176,0.799,2.352,0.966,3.698,0.295c1.639-0.84,3.358-1.596,5.082-2.185c6.258-2.229,12.725-3.444,19.318-3.99
				c6.426-0.505,12.643,0.294,18.688,2.604c1.431,0.545,2.856,1.22,4.328,1.766c1.428,0.588,1.848,0.42,2.771-0.842
				c0.462-0.672,0.588-1.386,0.84-2.1c0.42-1.429,0.629-2.941,1.387-4.285c0.422-0.798,0.211-1.596-0.379-2.226
				c-0.293-0.377-0.588-0.714-0.924-1.007c-0.462-0.38-0.504-0.759-0.294-1.306c1.134-2.771,1.935-5.712,2.646-8.606
				c0.463-1.766,1.051-3.486,1.976-5.041c1.135-1.85,2.521-3.485,3.989-5.123c2.185-2.438,3.822-5.167,4.41-8.442
				c0.418-2.311,0.713-4.662,1.385-6.931c0.339-1.05,0.673-2.102,1.263-3.066c1.008-1.596,2.017-3.231,2.979-4.871
				c1.428-2.52,2.771-5.125,3.989-7.77c2.185-4.662,3.99-9.409,5.125-14.449c0.294-1.26,0.378-2.562,0.882-3.737
				c0-2.729,0-5.461,0-8.146C169.295,179.197,167.236,178.106,164.885,177.351z"/>
			<path fill="#41759C" d="M14.389,182.016l-0.72,0.209c-1.284,0.408-2.567,0.699-2.567,0.699l-1.05,0.525l-1.75,0.729l-0.583,0.32
				l0.004,0.33l3.332-1.227l3.334-1.4l3.615-1.564"/>
		</g>
	</g>
</g>
</svg>
