<?xml version="1.0" encoding="utf-8"?>
<!-- Generator: Adobe Illustrator 16.0.0, SVG Export Plug-In . SVG Version: 6.00 Build 0)  -->
<!DOCTYPE svg PUBLIC "-//W3C//DTD SVG 1.1//EN" "http://www.w3.org/Graphics/SVG/1.1/DTD/svg11.dtd">
<svg version="1.1" id="error" xmlns="http://www.w3.org/2000/svg" xmlns:xlink="http://www.w3.org/1999/xlink" x="0px" y="0px"
	 width="400px" height="400px" viewBox="0 0 400 400" enable-background="new 0 0 400 400" xml:space="preserve">
<g id="svg-hole">
	<g>
		<path fill="#C0C0C0" d="M324.867,330.098c2.863-2.897,4.389-5.938,4.389-9.072c0-19.946-61.748-36.115-137.918-36.115
			S53.42,301.077,53.42,321.025c0,3.133,1.524,6.174,4.389,9.07c15.366-15.557,69.323-27.046,133.529-27.046
			C255.545,303.051,309.502,314.54,324.867,330.098z"/>
		<path fill="#333333" d="M324.867,330.098c-15.365-15.558-69.322-27.047-133.529-27.047c-64.206,0-118.163,11.489-133.529,27.047
			c15.366,15.557,69.323,27.045,133.529,27.045C255.545,357.143,309.502,345.652,324.867,330.098z"/>
	</g>
</g>
<g id="svg-hand_1_">
	<g id="svg-hand">
		<path fill="#F6AF74" stroke="#F6B075" stroke-width="2" stroke-miterlimit="10" d="M230.572,679.751
			c-0.988-4.156-2.063-8.734-3.207-13.664c-0.424-1.832-0.857-3.705-1.301-5.633c-0.957,1.463-2.424,3.428-4.396,5.34
			c-3.469,3.367-8.512,6.57-15.141,6.57c-0.449,0-0.904-0.014-1.365-0.043c-5.405-0.354-11.178-1.168-17.173-2.422
			c-0.208,6.729-0.282,15.629,0.449,21.48c0.872,6.979,3.285,39.988,3.925,48.082c2.282,0.029,4.577,0.047,6.889,0.047
			c14.875,0,31.887-0.617,45.311-1.76C241.807,727.839,233.426,691.736,230.572,679.751z"/>
		<path fill="#EEA36C" d="M231.881,679.439c-0.963-4.043-2.008-8.49-3.117-13.27c-0.551-2.371-1.113-4.822-1.695-7.354l0.002-0.004
			l-0.061-0.258c-2.471-10.758-4.307-18.979-4.307-18.98l-0.203-0.902l-35.376,20.811l-0.023,0.355
			c-0.002,0.039-0.253,3.973-0.429,9.217l-0.019,0.561l0.004,0.002c-0.216,6.799-0.3,15.92,0.451,21.93
			c0.863,6.922,3.27,39.811,3.907,47.896c0.227,0.004,0.45,0.008,0.677,0.012c0.225,0.002,0.448,0.006,0.674,0.01
			c-0.64-8.096-3.053-41.104-3.925-48.082c-0.73-5.854-0.657-14.756-0.448-21.48c0.54,0.113,1.066,0.203,1.603,0.309
			c0.89,0.176,1.78,0.355,2.658,0.514c0.566,0.102,1.121,0.182,1.684,0.271c0.929,0.152,1.858,0.313,2.774,0.439
			c0.447,0.063,0.883,0.107,1.328,0.166c1.006,0.131,2.016,0.268,3.004,0.369c0.035,0.004,0.068,0.006,0.104,0.01
			c1.357,0.141,2.701,0.26,4.02,0.346c0.459,0.029,0.914,0.045,1.363,0.045l0,0c0.818,0,1.611-0.055,2.383-0.145
			c0.037-0.004,0.072-0.01,0.107-0.016c0.342-0.043,0.678-0.094,1.008-0.15c0.057-0.012,0.111-0.021,0.17-0.031
			c0.311-0.061,0.617-0.123,0.92-0.195c0.061-0.014,0.119-0.027,0.18-0.043c0.305-0.074,0.604-0.156,0.896-0.244
			c0.049-0.016,0.098-0.027,0.146-0.043c0.314-0.098,0.627-0.199,0.934-0.311c0.021-0.008,0.045-0.018,0.066-0.023
			c6.482-2.363,10.721-7.646,12.727-10.711c0.441,1.926,0.877,3.799,1.303,5.631c1.143,4.93,2.219,9.508,3.207,13.662
			c2.854,11.986,11.232,48.09,13.99,58.002c0.227-0.02,0.453-0.039,0.68-0.057c0.229-0.021,0.455-0.041,0.684-0.063
			C243.176,727.749,234.752,691.503,231.881,679.439z"/>
		<path fill="#BA5B3C" d="M198.14,412.383c-0.236-5.108-4.036-9.083-8.484-8.875l-5.034,0.232c-4.448,0.209-7.861,4.52-7.623,9.628
			l0.486,10.153l21.118-1.482L198.14,412.383z"/>
		<path fill="#FFFFFF" d="M221.121,478.197c0.416-0.142,0.824-0.298,1.248-0.427c1.619-0.492,3.256-0.912,4.898-1.306
			c-2.008-0.417-4.002-0.886-5.961-1.371C221.568,476.14,221.521,477.232,221.121,478.197z"/>
		<path fill="#F6AF74" d="M228.314,603.441c-2.018-6.27-6.721-18.145-11.199-24.639c-4.48-6.495-6.719-25.086-10.545-29.344
			c-0.625-0.694-1.279-1.16-1.934-1.458l1.834,38.282l4.816-0.143c4.451-0.131,8.164,3.287,8.293,7.633l0.084,2.842
			c0.129,4.348-3.375,7.979-7.826,8.109l-4.479,0.131l0.043,0.875l9.457-0.279c4.904-0.145,8.998,3.594,9.139,8.352l0.092,3.107
			c0.143,4.758-3.723,8.73-8.631,8.875l-9.084,0.271l0.053,1.092l4.416-0.131c4.262-0.127,7.816,3.297,7.943,7.645l0.084,2.84
			c0.129,4.35-3.219,7.975-7.479,8.102l-4.074,0.121l0.041,0.875l1.813-0.057c3.77-0.109,6.896,2.328,6.988,5.447l0.061,2.039
			c0.094,3.119-2.887,5.74-6.652,5.852L210,659.927l-21.161,0.625l-11.761,0.35c-0.796,0.021-1.562-0.074-2.277-0.26
			c0,0,5.94,1.797,14.196,3.197c3.627,0.613,7.698,1.152,11.914,1.43c3.457,0.227,6.549-0.447,9.266-1.662
			c8.131-3.639,12.881-12.129,13.906-15.838c1.367-4.951-0.695-9.387-0.695-9.387s3.137-11.646,4.928-17.246
			C230.107,615.534,230.33,609.712,228.314,603.441z"/>
		<path fill="#EEA36C" d="M228.955,603.234c-2.045-6.361-6.738-18.219-11.287-24.813c-2.186-3.17-3.844-9.386-5.447-15.396
			c-1.611-6.055-3.141-11.775-5.148-14.012c-0.742-0.826-1.57-1.408-2.469-1.75l0.035,0.74l0.037,0.776
			c0.494,0.273,0.961,0.646,1.396,1.13c1.793,1.997,3.348,7.825,4.852,13.46c1.633,6.121,3.32,12.453,5.641,15.812
			c4.436,6.43,9.17,18.418,11.111,24.463c1.865,5.803,1.865,11.457,0,17.285c-1.775,5.551-4.902,17.16-4.938,17.275l-0.063,0.236
			l0.104,0.221c0.02,0.043,1.938,4.285,0.658,8.926c-1.303,4.701-9.115,17.881-22.479,17.008c-9.427-0.615-18.221-2.576-22.755-3.73
			l-1.122,0.033c-0.796,0.023-1.561-0.072-2.277-0.26c-0.22-0.059-0.434-0.127-0.644-0.201l-0.146,0.664l0.596,0.18
			c0.123,0.039,12.531,3.758,26.26,4.656c0.463,0.029,0.914,0.045,1.363,0.045c13.363,0,21.17-13.223,22.5-18.037
			c1.254-4.539-0.219-8.607-0.635-9.615c0.445-1.648,3.229-11.896,4.857-16.99C230.908,615.234,230.908,609.314,228.955,603.234z"/>
		<polygon fill="#BA5B3C" points="204.676,548.78 204.639,548.003 204.602,547.263 203.891,532.399 182.769,533.855 
			185.311,586.909 190.145,586.769 190.834,586.745 191.521,586.728 206.473,586.284 		"/>
		<path fill="#F6AF74" d="M182.157,626.831l0.691-0.02l17.121-0.506l8.407-0.248l9.084-0.27c4.908-0.145,8.771-4.117,8.631-8.875
			l-0.092-3.107c-0.141-4.758-4.232-8.496-9.139-8.354l-29.558,0.875l-0.69,0.021l-0.37,0.012l-0.322,0.01l-9.469,0.279
			l-0.025-0.875l9.688-0.285l0.089-0.004l0.604-0.018l0.691-0.021l19.865-0.588l4.477-0.133c4.451-0.131,7.957-3.762,7.826-8.107
			l-0.084-2.842c-0.127-4.348-3.84-7.764-8.291-7.633l-4.818,0.143l-14.949,0.441l-0.688,0.021l-0.688,0.02l-4.833,0.143
			l-14.771,0.438c-4.452,0.131-7.956,3.764-7.827,8.109l0.084,2.842c0.119,4.029,3.323,7.258,7.339,7.602l0.033,1.105
			c-4.032,0.918-6.982,4.48-6.859,8.646l0.093,3.111c0.122,4.166,3.316,8.863,7.396,9.541l0.019,0.604
			c-2.696,1.291-4.527,4.125-4.434,7.357l0.084,2.842c0.129,4.35,3.686,7.771,7.943,7.646l0.965-0.029l0.029,0.979
			c-3.142,0.59-5.459,2.951-5.377,5.709l0.06,2.039c0.067,2.258,1.729,4.15,4.068,4.984c0.209,0.074,0.423,0.146,0.644,0.203
			c0.717,0.188,1.48,0.283,2.277,0.26l1.121-0.031l33.369-0.986c3.768-0.109,6.748-2.73,6.654-5.854l-0.061-2.039
			c-0.094-3.117-3.223-5.559-6.99-5.445l-29.222,0.861l-0.026-0.875l31.471-0.93c4.26-0.125,7.605-3.752,7.479-8.1l-0.084-2.842
			c-0.127-4.346-3.684-7.768-7.943-7.643l-30.235,0.893l-0.692,0.021l-0.692,0.02l-4.14,0.123l-0.032-1.092l4.411-0.131
			L182.157,626.831z"/>
		<path fill="#EEA36C" d="M176.831,661.575c-4.056,0-7.312-2.682-7.413-6.104l-0.06-2.039c-0.078-2.625,1.768-4.986,4.54-6.008
			c-4.433-0.152-7.966-3.74-8.101-8.295l-0.084-2.844c-0.091-3.092,1.461-5.963,4.016-7.545c-4.087-1.262-6.88-5.963-6.997-9.957
			l-0.094-3.109c-0.124-4.213,2.718-7.986,6.827-9.182c-4.104-0.637-7.218-4.053-7.339-8.178l-0.084-2.842
			c-0.14-4.711,3.664-8.658,8.479-8.801l40.749-1.203c4.875-0.15,8.844,3.549,8.982,8.285l0.084,2.842
			c0.066,2.283-0.779,4.457-2.385,6.121c-0.92,0.953-2.027,1.672-3.242,2.125l2.129-0.064c5.336-0.146,9.682,3.857,9.832,9.004
			l0.092,3.109c0.072,2.48-0.854,4.848-2.611,6.654c-1.752,1.803-4.121,2.836-6.67,2.91l-2.607,0.076
			c3.699,0.813,6.469,4.082,6.588,8.105l0.084,2.842c0.068,2.279-0.74,4.447-2.271,6.107c-1.408,1.523-3.275,2.451-5.307,2.646
			c2.795,0.85,4.789,3.064,4.867,5.73l0.063,2.037c0.051,1.715-0.699,3.34-2.109,4.578c-1.373,1.209-3.221,1.906-5.199,1.965
			l-34.489,1.021C177.009,661.573,176.921,661.575,176.831,661.575z M176.03,646.032l0.064,2.227l-0.563,0.104
			c-2.869,0.539-4.899,2.654-4.83,5.029l0.061,2.039c0.081,2.754,2.873,4.918,6.297,4.797l34.49-1.021
			c1.666-0.049,3.211-0.629,4.354-1.631c1.104-0.969,1.689-2.223,1.65-3.527l-0.061-2.039c-0.078-2.691-2.746-4.799-6.07-4.799
			l-0.227,0.004l-29.896,0.883l-0.064-2.219l32.14-0.949c1.877-0.057,3.623-0.854,4.91-2.252c1.293-1.398,1.975-3.23,1.916-5.156
			l-0.084-2.842c-0.115-3.922-3.209-6.994-7.043-6.994l-0.207,0.004l-36.435,1.076l-0.071-2.438l41.08-1.215
			c2.197-0.063,4.238-0.953,5.748-2.504c1.5-1.545,2.293-3.563,2.229-5.68l-0.092-3.109c-0.129-4.4-3.846-7.832-8.447-7.697
			l-41.08,1.215l-0.064-2.219l36.083-1.066c1.977-0.059,3.813-0.863,5.168-2.27c1.352-1.398,2.063-3.229,2.008-5.146l-0.084-2.842
			c-0.117-3.99-3.465-7.125-7.604-6.98l-40.747,1.203c-4.073,0.121-7.293,3.447-7.176,7.418l0.084,2.842
			c0.107,3.646,2.999,6.633,6.727,6.951l0.597,0.051l0.067,2.258l-0.539,0.123c-3.783,0.859-6.448,4.217-6.338,7.977l0.093,3.107
			c0.107,3.689,2.941,8.252,6.835,8.898l0.545,0.09l0.046,1.596l-0.394,0.188c-2.545,1.217-4.136,3.859-4.052,6.73l0.084,2.844
			c0.116,3.922,3.211,6.994,7.046,6.994L176.03,646.032z"/>
		<polygon display="none" fill="#BA5B3C" points="201.053,243.781 179.893,244.406 180.782,262.983 201.943,262.358 		"/>
		<path fill="none" d="M211.289,586.144c4.451-0.131,8.164,3.287,8.293,7.633l0.084,2.842c0.129,4.348-3.375,7.979-7.826,8.109
			l-4.479,0.131l-19.865,0.588l-0.191,0.881l29.558-0.873c4.904-0.145,8.998,3.594,9.139,8.352l0.092,3.107
			c0.143,4.76-3.723,8.73-8.631,8.875l-9.084,0.27l-8.407,0.248l-17.121,0.508l-0.238,1.1l30.236-0.893
			c4.26-0.127,7.814,3.297,7.943,7.643l0.084,2.844c0.129,4.348-3.221,7.973-7.479,8.1l-31.471,0.93l0.025,0.875l29.223-0.861
			c3.77-0.111,6.896,2.328,6.99,5.445l0.059,2.039c0.096,3.119-2.887,5.74-6.652,5.852l-33.369,0.986
			c4.535,1.152,13.328,3.113,22.755,3.73c13.363,0.873,21.18-12.305,22.479-17.01c1.279-4.641-0.639-8.881-0.658-8.924l-0.104-0.223
			l0.063-0.234c0.031-0.117,3.16-11.729,4.938-17.277c1.865-5.828,1.865-11.482,0-17.283c-1.941-6.047-6.678-18.033-11.111-24.463
			c-2.316-3.361-4.008-9.69-5.641-15.813c-1.502-5.637-3.059-11.465-4.854-13.46c-0.436-0.482-0.9-0.855-1.396-1.13l1.797,37.504
			L211.289,586.144z"/>
		<polygon fill="#EEA36C" points="186.613,606.349 187.306,606.325 187.497,605.445 186.806,605.468 186.202,605.484 
			186.112,605.486 185.921,606.366 186.244,606.357 		"/>
		<polygon fill="none" points="176.427,605.773 176.453,606.648 185.921,606.366 186.112,605.486 		"/>
		<polygon fill="#EEA36C" points="182.157,626.831 181.465,626.853 181.226,627.952 181.918,627.933 182.609,627.911 
			182.849,626.812 		"/>
		<path fill="#BA5B3C" d="M210.398,668.204l-0.031-0.65h0.008l-0.332-6.947l-21.16,0.617l0.125,2.617
			c-0.003-0.002-0.006-0.002-0.009-0.002l0.257,5.352c0.237,5.111,4.037,9.084,8.484,8.877l5.036-0.234
			C207.223,677.622,210.637,673.314,210.398,668.204z"/>
		
			<rect x="75.094" y="422.671" transform="matrix(0.9962 -0.0872 0.0872 0.9962 -40.9161 18.7084)" fill="#FFFFFF" width="237.405" height="110.533"/>
	</g>
</g>
</svg>
