<?xml version="1.0" standalone="no"?>
 <!DOCTYPE svg PUBLIC "-//W3C//DTD SVG 1.1//EN" 
 "http://www.w3.org/Graphics/SVG/1.1/DTD/svg11.dtd">
<!--
        Sallyx.org Terminal image v. 1.0
        http://www.sallyx.org/
        Licence: GNU 3
-->
<svg xmlns="http://www.w3.org/2000/svg" version="1.1" 
     xmlns:xlink="http://www.w3.org/1999/xlink" viewBox="0 0 670 470">
    <defs>
        <linearGradient id="listaGrad" x1="0%" y1="0%" x2="0%" y2="100%">
            <stop offset="0%" style="stop-color:#e1ecf9;stop-opacity:1" />
            <stop offset="50%" style="stop-color:#7fa6d5;stop-opacity:1" />
            <stop offset="100%" style="stop-color:#96b7e0;stop-opacity:1" />
        </linearGradient>
        <linearGradient id="panel" x1="0%" y1="0%" x2="0%" y2="100%">
            <stop offset="0%" style="stop-color:#ecebea;stop-opacity:1" />
            <stop offset="100%" style="stop-color:#e4e3e2;stop-opacity:1" />
        </linearGradient>
        <text id="headerText">petr@sally: ~</text>
    </defs>
    <rect width="667" height="464" rx="6" ry="6"
          style="fill:rgb(255,255,255);stroke-width:1;stroke:#2E3741"/>
    <rect width="662" height="442" rx="6" ry="6" x="3" y="20"
          stroke="#edeceb" fill-opacity="0" stroke-width="3" />
   
    <path d="M0,8
            a8,8 0 0,1 8,-8
            l651,0 
            a8,8 0 0,1 8,8
            l0,14
            l-667,0
            z"
          stroke="#4e76a8"
          fill="url(#listaGrad)"
    />
    <text x="271" fill="black" y="17" font-weight="bolder" 
          font-size="15">petr@sally: ~</text>
    <text x="270" fill="white" y="16" font-weight="bolder" 
          font-size="15">petr@sally: ~</text>
          
    <g transform="translate(7,5)">
    <rect stroke="#2e3436" width="15" height="12" rx="1" ry="1" fill="#787a76" />
    <rect stroke="#2e3436" x="2" y="2" width="11" height="7" fill="#464646" />
    <line x1="2" y1="10" x2="5" y2="10" stroke-width="1" stroke="#8ae234" />
    <line x1="2" y1="13" x2="12" y2="13" stroke-width="2" stroke="#2e3436" />
    <path stroke="white" d="M3,3 l2,2 l-2,2 M5,7 l3,0" />
    </g>
   
    <g transform="translate(585,3)">
        <!-- tlacitka na liste -->
        <g>
            <rect stroke="#ceddf0" stroke-width="1" fill-opacity="0" width="20" height="13" x="1" y="1" rx="1" ry="1" />
            <rect stroke="#58697e" stroke-width="1" fill-opacity="0" width="22" height="15" x="0"  rx="3" ry="3" />
            <rect width="8" height="2" stroke-width="1" fill="#FFFFFF" stroke="#58697E" x="7" y="9" />
        </g>
        <g transform="translate(26,0)">
            <rect stroke="#ceddf0" stroke-width="1" fill-opacity="0" width="20" height="13" x="1" y="1" rx="1" ry="1" />
            <rect stroke="#58697e" stroke-width="1" fill-opacity="0" width="22" height="15" x="0" rx="3" ry="3" />
            <path d="M7,4 l9,0 l0,8 l-9,0 z  M 9,7 l5,0 l0,3 l-5,0 z"
                stroke="#58697E" stroke-width="1" fill="#FFFFFF" fill-rule="evenodd" />
        </g>
        <g transform="translate(52,0)">
            <rect stroke="#ceddf0" stroke-width="1" fill-opacity="0" width="20" height="13" x="1" y="1" rx="1" ry="1" />
            <rect stroke="#58697e" stroke-width="1" fill-opacity="0" width="22" height="15" x="0" rx="3" ry="3" />
            <path d="M8,5 l6,5 M8,10 l6,-5" stroke-linecap="round" stroke-width="4" stroke="#58697e" />
            <path d="M8,5 l6,5 M8,10 l6,-5" stroke-linecap="round" stroke-width="2" stroke="#FFFFFF" />
        </g>
    </g>
    <g transform="translate(4,23)">
        <!-- panel -->
        <rect width="660" height="24" fill="url(#panel)" />
        <text x="10" y="16" font-size="12" font-family="Arial"><tspan text-decoration="underline">F</tspan>ile</text>
        <text x="40" y="16" font-size="12" font-family="Arial"><tspan text-decoration="underline">E</tspan>dit</text>
        <text x="73" y="16" font-size="12" font-family="Arial"><tspan text-decoration="underline">V</tspan>iew</text>
        <text x="110" y="16" font-size="12" font-family="Arial"><tspan text-decoration="underline">T</tspan>erminal</text>
        <text x="170" y="16" font-size="12" font-family="Arial"><tspan text-decoration="underline">T</tspan>abs</text>
        <text x="210" y="16" font-size="12" font-family="Arial"><tspan text-decoration="underline">H</tspan>elp</text>
        <line stroke="#c4c2bf" width="1" x1="0" y1="23" x2="660" y2="23" />
    </g>
    
    <g transform="translate(650,47)">
        <!-- posuvnik -->
        <defs>
         <linearGradient id="posuvnik" x1="0%" y1="0%" x2="100%" y2="0%">
            <stop offset="0%" style="stop-color:#a2c1e7;stop-opacity:1" />
            <stop offset="100%" style="stop-color:#96b6df;stop-opacity:1" />
         </linearGradient>
         <linearGradient id="top" x1="0%" y1="0%" x2="100%" y2="0%">
            <stop offset="0%" style="stop-color:#FFFFFF;stop-opacity:1" />
            <stop offset="50%" style="stop-color:#ebebeb;stop-opacity:1" />
            <stop offset="100%" style="stop-color:#e2e0df;stop-opacity:1" />
         </linearGradient>
         <linearGradient id="bottom" x1="0%" y1="0%" x2="100%" y2="0%">
            <stop offset="0%" style="stop-color:#FFFFFF;stop-opacity:1" />
            <stop offset="50%" style="stop-color:#ebeae9;stop-opacity:1" />
            <stop offset="100%" style="stop-color:#e2e0df;stop-opacity:1" />
         </linearGradient>
        </defs>
        <rect width="13" height="414" stroke="#a19d9a" stroke-width="1" fill="#d6d4d2" rx="3" ry="3" />
        <g transform="translate(0,350)">
            <rect width="13" height="50" stroke="#5e7ea5" fill="url(#posuvnik)" />
            <path d="M4,21 l5,0" stroke="#48668b" />
            <path d="M4,25 l5,0" stroke="#48668b" />
            <path d="M4,29 l5,0" stroke="#48668b" />
        </g>
        <g>
            <path stroke="#a19d9a" fill="url(#top)" d="M0,3 l3,-3 l7,0 l3,3 l0,10 l-13,0 z" />
            <path stroke="#232323" d="M5,8 l2,-2 l2,2" fill-opacity="0"/>
        </g>
        <g transform="translate(0,401)">
            <path stroke="#a19d9a" fill="url(#bottom)" d="M0,0 l13,0 l0,10 l-3,3 l-7,0 l-3,-3 z" />
            <path stroke="#a9a5a2" d="M5,6 l2,2 l2,-2" fill-opacity="0"/>
        </g>
    </g>
</svg>