<?xml version="1.0" encoding="utf-8"?>
<!-- Generator: Adobe Illustrator 16.0.0, SVG Export Plug-In . SVG Version: 6.00 Build 0)  -->
<!DOCTYPE svg PUBLIC "-//W3C//DTD SVG 1.1//EN" "http://www.w3.org/Graphics/SVG/1.1/DTD/svg11.dtd">
<svg version="1.1" id="Layer_1" xmlns="http://www.w3.org/2000/svg" xmlns:xlink="http://www.w3.org/1999/xlink" x="0px" y="0px"
	 width="106.248px" height="110.75px" viewBox="85.876 -15.375 106.248 110.75"
	 enable-background="new 85.876 -15.375 106.248 110.75" xml:space="preserve">
<g>
	<ellipse fill="#263740" cx="139" cy="40" rx="53.124" ry="55.375"/>
	<path fill="#E6E6E6" d="M132.5,54.874c0,2.071-1.678,3.75-3.75,3.75l0,0c-2.07,0-3.75-1.679-3.75-3.75v-29.75
		c0-2.071,1.68-3.75,3.75-3.75l0,0c2.072,0,3.75,1.679,3.75,3.75V54.874z	">
<animateTransform  type="translate" fill="remove" begin=".1" restart="always" dur="1s" values="0,6;0,-6;0,6" repeatDur="5s" attributeName="transform" calcMode="linear" additive="replace" accumulate="none" attributeType="XML">
			</animateTransform>
	</path>
	<path fill="#E6E6E6" d="M121.5,54.874c0,2.071-1.68,3.75-3.75,3.75l0,0c-2.072,0-3.75-1.679-3.75-3.75V25.123
		c0-2.071,1.678-3.75,3.75-3.75l0,0c2.07,0,3.75,1.679,3.75,3.75V54.874z	">
<animateTransform  type="translate" fill="remove" restart="always" dur="1s" values="0,6;0,-6;0,6" repeatDur="5s" attributeName="transform" calcMode="linear" additive="replace" accumulate="none" attributeType="XML">
			</animateTransform>
	</path>
	<path fill="#E6E6E6" d="M142.75,54.875c0,2.072-1.679,3.75-3.75,3.75l0,0c-2.071,0-3.75-1.678-3.75-3.75V25.126
		c0-2.071,1.679-3.75,3.75-3.75l0,0c2.071,0,3.75,1.679,3.75,3.75V54.875z	">
<animateTransform  type="translate" fill="remove" begin=".2" restart="always" dur="1s" values="0,6;0,-6;0,6" repeatDur="5s" attributeName="transform" calcMode="linear" additive="replace" accumulate="none" attributeType="XML">
			</animateTransform>
	</path>
	<path fill="#E6E6E6" d="M152.746,54.874c0,2.071-1.679,3.75-3.75,3.75l0,0c-2.071,0-3.75-1.679-3.75-3.75v-29.75
		c0-2.071,1.679-3.75,3.75-3.75l0,0c2.071,0,3.75,1.679,3.75,3.75V54.874z	">
<animateTransform  type="translate" fill="remove" begin=".3" restart="always" dur="1s" values="0,6;0,-6;0,6" repeatDur="5s" attributeName="transform" calcMode="linear" additive="replace" accumulate="none" attributeType="XML">
			</animateTransform>
	</path>
	<path fill="#E6E6E6" d="M163.25,54.873c0,2.07-1.678,3.75-3.75,3.75l0,0c-2.07,0-3.75-1.68-3.75-3.75v-29.75
		c0-2.071,1.68-3.75,3.75-3.75l0,0c2.072,0,3.75,1.679,3.75,3.75V54.873z	">
<animateTransform  type="translate" fill="remove" begin=".4" restart="always" dur="1s" values="0,6;0,-6;0,6" repeatDur="5s" attributeName="transform" calcMode="linear" additive="replace" accumulate="none" attributeType="XML">
			</animateTransform>
	</path>
</g>
</svg>
