<?xml version="1.0" encoding="utf-8"?>
<!DOCTYPE svg PUBLIC "-//W3C//DTD SVG 1.1//EN" "http://www.w3.org/Graphics/SVG/1.1/DTD/svg11.dtd">
<svg version="1.1" id="Layer_1" xmlns="http://www.w3.org/2000/svg" xmlns:xlink="http://www.w3.org/1999/xlink" x="0px" y="0px"
	 width="100px" height="100px" viewBox="0 0 100 100" enable-background="new 0 0 100 100" xml:space="preserve">
<g>

<ellipse fill="#009FE3" cx="50" cy="50" rx="35.416" ry="36.917">
		<animateTransform
	/>

		</ellipse>
<path fill="#FFFFFF" d="M45.667,59.916c0,1.381-1.119,2.5-2.5,2.5l0,0c-1.381,0-2.5-1.119-2.5-2.5V40.083c0-1.381,1.119-2.5,2.5-2.5
	l0,0c1.381,0,2.5,1.119,2.5,2.5V59.916z">

		<animateTransform attributeName="transform"
	attributeType="XML" type="translate" dur="1s" values="0,6;0,-6;0,6" begin=".1" repeatDur="5s"
	/>

</path>
<path fill="#FFFFFF" d="M38.333,59.916c0,1.381-1.119,2.5-2.5,2.5l0,0c-1.381,0-2.5-1.119-2.5-2.5V40.082c0-1.381,1.119-2.5,2.5-2.5
	l0,0c1.381,0,2.5,1.119,2.5,2.5V59.916z">

		<animateTransform attributeName="transform"
	attributeType="XML" type="translate" dur="1s" values="0,6;0,-6;0,6" repeatDur="5s"
	/>

</path>
<path  fill="#FFFFFF" d="M52.5,59.917c0,1.381-1.119,2.5-2.5,2.5l0,0c-1.381,0-2.5-1.119-2.5-2.5V40.084c0-1.381,1.119-2.5,2.5-2.5
	l0,0c1.381,0,2.5,1.119,2.5,2.5V59.917z">

		<animateTransform attributeName="transform"
	attributeType="XML" type="translate" dur="1s" values="0,6;0,-6;0,6" begin=".2" repeatDur="5s"
	/>

</path>
<path fill="#FFFFFF" d="M59.164,59.916c0,1.381-1.119,2.5-2.5,2.5l0,0c-1.381,0-2.5-1.119-2.5-2.5V40.083c0-1.381,1.119-2.5,2.5-2.5
	l0,0c1.381,0,2.5,1.119,2.5,2.5V59.916z">

		<animateTransform attributeName="transform"
	attributeType="XML" type="translate" dur="1s" values="0,6;0,-6;0,6" begin=".3" repeatDur="5s"
	/>

</path>
<path  fill="#FFFFFF" d="M66.167,59.915c0,1.381-1.119,2.5-2.5,2.5l0,0c-1.381,0-2.5-1.119-2.5-2.5V40.082c0-1.381,1.119-2.5,2.5-2.5
	l0,0c1.381,0,2.5,1.119,2.5,2.5V59.915z">

		<animateTransform  attributeName="transform"
	attributeType="XML" type="translate" dur="1s" values="0,6;0,-6;0,6" begin=".4" repeatDur="5s"
	/>

</path>
</g>
</svg>
