<?xml version="1.0" encoding="utf-8"?>
<!-- Generator: Adobe Illustrator 16.0.0, SVG Export Plug-In . SVG Version: 6.00 Build 0)  -->
<!DOCTYPE svg PUBLIC "-//W3C//DTD SVG 1.1//EN" "http://www.w3.org/Graphics/SVG/1.1/DTD/svg11.dtd">
<svg version="1.1" id="Layer_1" xmlns="http://www.w3.org/2000/svg" xmlns:xlink="http://www.w3.org/1999/xlink" x="0px" y="0px"
	 width="833.333px" height="483.958px" viewBox="40.333 41.042 833.333 483.958"
	 enable-background="new 40.333 41.042 833.333 483.958" xml:space="preserve">
<g>
	<path fill="#3D3D3D" d="M48.666,41.042h400c4.604,0,8.334,3.73,8.334,8.334v225c0,4.604-3.73,8.334-8.334,8.334h-400
		c-4.603,0-8.333-3.73-8.333-8.334v-225C40.333,44.773,44.063,41.042,48.666,41.042z"/>
	<path fill="#494C5A" d="M65.333,61.876H432c2.302,0,4.166,1.976,4.166,4.416v189.917c0,2.438-1.864,4.416-4.166,4.416H65.333
		c-2.301,0-4.167-1.979-4.167-4.416V66.292C61.166,63.852,63.032,61.876,65.333,61.876z"/>
</g>
<g>
	<path fill="#3D3D3D" d="M465.332,41.042h400c4.604,0,8.334,3.73,8.334,8.334v225c0,4.604-3.73,8.334-8.334,8.334h-400
		c-4.603,0-8.333-3.73-8.333-8.334v-225C456.999,44.773,460.729,41.042,465.332,41.042z"/>
	<path fill="#494C5A" d="M481.999,61.251h366.667c2.302,0,4.166,1.976,4.166,4.416v189.917c0,2.438-1.864,4.417-4.166,4.417H481.999
		c-2.301,0-4.167-1.979-4.167-4.417V65.667C477.832,63.227,479.698,61.251,481.999,61.251z"/>
</g>
<g>
	<path fill="#3D3D3D" d="M48.666,283.333h400c4.604,0,8.334,3.73,8.334,8.334v225c0,4.603-3.73,8.333-8.334,8.333h-400
		c-4.603,0-8.333-3.73-8.333-8.333v-225C40.333,287.065,44.064,283.333,48.666,283.333z"/>
	<path fill="#494C5A" d="M65.333,304.167H432c2.303,0,4.166,1.976,4.166,4.416V498.5c0,2.438-1.863,4.417-4.166,4.417H65.333
		c-2.301,0-4.167-1.979-4.167-4.417V308.583C61.166,306.143,63.032,304.167,65.333,304.167z"/>
</g>
<g>
	<path fill="#3D3D3D" d="M465.333,283.333h400c4.604,0,8.334,3.73,8.334,8.334v225c0,4.603-3.73,8.333-8.334,8.333h-400
		c-4.603,0-8.333-3.73-8.333-8.333v-225C457,287.065,460.73,283.333,465.333,283.333z"/>
	<path fill="#494C5A" d="M482,303.542h366.667c2.302,0,4.166,1.976,4.166,4.416v189.917c0,2.438-1.864,4.417-4.166,4.417H482
		c-2.301,0-4.167-1.979-4.167-4.417V307.958C477.833,305.518,479.699,303.542,482,303.542z"/>
</g>
</svg>
