<?xml version="1.0" encoding="utf-8"?>
<!-- Generator: Adobe Illustrator 16.0.0, SVG Export Plug-In . SVG Version: 6.00 Build 0)  -->
<!DOCTYPE svg PUBLIC "-//W3C//DTD SVG 1.1//EN" "http://www.w3.org/Graphics/SVG/1.1/DTD/svg11.dtd">
<svg version="1.1" id="Layer_1" xmlns="http://www.w3.org/2000/svg" xmlns:xlink="http://www.w3.org/1999/xlink" x="0px" y="0px"
	 width="784px" height="464px" viewBox="13 181 784 464" enable-background="new 13 181 784 464" xml:space="preserve">
<path fill="#3E4557" d="M527.834,518.808c5.808-0.441,4.163,9.992,3.121,12.797c-1.677,4.515-6.026,7.865-11.037,7.892
	l-132.728,0.685c-6.564,0.033-11.914-5.446-11.949-12.239c-0.015-2.64-1.021-5.438,1.421-7.336c1.656-1.287,4.236-1.686,6.282-1.909
	"/>
<g>
	<g>
		<g>
			<path fill="#E0EDF4" d="M125.334,421.713c0,1.54,1.249,2.788,2.789,2.788h651.424c1.54,0,2.788-1.248,2.788-2.788v-3.928
				c0-1.54-1.248-2.788-2.788-2.788H128.122c-1.54,0-2.789,1.248-2.789,2.788V421.713z"/>
		</g>
	</g>
	<rect x="125.334" y="419.749" fill="#E0EDF4" width="657" height="4.752"/>
</g>
<path fill="none" enable-background="new    " d="z"/>
<g>
	<g>
		<g>
			<path fill="#BBD0DE" d="M125.334,431.217c0,1.54,1.248,2.788,2.788,2.788h651.423c1.541,0,2.789-1.248,2.789-2.788v-3.928
				c0-1.54-1.248-2.788-2.789-2.788H128.122c-1.54,0-2.788,1.248-2.788,2.788V431.217z"/>
		</g>
	</g>
	<rect x="125.334" y="424.501" fill="#BBD0DE" width="657" height="4.752"/>
</g>
<g>
	<g>
		<rect x="149.75" y="434.005" fill="#E5EDF9" width="131" height="187.495"/>
		<g>
			<rect x="158.5" y="443.5" fill="#FFFFFF" width="111.5" height="50"/>
		</g>
		<g>
			<rect x="158.5" y="562.5" fill="#FFFFFF" width="111.5" height="50"/>
		</g>
		<g>
			<rect x="158.5" y="502.752" fill="#FFFFFF" width="111.5" height="50"/>
		</g>
	</g>
	<path fill="#BBCCDD" d="M244.75,443.5v2.313c0,5.07-5.373,9.184-12,9.184h-37c-6.627,0-12-4.113-12-9.184V443.5"/>
	<path fill="#BBCCDD" d="M244.75,502.752v2.313c0,5.07-5.373,9.184-12,9.184h-37c-6.627,0-12-4.113-12-9.184v-2.313"/>
	<path fill="#BBCCDD" d="M244.75,562.5v2.313c0,5.07-5.373,9.184-12,9.184h-37c-6.627,0-12-4.113-12-9.184V562.5"/>
</g>
<g>
	<g>
		<rect x="625.75" y="434.005" fill="#E5EDF9" width="131" height="187.495"/>
		<g>
			<rect x="634.5" y="443.5" fill="#FFFFFF" width="111.5" height="50"/>
		</g>
		<g>
			<rect x="634.5" y="562.5" fill="#FFFFFF" width="111.5" height="50"/>
		</g>
		<g>
			<rect x="634.5" y="502.752" fill="#FFFFFF" width="111.5" height="50"/>
		</g>
	</g>
	<path fill="#BBCCDD" d="M720.75,443.5v2.313c0,5.07-5.373,9.184-12,9.184h-37c-6.627,0-12-4.113-12-9.184V443.5"/>
	<path fill="#BBCCDD" d="M720.75,502.752v2.313c0,5.07-5.373,9.184-12,9.184h-37c-6.627,0-12-4.113-12-9.184v-2.313"/>
	<path fill="#BBCCDD" d="M720.75,562.5v2.313c0,5.07-5.373,9.184-12,9.184h-37c-6.627,0-12-4.113-12-9.184V562.5"/>
</g>
<g>
	<g>
		<g>
			<path fill="#A0DE21" d="M54.106,556.595c-33.626-15.8-30.206-47.764-29.323-50.741c0.555-1.871,11.539,6.098,29.322,15.769"/>
			<path fill="#A0DE21" d="M24.547,505.669c1.873-1.359,14.881,6.949,29.559,16.445"/>
		</g>
	</g>
</g>
<g>
	<g>
		<g>
			<path fill="#A0DE21" d="M60.987,557.059c37.238-14.992,33.565-45.178,32.599-47.99c-0.606-1.766-12.779,5.784-32.478,14.955"/>
			<path fill="#A0DE21" d="M93.847,508.894c-2.066-1.28-16.478,6.596-32.743,15.594"/>
		</g>
	</g>
</g>
<g>
	<path fill="#C75F2E" d="M40.226,619.733C38.184,611.877,30.03,580.5,30.03,580.5h56.318L77.723,619c0,1.382-7.942,2.5-17.758,2.5
		c-11.016,0-19.93-1.118-19.93-2.5"/>
	<g>
		<path fill="#884526" d="M27.098,580.94c0,0.581,0.471,1.053,1.053,1.053h60.895c0.582,0,1.053-0.472,1.053-1.053v-11.47
			c0-0.581-0.471-1.053-1.053-1.053H28.151c-0.582,0-1.053,0.472-1.053,1.053V580.94z"/>
	</g>
	<rect x="54.106" y="502.752" fill="#7EAF31" width="7.493" height="65.496"/>
	<g>
		
			<ellipse transform="matrix(0.8304 0.5571 -0.5571 0.8304 282.4379 42.5823)" fill="#ECBC8E" cx="71.265" cy="485.281" rx="12.667" ry="24.333"/>
		
			<ellipse transform="matrix(-0.814 0.5809 -0.5809 -0.814 364.6787 851.9318)" fill="#ECBC8E" cx="45.932" cy="484.357" rx="12.667" ry="24.333"/>
		<ellipse fill="#FFEBD7" cx="58.598" cy="482.358" rx="12.667" ry="24.333"/>
	</g>
</g>
<g>
	<polyline fill="#EAEAEA" points="499.371,404.684 480.487,370.381 432.52,370.381 407.412,409.917 	"/>
	<path d="M314.5,342.594v-143.5c0-7.416,6.087-13.427,13.597-13.427h256.076c7.509,0,13.597,6.011,13.597,13.427v142.662"/>
	<path fill="#FFFFFF" stroke="#FFFFFF" stroke-width="1.126" d="M597.77,341.756v20.309c0,7.477-6.088,13.539-13.597,13.539H328.096
		c-7.509,0-13.597-6.063-13.597-13.539v-20.309"/>
	<rect x="328.759" y="201.192" fill="#535763" width="255.51" height="125.878"/>
</g>
<g>
	<path fill="#3E4557" d="M375.084,475.153c0,20.435,16.565,37,37,37h83.5c20.435,0,37-16.565,37-37v-40.312
		c0-20.435-16.565-37-37-37h-83.5c-20.435,0-37,16.565-37,37V475.153z"/>
</g>
<rect x="445.5" y="499" fill="#3E4557" width="16" height="78.5"/>
<rect x="450.5" y="562.5" fill="#3E4557" width="5" height="25"/>
<ellipse fill="#3E4557" cx="453" cy="588.75" rx="9.667" ry="10.25"/>
<rect x="529.084" y="581.993" fill="#3E4557" width="5" height="25"/>
<rect x="373.584" y="581.993" fill="#3E4557" width="5" height="25"/>
<path fill="#3E4557" d="M457.095,552.853c1.841,4.485,1.091,9.048-1.685,10.187l-78.363,32.189c-2.773,1.14-6.515-1.575-8.357-6.063
	l0,0c-1.843-4.483-1.09-9.044,1.683-10.184l78.365-32.189C451.512,545.653,455.252,548.368,457.095,552.853L457.095,552.853z"/>
<ellipse fill="#3E4557" cx="376.084" cy="605.993" rx="9.667" ry="10.25"/>
<ellipse fill="#3E4557" cx="531.584" cy="605.993" rx="9.667" ry="10.25"/>
<path fill="#3E4557" d="M538.36,589.494c-1.877,4.471-5.638,7.161-8.404,5.999l-78.123-32.767c-2.764-1.16-3.484-5.726-1.607-10.199
	l0,0c1.874-4.472,5.636-7.157,8.4-5.998l78.126,32.768C539.516,580.457,540.235,585.022,538.36,589.494L538.36,589.494z"/>
<image display="none" overflow="visible" width="821" height="645" xlink:href="7ACA3BC4.png"  transform="matrix(1 0 0 1 -2.441406e-004 -2.441406e-004)">
</image>
<circle fill="#7BFF21" cx="455.5" cy="192.67" r="2"/>
<g>
	<path fill="#FF793F" d="M741.323,383.336h-76.24c-2.024,0-3.666,1.642-3.666,3.666l0,0c0,2.025,1.642,3.667,3.666,3.667h76.571
		l0.335,5.915h-78.335c-4.233,0-7.666-4.328-7.666-9.666l0,0c0-5.34,3.433-9.668,7.666-9.668h78.001"/>
	<path fill="#FFFFFF" d="M738.655,390.25h-74.497c-1.883,0-3.407-1.492-3.407-3.334l0,0c0-1.841,1.524-3.333,3.407-3.333h74.497"/>
</g>
<g>
	<path fill="#1CB99A" d="M753.989,402.749h-76.24c-2.024,0-3.666,1.642-3.666,3.666l0,0c0,2.025,1.642,3.667,3.666,3.667h76.571
		l0.335,5.915H676.32c-4.233,0-7.666-4.328-7.666-9.666l0,0c0-5.34,3.433-9.668,7.666-9.668h78.001"/>
	<path fill="#FFFFFF" d="M751.988,409.664H677.49c-1.883,0-3.407-1.492-3.407-3.334l0,0c0-1.841,1.524-3.333,3.407-3.333h74.497"/>
</g>
<line fill="#EAEAEA" x1="681.25" y1="331.75" x2="681.25" y2="329.75"/>
<path fill="#138698" d="M717.614,329.169v34.969c0,7.241-5.56,13.112-12.417,13.112h-12.416c-6.857,0-12.417-5.871-12.417-13.112
	v-34.969"/>
<path fill="none" stroke="#FFF3F2" d="M690.651,301.331c4.295,1.861,7.396,5.276,4.648,9.592
	c-3.066,4.816-12.953,11.052-3.648,13.741" class="steam1"/>
<path fill="none" stroke="#FFF3F2" d="M704.29,293.664c4.295,1.861,7.396,5.276,4.648,9.592
	c-3.066,4.816-12.953,11.052-3.648,13.741" class="steam1"/>
<path fill="none" stroke="#138698" stroke-width="3" d="M715.035,336.207c3.564-0.619,7.436-1.823,9.675,1.351
	c1.637,2.32,2.747,6.854,2.324,9.648c-0.853,5.622-9.194,13.205-14.999,13.335"/>
</svg>
