<?xml version="1.0" encoding="utf-8"?>
<!-- Generator: Adobe Illustrator 16.0.0, SVG Export Plug-In . SVG Version: 6.00 Build 0)  -->
<!DOCTYPE svg PUBLIC "-//W3C//DTD SVG 1.1//EN" "http://www.w3.org/Graphics/SVG/1.1/DTD/svg11.dtd">
<svg version="1.1" id="Layer_1" xmlns="http://www.w3.org/2000/svg" xmlns:xlink="http://www.w3.org/1999/xlink" x="0px" y="0px"
	 width="339.333px" height="300px" viewBox="0 0 339.333 300" enable-background="new 0 0 339.333 300" xml:space="preserve">
<rect x="19.162" y="30.25" fill="#E6E6E6" width="302.344" height="147.656"/>
<g>
	<rect x="19.162" y="30.25" fill="#CDCCCC" width="302.344" height="3.516"/>
	<rect x="19.162" y="174.391" fill="#CDCCCC" width="302.344" height="3.516"/>
</g>
<g>
	<path fill="#263740" d="M328.537,26.734c0,1.934-1.582,3.516-3.516,3.516H15.646c-1.934,0-3.516-1.582-3.516-3.516v-7.031
		c0-1.934,1.582-3.516,3.516-3.516h309.375c1.934,0,3.516,1.582,3.516,3.516V26.734z"/>
	<path fill="#263740" d="M328.537,188.453c0,1.934-1.582,3.516-3.516,3.516H15.646c-1.934,0-3.516-1.582-3.516-3.516v-7.031
		c0-1.934,1.582-3.516,3.516-3.516h309.375c1.934,0,3.516,1.582,3.516,3.516V188.453z"/>
</g>
<rect x="166.818" y="191.969" fill="#B4B4B4" width="7.031" height="59.766"/>
<path fill="#263740" d="M177.365,248.219h-14.063c-3.867,0-7.031,3.164-7.031,7.031v21.094c0,3.867,3.164,7.031,7.031,7.031h14.063
	c3.867,0,7.031-3.164,7.031-7.031V255.25C184.396,251.383,181.232,248.219,177.365,248.219z M177.365,276.344h-14.063V255.25h14.063
	V276.344z"/>
</svg>
