<?xml version="1.0" encoding="utf-8"?>
<!-- Generator: Adobe Illustrator 16.0.0, SVG Export Plug-In . SVG Version: 6.00 Build 0)  -->
<!DOCTYPE svg PUBLIC "-//W3C//DTD SVG 1.1//EN" "http://www.w3.org/Graphics/SVG/1.1/DTD/svg11.dtd">
<svg version="1.1" id="Layer_1" xmlns="http://www.w3.org/2000/svg" xmlns:xlink="http://www.w3.org/1999/xlink" x="0px" y="0px"
	 width="339.332px" height="230.991px" viewBox="0 14.839 339.332 230.991" enable-background="new 0 14.839 339.332 230.991"
	 xml:space="preserve">
<g>
	
		<rect x="167.179" y="54.714" transform="matrix(0.9245 0.3812 -0.3812 0.9245 39.5134 -86.5501)" fill="#CDCCCC" width="142.127" height="3.516"/>
</g>
<g>
	
		<rect x="32.332" y="53.714" transform="matrix(-0.9245 0.3812 -0.3812 -0.9245 220.1298 67.3436)" fill="#CDCCCC" width="142.128" height="3.516"/>
</g>
<rect x="239.158" y="-28.839" transform="matrix(0.3849 -0.923 0.923 0.3849 98.9042 257.5482)" fill="#B4B4B4" width="7.031" height="166.823"/>
<rect x="93.987" y="-28.838" transform="matrix(-0.3849 -0.923 0.923 -0.3849 84.6599 165.5678)" fill="#B4B4B4" width="7.031" height="166.822"/>
<rect x="19.162" y="81.25" fill="#E6E6E6" width="302.344" height="147.656"/>
<g>
	<rect x="19.162" y="81.25" fill="#CDCCCC" width="302.344" height="3.516"/>
	<rect x="19.162" y="225.391" fill="#CDCCCC" width="302.344" height="3.517"/>
</g>
<g>
	<path fill="#263740" d="M328.536,77.734c0,1.934-1.582,3.516-3.516,3.516H15.646c-1.934,0-3.516-1.582-3.516-3.516v-7.031
		c0-1.934,1.582-3.516,3.516-3.516h309.375c1.934,0,3.516,1.582,3.516,3.516V77.734z"/>
	<path fill="#263740" d="M328.536,239.453c0,1.934-1.582,3.516-3.516,3.516H15.646c-1.934,0-3.516-1.582-3.516-3.516v-7.031
		c0-1.934,1.582-3.516,3.516-3.516h309.375c1.934,0,3.516,1.582,3.516,3.516V239.453z"/>
</g>
<path display="none" fill="#263740" d="M173.824,26.114c0,1.332-0.048,2.42-0.106,2.42h-9.278c-0.058,0-0.106-1.088-0.106-2.42
	v-4.84c0-1.331,0.048-2.42,0.106-2.42h9.278c0.059,0,0.106,1.089,0.106,2.42V26.114z"/>
<ellipse fill="#263740" cx="170.079" cy="24.694" rx="6" ry="6.069"/>
</svg>
