<?xml version="1.0" encoding="utf-8"?>
<!-- Generator: Adobe Illustrator 16.0.0, SVG Export Plug-In . SVG Version: 6.00 Build 0)  -->
<!DOCTYPE svg PUBLIC "-//W3C//DTD SVG 1.1//EN" "http://www.w3.org/Graphics/SVG/1.1/DTD/svg11.dtd">
<svg version="1.1" id="Layer_2" xmlns="http://www.w3.org/2000/svg" xmlns:xlink="http://www.w3.org/1999/xlink" x="0px" y="0px"
	 width="171px" height="119px" viewBox="0 0 171 119" enable-background="new 0 0 171 119" xml:space="preserve">
<g>
	<g>
		
			<rect x="27.51" y="94.57" transform="matrix(-1 2.593904e-003 -2.593904e-003 -1 64.6936 206.4776)" fill="#78593B" width="9.41" height="17.42"/>
		
			<rect x="139.22" y="94.28" transform="matrix(-1 2.697377e-003 -2.697377e-003 -1 288.123 205.5919)" fill="#78593B" width="9.41" height="17.42"/>
		
			<rect x="8.66" y="90.66" transform="matrix(-1 2.607732e-003 -2.607732e-003 -1 176.3339 187.2047)" fill="#5C3610" width="158.78" height="6.12"/>
	</g>
	<g>
		<g>
			
				<rect x="133.31" y="3.31" transform="matrix(-0.9787 0.2052 -0.2052 -0.9787 282.2695 63.4047)" fill="#8E3837" width="9.08" height="86.06"/>
			<text transform="matrix(0.332 1.3554 -0.9713 0.2379 133.459 38.1953)" fill="#A66F5E" font-family="'ARCENA'" font-size="7">SQL</text>
		</g>
		
			<rect x="98.9" y="15.55" transform="matrix(-1 2.551942e-003 -2.551942e-003 -1 208.0722 104.7838)" fill="#9B9481" width="10.14" height="73.94"/>
		<g>
			
				<rect x="86.19" y="9.09" transform="matrix(-1 2.575784e-003 -2.575784e-003 -1 185.2029 98.3806)" fill="#65797A" width="12.7" height="80.43"/>
			<text transform="matrix(2.598239e-003 1 -1 2.598239e-003 89.6719 34.5981)"><tspan x="0" y="0" fill="#DF9680" font-family="'ARCENA'" font-size="11">A</tspan><tspan x="5.4" y="0" fill="#A9D0AE" font-family="'ARCENA'" font-size="11">n</tspan><tspan x="9.83" y="0" fill="#7DC5EC" font-family="'ARCENA'" font-size="11">g</tspan><tspan x="14.19" y="0" fill="#BD86B6" font-family="'ARCENA'" font-size="11">u</tspan><tspan x="18.75" y="0" fill="#E7E767" font-family="'ARCENA'" font-size="11">l</tspan><tspan x="20.84" y="0" fill="#96A2D1" font-family="'ARCENA'" font-size="11">a</tspan><tspan x="25.05" y="0" fill="#A9D0AE" font-family="'ARCENA'" font-size="11">r</tspan></text>
		</g>
		<g>
			
				<rect x="72.52" y="12.59" transform="matrix(-1 2.596288e-003 -2.596288e-003 -1 158.1445 101.9466)" fill="#606F81" width="12.98" height="76.97"/>
			
				<rect x="72.44" y="15.18" transform="matrix(-1 2.596288e-003 -2.596288e-003 -1 157.9133 42.7037)" fill="#CFC2A6" width="12.98" height="12.54"/>
			
				<text transform="matrix(-2.598239e-003 -1 1 -2.598239e-003 82.0156 65.4883)" fill="#CFC2A6" font-family="'ARCENA'" font-size="9">Node.js</text>
		</g>
		<g>
			
				<rect x="46.14" y="12.66" transform="matrix(-1 2.635150e-003 -2.635150e-003 -1 102.7977 102.1605)" fill="#585672" width="10.38" height="76.97"/>
			<g>
				
					<text transform="matrix(2.598239e-003 1 -1 2.598239e-003 48.4434 15.8584)" fill="#DF9680" font-family="'ARCENA'" font-size="8">Model-Driven Engineering </text>
			</g>
		</g>
		<g>
			
				<rect x="56.51" y="7.87" transform="matrix(-1 2.655416e-003 -2.655416e-003 -1 129.1546 97.2978)" fill="#385358" width="16" height="81.73"/>
			
				<rect x="58.31" y="71.44" transform="matrix(-1 2.676396e-003 -2.676396e-003 -1 128.5063 151.3495)" fill="#5E6474" width="11.68" height="8.65"/>
			
				<text transform="matrix(-3.625824e-003 -1.3955 1 -2.598239e-003 67.6494 57.04)" fill="#AAA875" font-family="'ARCENA'" font-size="11.5948">Java</text>
		</g>
		<g>
			<polygon fill="#A4733A" points="107.68,4.69 124.37,3.06 132.6,87.83 115.91,89.47 			"/>
			
				<text transform="matrix(-0.1068 -0.9943 0.9943 -0.1068 125.7412 68.627)" fill="#781113" font-family="'ARCENA'" font-size="12">JavaScript</text>
		</g>
		<g>
			
				<text transform="matrix(2.598239e-003 1 -1 2.598239e-003 100.9678 25.3696)" fill="#486976" font-family="'ARCENA'" font-size="8">Continuous Delivery</text>
		</g>
	</g>
	<g>
		
			<rect x="32.47" y="16.88" transform="matrix(-1 2.591520e-003 -2.591520e-003 -1 79.0304 106.3615)" fill="#486976" width="13.94" height="72.7"/>
		
			<rect x="32.44" y="38.21" transform="matrix(-1 2.626567e-003 -2.626567e-003 -1 78.927 79.3705)" fill="#607778" width="13.94" height="3.05"/>
		
			<rect x="32.42" y="31.68" transform="matrix(-1 2.591281e-003 -2.591281e-003 -1 78.874 66.3089)" fill="#607778" width="13.94" height="3.05"/>
		
			<rect x="32.4" y="23.85" transform="matrix(-1 2.591281e-003 -2.591281e-003 -1 78.8132 50.6371)" fill="#607778" width="13.94" height="3.05"/>
		<g>
			
				<text transform="matrix(2.806767e-003 1.0803 -1 2.598264e-003 35.9419 57.04)" fill="#AAA875" font-family="'ARCENA'" font-size="9.8513">PHP</text>
		</g>
	</g>
	
		<rect x="-21.84" y="-33.18" transform="matrix(-1 2.596288e-003 -2.596288e-003 -1 186.4942 127.566)" fill="none" width="230" height="194.16"/>
	<g>
		
			<rect x="20.59" y="8.15" transform="matrix(-1 2.608209e-003 -2.608209e-003 -1 53.657 98.2713)" fill="#824452" width="12.36" height="82.04"/>
		
			<text transform="matrix(2.598239e-003 1 -1 2.598239e-003 24.0801 15.8584)" fill="#D0532F" font-family="'ARCENA'" font-size="9">Domain-Driven Design</text>
	</g>
</g>
</svg>
