<?xml version="1.0" encoding="utf-8"?>
<!-- Generator: Adobe Illustrator 16.0.0, SVG Export Plug-In . SVG Version: 6.00 Build 0)  -->
<!DOCTYPE svg PUBLIC "-//W3C//DTD SVG 1.1//EN" "http://www.w3.org/Graphics/SVG/1.1/DTD/svg11.dtd">
<svg version="1.1" id="Layer_2" xmlns="http://www.w3.org/2000/svg" xmlns:xlink="http://www.w3.org/1999/xlink" x="0px" y="0px"
	 width="171px" height="119px" viewBox="0 0 171 119" enable-background="new 0 0 171 119" xml:space="preserve">
<g>
	
		<rect x="27.51" y="94.57" transform="matrix(1 -2.490135e-003 2.490135e-003 1 -0.2571 0.0805)" fill="#78593B" width="9.41" height="17.42"/>
	
		<rect x="139.22" y="94.28" transform="matrix(1 -2.697365e-003 2.697365e-003 1 -0.2773 0.3886)" fill="#78593B" width="9.41" height="17.42"/>
	
		<rect x="8.66" y="90.66" transform="matrix(1 -2.595509e-003 2.595509e-003 1 -0.2429 0.2288)" fill="#5C3610" width="158.78" height="6.12"/>
	
		<rect x="133.31" y="3.31" transform="matrix(0.9787 -0.2052 0.2052 0.9787 -6.5753 29.2676)" fill="#8E3837" width="9.08" height="86.06"/>
	<path fill="#A66F5E" d="M136.99,49.34c-0.09-0.29-0.15-0.5-0.19-0.65l0.25-0.06c0.29-0.07,0.99-0.16,2.08-0.25
		c0.5-0.04,0.91-0.1,1.22-0.18c0.11-0.03,0.18-0.12,0.2-0.28c0.03-0.16,0.02-0.32-0.02-0.48c-0.02-0.1-0.07-0.2-0.13-0.29
		l-0.19-0.11c-0.27,0.07-0.63,0.13-1.09,0.19c-0.46,0.06-0.9,0.12-1.33,0.19c-0.43,0.06-0.81,0.13-1.14,0.21l-0.25,0.07
		c-0.1-0.14-0.21-0.2-0.32-0.17c-0.09,0.02-0.15,0.08-0.19,0.18c-0.04,0.1-0.05,0.21-0.02,0.33c0.05,0.2,0.14,0.51,0.28,0.92
		c0.13,0.41,0.23,0.72,0.28,0.94c0.02,0.08,0.05,0.29,0.09,0.64c0.02,0.14,0.03,0.26,0.06,0.36c0.02,0.09,0.08,0.16,0.18,0.2
		c0.1,0.04,0.18,0.06,0.25,0.04c0.17-0.04,0.26-0.2,0.27-0.47c0.01-0.17-0.03-0.4-0.1-0.69C137.14,49.84,137.08,49.63,136.99,49.34z
		 M136.24,44.76c-0.03,0.02-0.14,0.12-0.33,0.29l-0.09-0.13l-0.04-0.14c-0.08-0.33,0.01-0.61,0.27-0.82c0.16-0.13,0.4-0.24,0.7-0.31
		c0.23-0.06,0.45-0.08,0.67-0.08s0.45,0.02,0.7,0.06l0.08,0.19c0.13,0.04,0.25,0.09,0.38,0.13c0.26,0.1,0.42,0.28,0.49,0.54
		c0.07,0.3-0.01,0.54-0.25,0.73c-0.15,0.11-0.36,0.2-0.63,0.27c-0.24,0.06-0.48,0.09-0.74,0.1c-0.26,0.01-0.5-0.01-0.73-0.06
		l0.11-0.18c0.06-0.12,0.08-0.24,0.05-0.36c-0.03-0.12-0.09-0.21-0.17-0.27l-0.26-0.07L136.24,44.76z M135.77,46.62
		c0.05-0.08,0.14-0.19,0.27-0.33c0.39,0.2,0.76,0.32,1.11,0.35c0.35,0.04,0.73,0,1.14-0.1c0.43-0.11,0.79-0.3,1.07-0.57
		c0.38-0.37,0.5-0.81,0.37-1.33l-0.1-0.31l0.14-0.25c0.03-0.09,0.03-0.19,0-0.3c-0.13-0.52-0.63-0.89-1.5-1.1
		c-0.71-0.17-1.29-0.2-1.75-0.08c-0.5,0.12-0.89,0.35-1.17,0.69c-0.34,0.42-0.44,0.96-0.28,1.61c0.03,0.12,0.07,0.25,0.14,0.4
		c0.06,0.15,0.13,0.28,0.19,0.38c-0.17,0.24-0.28,0.45-0.34,0.61c-0.1,0.27-0.12,0.52-0.06,0.77c0.07,0.29,0.24,0.41,0.49,0.35
		l0.15-0.07l0.04-0.1l-0.07-0.16C135.64,46.92,135.69,46.76,135.77,46.62z M134.52,38.26c-0.11-0.06-0.23-0.07-0.34-0.04
		c-0.24,0.06-0.37,0.31-0.39,0.75c-0.01,0.31,0.03,0.67,0.13,1.07c0.14,0.56,0.31,1.03,0.53,1.41c0.3,0.52,0.62,0.75,0.96,0.66
		c0.26-0.06,0.44-0.36,0.55-0.89c0-0.02,0.06-0.5,0.16-1.44c0.06-0.51,0.16-0.78,0.31-0.82c0.19-0.04,0.47,0.14,0.86,0.55
		c0.38,0.41,0.61,0.75,0.67,1.01l-0.05,0.19l-0.21,0.09c-0.1,0.03-0.18,0.03-0.24,0.01c-0.06-0.02-0.16-0.05-0.3-0.1L137,40.92
		c-0.02,0.08-0.02,0.17,0,0.28c0.07,0.28,0.23,0.45,0.49,0.51c0.17,0.04,0.38,0.03,0.63-0.04c0.24-0.06,0.42-0.16,0.55-0.29
		c0.16-0.18,0.21-0.42,0.13-0.72c-0.13-0.51-0.5-1.11-1.12-1.79c-0.64-0.71-1.14-1.02-1.5-0.93c-0.35,0.08-0.59,0.38-0.71,0.9
		c-0.06,0.24-0.11,0.71-0.16,1.38c-0.03,0.49-0.1,0.75-0.2,0.77c-0.12,0.03-0.24-0.08-0.36-0.33c-0.07-0.15-0.13-0.35-0.19-0.59
		c-0.08-0.3-0.09-0.58-0.04-0.82c0.05-0.24,0.12-0.47,0.21-0.7C134.7,38.42,134.63,38.32,134.52,38.26z"/>
	
		<rect x="98.9" y="15.56" transform="matrix(1 -2.696446e-003 2.696446e-003 1 -0.1413 0.2805)" fill="#9B9481" width="10.14" height="73.94"/>
	
		<rect x="86.19" y="9.1" transform="matrix(1 -2.614169e-003 2.614169e-003 1 -0.1286 0.2421)" fill="#65797A" width="12.7" height="80.43"/>
	<path fill="#DF9680" d="M93.61,37.51c-0.49,0.12-0.85,0.2-1.08,0.23c0-0.23-0.01-0.44-0.02-0.64c-0.02-0.2-0.04-0.41-0.07-0.62
		c0.42,0.12,0.81,0.24,1.17,0.37c0.36,0.13,0.73,0.26,1.11,0.41C94.47,37.31,94.1,37.4,93.61,37.51z M92.3,39.49
		c0.11-0.11,0.19-0.32,0.24-0.63c0.95-0.18,1.88-0.37,2.78-0.54c0.9-0.17,1.36-0.27,1.37-0.28c0.2-0.15,0.3-0.34,0.29-0.56
		c0-0.19-0.06-0.34-0.18-0.46c-0.16-0.16-0.75-0.42-1.77-0.79c-0.83-0.3-1.77-0.6-2.82-0.91c-1.05-0.31-1.67-0.46-1.87-0.46
		c-0.19,0-0.35,0.06-0.48,0.18c-0.13,0.12-0.19,0.27-0.19,0.46c0,0.1,0.04,0.21,0.11,0.31c0.07,0.11,0.16,0.16,0.26,0.16
		c0.64,0,1.04,0.08,1.21,0.24c0.13,0.12,0.2,0.44,0.2,0.96l0,0.56l-0.01,0.34c-0.46,0.12-0.73,0.19-0.81,0.22
		c-0.66,0.22-0.99,0.52-0.99,0.88c0,0.14,0.04,0.27,0.13,0.38c0.08,0.11,0.19,0.17,0.33,0.17l0.13-0.04l0.13-0.06
		c0.17-0.09,0.35-0.18,0.54-0.25c0.12-0.04,0.3-0.11,0.55-0.2l-0.01,0.13c0,0.24,0.15,0.36,0.46,0.36
		C92.06,39.65,92.19,39.6,92.3,39.49z"/>
	<path fill="#A9D0AE" d="M94.18,42.18c-0.24-0.15-0.6-0.35-1.1-0.59c0.07,0,0.22,0.01,0.45,0.03c0.23,0.02,0.42,0.03,0.56,0.03
		c0.29,0,0.52-0.04,0.67-0.11c0.2-0.09,0.3-0.25,0.3-0.46c0-0.14-0.04-0.28-0.11-0.43c-0.07-0.15-0.17-0.22-0.3-0.22
		c-0.05,0-0.16,0.02-0.34,0.06c-0.18,0.04-0.31,0.06-0.41,0.06c-0.32,0-0.75-0.02-1.29-0.07c-1.07-0.1-1.79-0.15-2.15-0.15
		c-0.22,0-0.41,0.04-0.57,0.11s-0.24,0.2-0.24,0.39c0,0.12,0.04,0.25,0.12,0.37s0.17,0.18,0.29,0.18c0.48,0,1.06,0.13,1.72,0.39
		c0.66,0.26,1.11,0.56,1.33,0.92c0,0.08-0.18,0.14-0.55,0.17c-0.1,0.01-0.31,0.01-0.62,0.01c-0.21,0-0.51-0.03-0.9-0.1
		c-0.4-0.06-0.69-0.1-0.87-0.1c-0.13,0-0.23,0.06-0.33,0.19c-0.09,0.13-0.14,0.26-0.14,0.39c0,0.29,0.3,0.49,0.89,0.6
		c0.35,0.07,0.86,0.1,1.52,0.1l0.44,0c0.57,0,1.04-0.04,1.4-0.11c0.64-0.13,0.97-0.38,0.97-0.73C94.92,42.81,94.67,42.5,94.18,42.18
		z"/>
	<path fill="#7DC5EC" d="M93.75,47.16c-0.11,0.03-0.29,0.04-0.53,0.05c-0.38,0-0.83-0.09-1.33-0.27c-0.62-0.23-0.94-0.49-0.94-0.79
		c0-0.15,0.08-0.26,0.25-0.32c0.09-0.03,0.23-0.05,0.43-0.05c0.37,0,0.84,0.09,1.41,0.27c0.69,0.22,1.04,0.47,1.04,0.76
		C94.08,46.98,93.97,47.1,93.75,47.16z M94.95,47.63l-0.17-0.18c0.2-0.22,0.3-0.47,0.29-0.76c0-0.6-0.44-1.11-1.3-1.52
		c-0.71-0.33-1.41-0.5-2.09-0.5c-0.46,0-0.87,0.1-1.23,0.31c-0.42,0.24-0.64,0.58-0.64,1.01c0,0.26,0.1,0.5,0.29,0.7
		c0.14,0.15,0.35,0.31,0.64,0.47l-0.5,0.01c-0.37,0-0.69-0.09-0.96-0.27c-0.31-0.21-0.46-0.48-0.46-0.83c0-0.23,0.06-0.44,0.19-0.64
		c0.12-0.2,0.26-0.4,0.42-0.6c0-0.13-0.07-0.25-0.22-0.34c-0.14-0.09-0.28-0.14-0.41-0.14c-0.32,0-0.57,0.21-0.76,0.63
		c-0.15,0.32-0.22,0.67-0.22,1.04c0,0.79,0.25,1.37,0.74,1.75c0.43,0.33,1.05,0.49,1.86,0.49c0.44,0.01,0.88,0.01,1.33,0.02
		s0.89,0.01,1.33,0.01c0.09,0,0.4,0.05,0.91,0.14c0.2,0.04,0.37,0.05,0.52,0.05c0.12,0,0.24-0.07,0.35-0.21
		c0.11-0.14,0.16-0.27,0.16-0.41L94.95,47.63z"/>
	<path fill="#BD86B6" d="M90.19,51.05c0.18,0.18,0.43,0.36,0.76,0.55c-0.37,0.04-0.64,0.1-0.81,0.18c-0.28,0.13-0.42,0.35-0.42,0.64
		c0,0.14,0.03,0.27,0.09,0.38c0.06,0.11,0.15,0.17,0.28,0.17c0.04,0,0.29-0.07,0.73-0.2c0.19-0.06,0.36-0.09,0.51-0.09
		c0.34,0,0.78,0.05,1.32,0.15c1.15,0.22,1.76,0.33,1.83,0.33c0.15,0,0.26-0.06,0.35-0.19s0.13-0.26,0.13-0.41l-0.03-0.23l-0.09-0.16
		c-0.84-0.25-1.68-0.51-2.52-0.76c-0.76-0.32-1.19-0.68-1.29-1.06l0.18-0.16c0.08-0.02,0.21-0.03,0.37-0.03
		c0.25,0,0.47,0.01,0.65,0.03c0.18,0.02,0.42,0.05,0.7,0.1c0.07,0.01,0.31,0.08,0.73,0.2c0.42,0.12,0.66,0.17,0.72,0.17
		c0.14,0,0.25-0.06,0.35-0.19c0.09-0.13,0.14-0.26,0.14-0.4c0-0.29-0.29-0.51-0.88-0.68c-0.66-0.19-1.46-0.28-2.4-0.28
		c-0.45,0-0.83,0.08-1.14,0.22c-0.41,0.19-0.62,0.49-0.61,0.89C89.8,50.52,89.93,50.79,90.19,51.05z"/>
	<path fill="#E7E767" d="M89.84,54.86c0.08,0.12,0.18,0.17,0.31,0.17c0.09,0,0.34-0.03,0.75-0.1c0.18-0.03,0.34-0.04,0.46-0.04
		c1.21,0,2.45,0.06,3.71,0.18c0.22,0.03,0.46,0.06,0.7,0.09c0.25,0.03,0.45,0.05,0.61,0.05c0.16,0,0.28-0.05,0.37-0.15
		s0.13-0.23,0.13-0.39c0-0.14-0.04-0.29-0.12-0.45c-0.08-0.16-0.18-0.24-0.3-0.24c-0.05,0-0.14,0.01-0.25,0.04
		c-0.12,0.03-0.19,0.04-0.23,0.04c-0.42,0-0.96-0.02-1.61-0.07c-0.66-0.05-1.29-0.09-1.89-0.13c-0.6-0.04-1.16-0.06-1.68-0.06
		c-0.29,0-0.52,0.05-0.7,0.13c-0.24,0.12-0.36,0.3-0.36,0.56C89.72,54.62,89.76,54.74,89.84,54.86z"/>
	<path fill="#96A2D1" d="M91.85,57.11c0.19,0.31,0.29,0.62,0.29,0.92H91.9l-0.19,0l-0.22-0.02c-0.18-0.05-0.34-0.2-0.47-0.44
		c-0.13-0.24-0.2-0.47-0.2-0.67c0-0.22,0.09-0.33,0.26-0.33C91.38,56.57,91.63,56.75,91.85,57.11z M90.25,58.02
		c-0.15,0.04-0.27,0.11-0.37,0.21c-0.1,0.09-0.15,0.21-0.15,0.35c0,0.15,0.06,0.31,0.18,0.47c0.12,0.16,0.25,0.24,0.39,0.24
		c0.16-0.04,0.32-0.09,0.48-0.13c0.16-0.04,0.3-0.06,0.42-0.06c0.31,0.01,0.58,0.03,0.8,0.04c0.23,0.01,0.49,0.02,0.78,0.02
		c0.66,0,1.17-0.08,1.52-0.25c0.47-0.21,0.7-0.58,0.7-1.09c0-0.34-0.16-0.71-0.49-1.12c-0.32-0.41-0.65-0.61-0.97-0.61
		c-0.13,0-0.23,0.05-0.31,0.15c-0.08,0.1-0.13,0.21-0.13,0.32c0,0.11,0.21,0.33,0.64,0.66c0.19,0.15,0.29,0.32,0.29,0.51
		c0,0.14-0.08,0.23-0.23,0.28c-0.07,0.02-0.21,0.03-0.4,0.03l-0.26-0.01c-0.11-0.65-0.34-1.2-0.69-1.66
		c-0.42-0.56-0.92-0.84-1.51-0.84c-0.34,0-0.62,0.14-0.83,0.42c-0.18,0.24-0.27,0.54-0.27,0.9C89.84,57.27,89.98,57.66,90.25,58.02z
		"/>
	<path fill="#A9D0AE" d="M94.56,61.86c-0.13-0.24-0.31-0.49-0.54-0.74c0.01,0,0.1,0.01,0.27,0.02c0.17,0.01,0.29,0.02,0.36,0.02
		c0.16,0,0.29-0.04,0.37-0.11s0.13-0.21,0.13-0.4c0-0.15-0.04-0.29-0.11-0.42c-0.07-0.14-0.17-0.2-0.3-0.2
		c-0.06,0-0.53-0.01-1.42-0.02C92.43,60.01,91.79,60,91.41,60h-0.26c-0.29,0-0.53,0.02-0.7,0.05c-0.48,0.08-0.73,0.28-0.72,0.61
		c0,0.13,0.04,0.27,0.12,0.41c0.08,0.14,0.18,0.21,0.3,0.21c0.09,0,0.26-0.03,0.51-0.08c0.25-0.06,0.44-0.08,0.58-0.08
		c0.54,0,1.03,0.09,1.49,0.28c0.59,0.25,0.89,0.61,0.89,1.08l-0.03,0.18l-0.03,0.18c0,0.16,0.08,0.3,0.23,0.42
		c0.15,0.12,0.31,0.18,0.49,0.18c0.18,0,0.31-0.07,0.39-0.19c0.09-0.13,0.13-0.28,0.13-0.47C94.78,62.45,94.71,62.16,94.56,61.86z"
		/>
	
		<rect x="72.52" y="12.59" transform="matrix(1 -2.633847e-003 2.633847e-003 1 -0.1343 0.2083)" fill="#606F81" width="12.98" height="76.97"/>
	
		<rect x="72.44" y="15.18" transform="matrix(1 -2.596319e-003 2.596319e-003 1 -0.0554 0.205)" fill="#CFC2A6" width="12.98" height="12.54"/>
	<path fill="#CFC2A6" d="M81.01,44.52c0.1,0.08,0.19,0.12,0.27,0.12c0.25,0,0.43-0.19,0.57-0.56c0.1-0.27,0.14-0.55,0.14-0.86
		c0-0.38-0.07-0.72-0.22-1c-0.18-0.35-0.45-0.52-0.79-0.52c-0.35,0-0.68,0.33-0.97,0.97c-0.29,0.65-0.5,0.97-0.62,0.97
		c-0.17,0-0.36-0.15-0.56-0.47c-0.21-0.31-0.31-0.56-0.31-0.74c0-0.11,0.05-0.16,0.14-0.16l0.18,0.05c0.17,0.08,0.27,0.12,0.3,0.12
		c0.1,0,0.18-0.04,0.26-0.13s0.11-0.18,0.11-0.27c0-0.16-0.13-0.29-0.38-0.39c-0.2-0.08-0.39-0.12-0.58-0.12
		c-0.25,0-0.45,0.05-0.61,0.16c-0.16,0.11-0.24,0.28-0.24,0.51c0,0.47,0.18,0.97,0.54,1.51c0.39,0.58,0.8,0.87,1.24,0.87
		c0.39,0,0.74-0.34,1.06-1.01s0.5-1.01,0.55-1.01c0.06,0,0.11,0.05,0.14,0.15c0.03,0.1,0.05,0.24,0.05,0.42
		c0,0.25-0.04,0.46-0.12,0.63c-0.08,0.17-0.18,0.33-0.29,0.47C80.86,44.36,80.91,44.44,81.01,44.52z M76.41,46.09
		c0.07,0.11,0.16,0.17,0.28,0.17c0.15,0,0.28-0.08,0.38-0.23c0.08-0.13,0.13-0.28,0.13-0.43c0-0.14-0.04-0.26-0.11-0.36
		c-0.07-0.1-0.17-0.15-0.31-0.15c-0.15,0-0.27,0.07-0.35,0.2c-0.08,0.14-0.12,0.28-0.12,0.45C76.31,45.87,76.35,45.98,76.41,46.09z
		 M81.73,47.64c0.11,0.08,0.29,0.12,0.56,0.12c0.35,0,0.66-0.09,0.93-0.27c0.3-0.21,0.45-0.48,0.45-0.82c0-0.41-0.22-0.74-0.66-0.97
		c-0.35-0.18-0.84-0.31-1.45-0.38c-0.37-0.04-0.86-0.06-1.49-0.06l-0.47,0c-0.04,0-0.13,0-0.28-0.01c-0.15-0.01-0.28-0.01-0.38-0.01
		c-0.38,0-0.67,0.03-0.86,0.09c-0.28,0.08-0.41,0.23-0.41,0.43c0,0.13,0.04,0.25,0.11,0.37c0.08,0.12,0.17,0.17,0.29,0.17
		c0.25-0.05,0.49-0.09,0.72-0.14c0.23-0.04,0.45-0.06,0.64-0.06c0.93,0,1.74,0.04,2.44,0.14c0.69,0.09,1.04,0.22,1.04,0.37
		c0,0.1-0.09,0.18-0.27,0.25c-0.18,0.06-0.33,0.1-0.46,0.1l-0.16,0c-0.14,0-0.25,0.02-0.32,0.06c-0.07,0.04-0.11,0.14-0.11,0.29
		C81.57,47.44,81.63,47.56,81.73,47.64z M81.03,49.05c0.11,0.17,0.26,0.25,0.45,0.25c0.16,0,0.28-0.06,0.37-0.17
		c0.08-0.11,0.13-0.25,0.13-0.41c0-0.19-0.06-0.37-0.18-0.54c-0.12-0.17-0.27-0.26-0.45-0.25c-0.15,0-0.27,0.06-0.35,0.18
		c-0.08,0.12-0.13,0.25-0.13,0.41C80.87,48.7,80.92,48.88,81.03,49.05z M79.32,51.47c0.23,0.23,0.41,0.46,0.53,0.69
		c-0.26-0.08-0.54-0.21-0.83-0.38c-0.37-0.23-0.56-0.43-0.56-0.61c0-0.07,0.04-0.11,0.13-0.11C78.8,51.06,79.04,51.2,79.32,51.47z
		 M80.72,52.31c-0.13-0.52-0.37-0.97-0.72-1.36c-0.4-0.44-0.85-0.65-1.33-0.65c-0.26,0-0.49,0.08-0.68,0.24
		c-0.19,0.16-0.28,0.37-0.28,0.63c0,0.52,0.36,0.99,1.07,1.43c0.64,0.39,1.24,0.59,1.8,0.59c0.43,0,0.77-0.14,1.02-0.43
		c0.25-0.28,0.38-0.64,0.38-1.06c0-0.39-0.15-0.79-0.44-1.2c-0.32-0.44-0.66-0.65-1.04-0.65c-0.13,0-0.24,0.05-0.33,0.14
		s-0.13,0.21-0.13,0.34c0.26,0.2,0.53,0.4,0.79,0.59c0.24,0.22,0.36,0.49,0.36,0.84C81.19,52.06,81.03,52.24,80.72,52.31z
		 M78.78,54.88c0.1-0.03,0.25-0.05,0.43-0.05c0.31,0,0.7,0.09,1.17,0.26c0.56,0.21,0.84,0.44,0.84,0.68c0,0.11-0.06,0.18-0.18,0.21
		c-0.12,0.03-0.25,0.05-0.39,0.05c-0.33,0-0.75-0.08-1.25-0.23c-0.6-0.18-0.9-0.39-0.9-0.63C78.5,55.03,78.59,54.93,78.78,54.88z
		 M77.32,54.51c0.26,0.02,0.48,0.05,0.66,0.08c-0.11,0.1-0.2,0.21-0.26,0.32c-0.06,0.11-0.09,0.23-0.09,0.37
		c0,0.49,0.37,0.9,1.11,1.23c0.61,0.27,1.19,0.41,1.75,0.41c0.39,0,0.73-0.09,1.01-0.26c0.33-0.21,0.49-0.49,0.49-0.86
		c0-0.26-0.1-0.5-0.3-0.73c-0.16-0.19-0.38-0.34-0.64-0.47c0.32-0.04,0.54-0.09,0.66-0.17s0.17-0.19,0.17-0.34
		c0-0.09-0.04-0.19-0.1-0.29c-0.07-0.11-0.15-0.16-0.23-0.16c-0.14,0-0.33,0.02-0.58,0.07c-0.5,0.08-0.84,0.13-1.02,0.13
		c-0.28,0-0.94-0.07-1.99-0.2c-0.46-0.06-0.84-0.09-1.16-0.09c-0.14,0-0.26,0.05-0.34,0.15c-0.08,0.1-0.12,0.22-0.12,0.36
		c0,0.12,0.02,0.22,0.07,0.3c0.05,0.08,0.13,0.12,0.23,0.12C76.84,54.48,77.07,54.49,77.32,54.51z M79.77,59.5
		c-0.24-0.05-0.5-0.12-0.77-0.22c0.03-0.07-0.05-0.16-0.23-0.25c-0.19-0.1-0.28-0.23-0.28-0.39c0-0.16,0.09-0.27,0.28-0.33
		c0.12-0.04,0.28-0.06,0.47-0.07c0.37,0,0.77,0.07,1.19,0.2c0.54,0.18,0.81,0.42,0.81,0.71c0,0.13-0.05,0.24-0.16,0.31
		c-0.11,0.08-0.29,0.11-0.54,0.11C80.26,59.57,80.01,59.55,79.77,59.5z M77.83,58.94c-0.1,0.08-0.14,0.18-0.14,0.3
		c0,0.34,0.38,0.63,1.15,0.88c0.61,0.2,1.13,0.29,1.58,0.29c0.46,0,0.84-0.1,1.12-0.31c0.32-0.23,0.48-0.56,0.47-1.01
		c0-0.58-0.32-1.03-0.97-1.35c-0.5-0.25-1.08-0.38-1.73-0.37c-0.42,0-0.78,0.08-1.08,0.25c-0.37,0.2-0.56,0.49-0.56,0.88
		C77.68,58.65,77.73,58.8,77.83,58.94z M76.54,61.97c0.43,0.15,1.1,0.22,2.03,0.22c0.1,0,0.3-0.01,0.6-0.01
		c0.3-0.01,0.48-0.02,0.53-0.02c-0.56,0.32-1.05,0.58-1.46,0.8c-0.56,0.28-1.07,0.5-1.51,0.65c-0.11,0.03-0.24,0.06-0.36,0.09
		c-0.13,0.03-0.21,0.07-0.23,0.12l-0.05,0.15l-0.01,0.18c0,0.12,0.02,0.23,0.06,0.32c0.04,0.09,0.1,0.16,0.19,0.21
		c0.22,0.13,0.77,0.22,1.64,0.28c0.49,0.03,1.07,0.04,1.76,0.04c0.1,0.01,0.21,0.01,0.32,0.01c0.11,0,0.23,0,0.36,0
		c0.46,0,0.82-0.04,1.08-0.12c0.36-0.11,0.54-0.3,0.54-0.57c0-0.11-0.02-0.2-0.07-0.29s-0.11-0.14-0.2-0.17
		c-0.37,0.07-0.73,0.13-1.11,0.16s-0.76,0.05-1.15,0.05c-0.25,0-0.47,0-0.66-0.01c-0.19,0-0.39-0.02-0.59-0.04
		c0.67-0.31,1.1-0.51,1.28-0.6c0.68-0.34,1.24-0.66,1.69-0.97c0.56-0.39,0.84-0.7,0.84-0.95c0-0.08-0.02-0.18-0.06-0.27
		c-0.04-0.1-0.1-0.15-0.18-0.15c-0.21,0-0.5,0.02-0.86,0.05c-0.74,0.06-1.22,0.09-1.45,0.09c-0.36,0-0.89-0.03-1.59-0.09
		c-0.7-0.06-1.22-0.1-1.54-0.1c-0.11,0-0.2,0.04-0.27,0.13c-0.07,0.09-0.1,0.18-0.1,0.29C76,61.66,76.18,61.84,76.54,61.97z"/>
	
		<rect x="46.14" y="12.66" transform="matrix(1 -2.635037e-003 2.635037e-003 1 -0.1346 0.1354)" fill="#585672" width="10.38" height="76.97"/>
	<path fill="#DF9680" d="M51.57,85.64c-0.08,0.02-0.21,0.03-0.38,0.03c-0.28,0-0.6-0.07-0.97-0.2c-0.45-0.17-0.68-0.36-0.68-0.57
		c0-0.11,0.06-0.19,0.18-0.23c0.06-0.02,0.17-0.03,0.31-0.03c0.27,0,0.61,0.07,1.02,0.2c0.5,0.16,0.75,0.34,0.75,0.55
		C51.81,85.51,51.73,85.6,51.57,85.64z M52.44,85.98l-0.12-0.13c0.14-0.16,0.21-0.34,0.21-0.55c0-0.44-0.32-0.81-0.95-1.1
		c-0.52-0.24-1.02-0.37-1.52-0.36c-0.34,0-0.63,0.08-0.9,0.23c-0.31,0.18-0.46,0.42-0.46,0.74c0,0.19,0.07,0.36,0.21,0.51
		c0.1,0.11,0.26,0.23,0.47,0.34l-0.36,0.01c-0.27,0-0.5-0.07-0.7-0.2c-0.22-0.15-0.34-0.35-0.34-0.61c0-0.17,0.04-0.32,0.13-0.47
		c0.09-0.15,0.19-0.29,0.3-0.44c0-0.1-0.05-0.18-0.16-0.25s-0.2-0.1-0.3-0.1c-0.23,0-0.41,0.15-0.55,0.46
		c-0.11,0.23-0.16,0.49-0.16,0.75c0,0.58,0.18,1,0.54,1.27c0.32,0.24,0.77,0.36,1.35,0.36c0.32,0,0.64,0.01,0.97,0.01
		c0.33,0,0.65,0.01,0.97,0c0.07,0,0.29,0.04,0.66,0.1c0.14,0.03,0.27,0.04,0.38,0.04c0.09,0,0.18-0.05,0.26-0.15
		c0.08-0.1,0.12-0.2,0.12-0.3L52.44,85.98z M51.88,82.02c-0.17-0.11-0.44-0.25-0.8-0.43c0.05,0,0.16,0.01,0.33,0.02
		c0.17,0.02,0.31,0.02,0.41,0.02c0.21,0,0.38-0.03,0.49-0.08c0.14-0.07,0.22-0.18,0.22-0.34c0-0.1-0.03-0.21-0.08-0.31
		c-0.05-0.11-0.12-0.16-0.22-0.16c-0.04,0-0.12,0.02-0.25,0.04s-0.23,0.04-0.3,0.04c-0.23,0-0.55-0.02-0.94-0.05
		c-0.78-0.07-1.3-0.11-1.56-0.11c-0.16,0-0.3,0.03-0.42,0.08c-0.12,0.05-0.18,0.14-0.18,0.28c0,0.09,0.03,0.18,0.08,0.27l0.21,0.13
		c0.35,0,0.77,0.09,1.25,0.28c0.48,0.19,0.81,0.41,0.97,0.67c0,0.06-0.13,0.1-0.4,0.12c-0.07,0.01-0.22,0.01-0.45,0.01
		c-0.15,0-0.37-0.02-0.66-0.07c-0.29-0.05-0.5-0.07-0.63-0.07c-0.09,0-0.17,0.05-0.24,0.14c-0.07,0.09-0.1,0.19-0.1,0.28
		c0,0.21,0.22,0.36,0.65,0.44c0.26,0.05,0.62,0.07,1.1,0.07l0.32,0c0.42,0,0.75-0.03,1.02-0.08c0.47-0.1,0.7-0.27,0.7-0.53
		C52.42,82.48,52.24,82.26,51.88,82.02z M53.59,79.32c-0.06-0.1-0.15-0.15-0.25-0.15c-0.14,0-0.25,0.06-0.33,0.18
		c-0.08,0.12-0.12,0.26-0.12,0.41c0,0.12,0.03,0.23,0.1,0.32c0.06,0.09,0.16,0.13,0.27,0.13c0.13,0,0.24-0.06,0.31-0.19
		c0.07-0.12,0.11-0.25,0.11-0.39C53.68,79.53,53.65,79.43,53.59,79.32z M48.7,79.83l0.21,0.12c0.05,0,0.21-0.02,0.46-0.06
		c0.11-0.02,0.2-0.03,0.28-0.03c0.29,0,0.71,0.03,1.27,0.08c0.56,0.06,0.95,0.09,1.18,0.09c0.12,0,0.2-0.04,0.26-0.11
		c0.05-0.07,0.08-0.17,0.08-0.29c0-0.11-0.02-0.22-0.07-0.33s-0.12-0.16-0.22-0.16L52,79.17l-0.15,0.02c-0.28,0-0.7-0.02-1.25-0.06
		c-0.55-0.04-0.96-0.06-1.23-0.06c-0.21,0-0.38,0.03-0.5,0.1c-0.17,0.09-0.25,0.22-0.25,0.41C48.62,79.67,48.64,79.75,48.7,79.83z
		 M52.11,77.69c-0.09-0.18-0.22-0.35-0.39-0.54c0.01,0,0.07,0,0.2,0.01c0.13,0.01,0.21,0.02,0.26,0.02c0.12,0,0.21-0.03,0.27-0.08
		c0.06-0.05,0.1-0.15,0.1-0.29c0-0.11-0.03-0.21-0.08-0.31c-0.05-0.1-0.12-0.15-0.22-0.15c-0.04,0-0.39,0-1.04-0.01
		c-0.65-0.01-1.11-0.01-1.39-0.01h-0.19c-0.21,0-0.38,0.01-0.51,0.03c-0.35,0.06-0.53,0.21-0.53,0.44c0,0.1,0.03,0.19,0.08,0.3
		c0.06,0.1,0.13,0.15,0.22,0.15c0.06,0,0.19-0.02,0.37-0.06c0.18-0.04,0.32-0.06,0.42-0.06c0.39,0,0.75,0.07,1.08,0.21
		c0.43,0.18,0.65,0.44,0.65,0.78l-0.02,0.13l-0.02,0.13c0,0.12,0.06,0.22,0.16,0.31c0.11,0.09,0.23,0.13,0.36,0.13
		c0.13,0,0.22-0.05,0.29-0.14c0.06-0.09,0.1-0.21,0.1-0.34C52.27,78.12,52.21,77.9,52.11,77.69z M50.96,74.46
		c-0.2-0.2-0.36-0.41-0.47-0.61c0.23,0.07,0.48,0.19,0.74,0.34c0.33,0.2,0.5,0.38,0.5,0.54l-0.12,0.1
		C51.42,74.83,51.21,74.7,50.96,74.46z M49.71,73.72c0.11,0.46,0.33,0.87,0.64,1.21c0.36,0.39,0.75,0.58,1.19,0.58
		c0.23,0,0.44-0.07,0.6-0.21c0.17-0.14,0.25-0.33,0.25-0.56c0-0.46-0.32-0.88-0.96-1.27c-0.57-0.35-1.11-0.53-1.6-0.52
		c-0.38,0-0.68,0.13-0.91,0.38c-0.23,0.25-0.34,0.57-0.34,0.95c0,0.35,0.13,0.7,0.4,1.06c0.28,0.39,0.59,0.58,0.92,0.58
		c0.12,0,0.22-0.04,0.3-0.13c0.08-0.08,0.12-0.19,0.12-0.3c-0.24-0.18-0.47-0.35-0.71-0.53c-0.21-0.19-0.32-0.44-0.32-0.74
		C49.3,73.94,49.44,73.78,49.71,73.72z M50.95,71.17c-0.2-0.2-0.36-0.41-0.47-0.61c0.23,0.07,0.48,0.19,0.74,0.34
		c0.33,0.2,0.5,0.38,0.5,0.54l-0.12,0.1C51.41,71.54,51.2,71.42,50.95,71.17z M49.7,70.43c0.11,0.46,0.33,0.87,0.64,1.21
		c0.36,0.39,0.75,0.58,1.19,0.58c0.23,0,0.44-0.07,0.6-0.21c0.17-0.14,0.25-0.33,0.25-0.56c0-0.46-0.32-0.88-0.96-1.27
		c-0.57-0.35-1.1-0.53-1.6-0.52c-0.38,0-0.68,0.13-0.91,0.38s-0.34,0.57-0.34,0.95c0,0.35,0.13,0.7,0.39,1.06
		c0.28,0.39,0.59,0.58,0.92,0.58c0.12,0,0.22-0.04,0.3-0.13c0.08-0.08,0.12-0.19,0.12-0.3c-0.23-0.18-0.47-0.35-0.71-0.53
		c-0.21-0.19-0.32-0.44-0.32-0.74C49.29,70.65,49.43,70.49,49.7,70.43z M51.84,67.86c-0.17-0.11-0.44-0.25-0.8-0.43
		c0.05,0,0.16,0.01,0.33,0.02s0.31,0.02,0.41,0.02c0.21,0,0.38-0.03,0.49-0.08c0.14-0.07,0.22-0.18,0.21-0.34
		c0-0.1-0.03-0.21-0.08-0.31c-0.05-0.11-0.12-0.16-0.22-0.16c-0.04,0-0.12,0.02-0.25,0.04s-0.23,0.04-0.3,0.04
		c-0.23,0-0.55-0.02-0.94-0.05c-0.78-0.07-1.3-0.11-1.56-0.11c-0.16,0-0.3,0.03-0.42,0.08c-0.12,0.05-0.18,0.14-0.18,0.28
		c0,0.09,0.03,0.18,0.08,0.27l0.21,0.13c0.35,0,0.77,0.09,1.25,0.28c0.48,0.19,0.81,0.41,0.97,0.67c0,0.06-0.13,0.1-0.4,0.12
		c-0.07,0.01-0.22,0.01-0.45,0.01c-0.15,0-0.37-0.02-0.66-0.07c-0.29-0.05-0.5-0.07-0.63-0.07c-0.09,0-0.17,0.05-0.24,0.14
		c-0.07,0.09-0.1,0.19-0.1,0.28c0,0.21,0.22,0.36,0.65,0.44c0.26,0.05,0.62,0.07,1.1,0.07l0.32,0c0.42,0,0.75-0.03,1.02-0.08
		c0.47-0.1,0.7-0.27,0.7-0.53C52.38,68.32,52.2,68.1,51.84,67.86z M53.55,65.17c-0.06-0.1-0.15-0.15-0.25-0.15
		c-0.14,0-0.25,0.06-0.33,0.18c-0.08,0.12-0.12,0.26-0.12,0.41c0,0.12,0.03,0.23,0.1,0.32c0.06,0.09,0.15,0.13,0.27,0.13
		c0.13,0,0.24-0.06,0.31-0.19c0.07-0.12,0.11-0.25,0.11-0.39C53.64,65.37,53.61,65.27,53.55,65.17z M48.66,65.67l0.21,0.12
		c0.05,0,0.21-0.02,0.46-0.06c0.11-0.02,0.2-0.03,0.28-0.03c0.29,0,0.71,0.03,1.27,0.08c0.56,0.06,0.96,0.09,1.18,0.09
		c0.12,0,0.2-0.04,0.26-0.11s0.08-0.17,0.08-0.29c0-0.11-0.02-0.22-0.07-0.33s-0.12-0.16-0.22-0.16l-0.15,0.02l-0.15,0.02
		c-0.28,0-0.7-0.02-1.25-0.06c-0.55-0.04-0.96-0.06-1.23-0.06c-0.21,0-0.38,0.03-0.5,0.1c-0.17,0.09-0.25,0.22-0.25,0.41
		C48.58,65.51,48.61,65.59,48.66,65.67z M51.51,63.43c-0.08,0.02-0.21,0.03-0.38,0.03c-0.28,0-0.6-0.07-0.97-0.2
		c-0.45-0.17-0.68-0.36-0.68-0.57c0-0.11,0.06-0.19,0.18-0.23c0.06-0.02,0.17-0.03,0.31-0.03c0.27,0,0.61,0.07,1.02,0.2
		c0.5,0.16,0.75,0.34,0.75,0.55C51.75,63.31,51.67,63.39,51.51,63.43z M52.38,63.78l-0.12-0.13c0.14-0.16,0.22-0.34,0.21-0.55
		c0-0.44-0.32-0.81-0.95-1.1c-0.52-0.24-1.03-0.37-1.52-0.36c-0.34,0-0.63,0.08-0.9,0.23c-0.31,0.18-0.46,0.42-0.46,0.74
		c0,0.19,0.07,0.36,0.21,0.51c0.1,0.11,0.26,0.23,0.46,0.34l-0.36,0.01c-0.27,0-0.5-0.07-0.7-0.2c-0.22-0.15-0.34-0.35-0.34-0.61
		c0-0.17,0.04-0.32,0.13-0.47s0.19-0.29,0.3-0.44c0-0.1-0.05-0.18-0.16-0.25c-0.1-0.07-0.2-0.1-0.3-0.1c-0.23,0-0.41,0.15-0.55,0.46
		c-0.11,0.23-0.16,0.49-0.16,0.75c0,0.58,0.18,1,0.54,1.27c0.32,0.24,0.77,0.36,1.35,0.36c0.32,0,0.64,0.01,0.97,0.01
		c0.33,0,0.65,0.01,0.97,0c0.07,0,0.29,0.04,0.66,0.1c0.14,0.03,0.27,0.04,0.38,0.04c0.09,0,0.18-0.05,0.26-0.15
		c0.08-0.1,0.12-0.2,0.12-0.3L52.38,63.78z M51.82,59.81c-0.17-0.11-0.44-0.25-0.8-0.43c0.05,0,0.16,0.01,0.33,0.02
		s0.31,0.02,0.41,0.02c0.21,0,0.38-0.03,0.49-0.08c0.14-0.07,0.22-0.18,0.22-0.34c0-0.1-0.03-0.21-0.08-0.31
		c-0.05-0.11-0.12-0.16-0.22-0.16c-0.04,0-0.12,0.02-0.25,0.04s-0.23,0.04-0.3,0.04c-0.23,0-0.55-0.02-0.94-0.05
		c-0.78-0.07-1.3-0.11-1.56-0.11c-0.16,0-0.3,0.03-0.42,0.08c-0.12,0.05-0.18,0.14-0.18,0.28c0,0.09,0.03,0.18,0.08,0.27l0.21,0.13
		c0.35,0,0.77,0.09,1.25,0.28c0.48,0.19,0.81,0.41,0.97,0.67c0,0.06-0.13,0.1-0.4,0.12c-0.07,0.01-0.22,0.01-0.45,0.01
		c-0.15,0-0.37-0.02-0.66-0.07c-0.29-0.05-0.5-0.07-0.63-0.07c-0.09,0-0.17,0.05-0.24,0.14c-0.07,0.09-0.1,0.19-0.1,0.28
		c0,0.21,0.22,0.36,0.65,0.44c0.26,0.05,0.62,0.07,1.1,0.07l0.32,0c0.42,0,0.75-0.03,1.02-0.08c0.47-0.1,0.7-0.27,0.7-0.53
		C52.36,60.27,52.18,60.05,51.82,59.81z M50.08,55.85c0.17,0.01,0.29,0.01,0.36,0.01c0,0.1,0.01,0.26,0.03,0.47
		c0.02,0.21,0.02,0.37,0.03,0.48c0,0.2-0.02,0.41-0.07,0.62c0.06,0.19,0.19,0.28,0.4,0.28c0.21,0,0.35-0.13,0.42-0.39
		c0.03-0.12,0.05-0.34,0.05-0.65c0-0.09-0.01-0.21-0.02-0.38c-0.01-0.17-0.02-0.29-0.02-0.38c0.18,0,0.47,0.02,0.88,0.05
		c0.41,0.04,0.67,0.08,0.79,0.12c0.06,0.08,0.1,0.17,0.12,0.28c0.02,0.11,0.03,0.24,0.03,0.39l-0.01,0.18l0,0.17
		c0,0.14,0,0.26-0.01,0.34l-0.06,0.24c-0.03,0.07,0.01,0.14,0.12,0.21s0.21,0.1,0.28,0.1c0.18,0,0.31-0.08,0.38-0.24
		c0.07-0.16,0.11-0.45,0.11-0.88c0-0.42-0.02-0.75-0.06-0.99c-0.08-0.49-0.23-0.74-0.46-0.74l-0.16,0.04l-0.16,0.07
		c-0.32-0.05-0.65-0.09-0.98-0.14c-0.33-0.05-0.65-0.07-0.94-0.07l-0.12-0.17l-0.17-0.06l-0.24,0.06c-0.05,0.02-0.12,0.06-0.21,0.13
		c-0.16-0.01-0.3-0.02-0.43-0.03c-0.13-0.01-0.27-0.01-0.44-0.01c-0.29,0-0.53,0.03-0.71,0.08s-0.27,0.16-0.27,0.3
		c0,0.06,0.02,0.39,0.07,0.99c0.02,0.2,0.03,0.4,0.03,0.6c0,0.04-0.02,0.22-0.07,0.52c-0.02,0.1-0.02,0.2-0.02,0.3l0.06,0.13
		l0.17,0.1l0.19,0.04c0.21,0,0.35-0.12,0.42-0.34c0.04-0.13,0.06-0.33,0.06-0.59c-0.01-0.13-0.02-0.25-0.02-0.37
		c-0.01-0.12-0.01-0.23-0.01-0.34c0-0.04,0-0.12,0.02-0.26c0.01-0.14,0.03-0.22,0.06-0.26c0.11-0.03,0.21-0.04,0.31-0.04
		C49.82,55.83,49.91,55.83,50.08,55.85z M51.8,50.89c-0.17-0.11-0.44-0.25-0.8-0.43c0.05,0,0.16,0.01,0.33,0.02
		c0.17,0.02,0.31,0.02,0.41,0.02c0.21,0,0.38-0.03,0.49-0.08c0.14-0.07,0.22-0.18,0.21-0.34c0-0.1-0.03-0.21-0.08-0.31
		c-0.05-0.11-0.12-0.16-0.22-0.16c-0.04,0-0.12,0.02-0.25,0.04s-0.23,0.04-0.3,0.04c-0.23,0-0.55-0.02-0.94-0.05
		c-0.78-0.07-1.3-0.11-1.56-0.11c-0.16,0-0.3,0.03-0.42,0.08c-0.12,0.05-0.18,0.14-0.17,0.28c0,0.09,0.03,0.18,0.08,0.27l0.21,0.13
		c0.35,0,0.77,0.09,1.25,0.28c0.48,0.19,0.81,0.41,0.97,0.67c0,0.06-0.13,0.1-0.4,0.12c-0.07,0.01-0.22,0.01-0.45,0.01
		c-0.15,0-0.37-0.02-0.66-0.07c-0.29-0.05-0.5-0.07-0.63-0.07c-0.09,0-0.17,0.05-0.24,0.14c-0.07,0.09-0.1,0.19-0.1,0.28
		c0,0.21,0.22,0.36,0.65,0.44c0.26,0.05,0.62,0.07,1.1,0.07l0.32,0c0.42,0,0.75-0.03,1.02-0.08c0.47-0.1,0.7-0.27,0.7-0.53
		C52.33,51.35,52.16,51.13,51.8,50.89z M50.89,47.69c-0.2-0.2-0.36-0.41-0.47-0.61c0.23,0.07,0.48,0.19,0.74,0.34
		c0.33,0.2,0.5,0.38,0.5,0.54l-0.12,0.1C51.35,48.06,51.14,47.94,50.89,47.69z M49.64,46.95c0.11,0.46,0.33,0.87,0.64,1.21
		c0.36,0.39,0.75,0.58,1.19,0.58c0.23,0,0.44-0.07,0.6-0.21c0.17-0.14,0.25-0.33,0.25-0.56c0-0.46-0.32-0.88-0.96-1.27
		c-0.57-0.35-1.1-0.53-1.6-0.52c-0.38,0-0.68,0.13-0.91,0.38s-0.34,0.57-0.34,0.95c0,0.35,0.13,0.7,0.39,1.06
		c0.28,0.39,0.59,0.58,0.92,0.58c0.12,0,0.22-0.04,0.3-0.13c0.08-0.08,0.12-0.19,0.12-0.3c-0.23-0.18-0.47-0.35-0.71-0.53
		c-0.21-0.19-0.32-0.44-0.32-0.74C49.23,47.17,49.37,47.01,49.64,46.95z M51.19,44.9c-0.35-0.14-0.79-0.29-1.31-0.45
		c0.34-0.11,0.67-0.21,1.01-0.28c0.43-0.1,0.77-0.15,1.02-0.15c0.11,0,0.19-0.05,0.25-0.14l0.08-0.16l0.02-0.19
		c0-0.12-0.03-0.22-0.08-0.3s-0.13-0.12-0.24-0.12c-0.07,0-0.38,0.07-0.93,0.22c-0.54,0.15-1.05,0.3-1.52,0.45
		c-0.53,0.17-0.82,0.29-0.87,0.34l-0.09,0.16l-0.02,0.2c0,0.12,0.02,0.23,0.07,0.31c0.05,0.09,0.13,0.14,0.24,0.15
		c0.38,0.05,0.83,0.18,1.36,0.37c0.53,0.2,0.97,0.4,1.33,0.6l0.14,0.09l0.14,0.04c0.12,0,0.21-0.05,0.29-0.14
		c0.07-0.1,0.11-0.2,0.11-0.32C52.18,45.41,51.85,45.17,51.19,44.9z M53.49,41.98c-0.06-0.1-0.15-0.15-0.25-0.15
		c-0.14,0-0.25,0.06-0.33,0.18c-0.08,0.12-0.12,0.26-0.12,0.41c0,0.12,0.03,0.23,0.1,0.32c0.06,0.09,0.15,0.13,0.27,0.13
		c0.13,0,0.24-0.06,0.31-0.19c0.07-0.12,0.11-0.25,0.11-0.39C53.58,42.19,53.55,42.08,53.49,41.98z M48.6,42.49l0.21,0.12
		c0.05,0,0.21-0.02,0.46-0.06c0.11-0.02,0.2-0.03,0.28-0.03c0.29,0,0.71,0.03,1.27,0.08c0.56,0.06,0.95,0.09,1.18,0.09
		c0.12,0,0.2-0.04,0.26-0.11s0.08-0.17,0.08-0.29c0-0.11-0.02-0.22-0.07-0.33s-0.12-0.16-0.22-0.16l-0.15,0.02l-0.15,0.02
		c-0.28,0-0.7-0.02-1.25-0.06c-0.55-0.04-0.96-0.06-1.23-0.06c-0.21,0-0.38,0.03-0.5,0.1c-0.17,0.09-0.25,0.22-0.25,0.41
		C48.52,42.32,48.55,42.41,48.6,42.49z M52.01,40.34c-0.09-0.18-0.22-0.35-0.39-0.54c0.01,0,0.07,0,0.2,0.01
		c0.13,0.01,0.21,0.02,0.26,0.02c0.12,0,0.21-0.03,0.27-0.08c0.06-0.05,0.1-0.15,0.1-0.29c0-0.11-0.03-0.21-0.08-0.31
		c-0.05-0.1-0.12-0.15-0.22-0.15c-0.04,0-0.39,0-1.04-0.01c-0.65-0.01-1.11-0.01-1.39-0.01h-0.19c-0.21,0-0.38,0.01-0.51,0.03
		c-0.35,0.06-0.53,0.21-0.53,0.44c0,0.1,0.03,0.19,0.08,0.3c0.06,0.1,0.13,0.15,0.22,0.15c0.06,0,0.19-0.02,0.37-0.06
		c0.18-0.04,0.32-0.06,0.42-0.06c0.39,0,0.75,0.07,1.08,0.21c0.43,0.18,0.65,0.44,0.65,0.78l-0.02,0.13l-0.02,0.13
		c0,0.12,0.06,0.22,0.16,0.31c0.11,0.09,0.23,0.13,0.36,0.13c0.13,0,0.22-0.05,0.29-0.14c0.06-0.09,0.1-0.21,0.1-0.34
		C52.17,40.77,52.12,40.56,52.01,40.34z M49.86,37.17c-0.31-0.31-0.47-0.68-0.47-1.12c1.19,0,2.36,0.07,3.5,0.21
		c-0.17,0.4-0.43,0.72-0.77,0.98c-0.34,0.26-0.72,0.39-1.14,0.39C50.54,37.64,50.17,37.48,49.86,37.17z M53.34,35.29l-0.16,0.15
		c-0.65-0.06-1.28-0.11-1.89-0.14s-1.21-0.05-1.78-0.05l-0.17,0c-0.25,0-0.45,0.03-0.58,0.07c-0.2,0.07-0.3,0.2-0.3,0.39
		c0.04,0.17,0.09,0.34,0.13,0.52c0.07,0.63,0.32,1.16,0.77,1.57c0.45,0.41,0.99,0.62,1.62,0.62c0.69,0,1.36-0.29,1.99-0.85
		c0.65-0.58,0.97-1.22,0.97-1.92c0-0.12-0.04-0.23-0.1-0.31c-0.07-0.09-0.17-0.13-0.29-0.13L53.34,35.29z M50.74,33.08
		c-0.06-0.21-0.17-0.32-0.3-0.32l-0.24,0.06l-0.12,0.17c0,0.01,0.02,0.14,0.06,0.38c0.02,0.1,0.02,0.19,0.02,0.26
		c0,0.1-0.02,0.24-0.06,0.42c-0.04,0.18-0.06,0.29-0.06,0.33l0.09,0.16l0.21,0.06c0.2,0,0.33-0.13,0.4-0.39
		c0.04-0.14,0.06-0.35,0.05-0.63C50.8,33.38,50.78,33.22,50.74,33.08z M48.57,31.97c0.06,0.09,0.13,0.13,0.22,0.13
		c0.06,0,0.25-0.02,0.54-0.07c0.13-0.02,0.25-0.03,0.34-0.03c0.88,0,1.78,0.04,2.7,0.13c0.16,0.02,0.33,0.04,0.51,0.07
		c0.18,0.02,0.33,0.04,0.44,0.04c0.12,0,0.21-0.04,0.27-0.11c0.06-0.07,0.09-0.17,0.09-0.28c0-0.1-0.03-0.21-0.09-0.33
		c-0.06-0.12-0.13-0.17-0.22-0.17l-0.18,0.03l-0.17,0.03c-0.3,0-0.69-0.01-1.17-0.05c-0.48-0.03-0.94-0.06-1.37-0.1
		s-0.85-0.05-1.22-0.04c-0.21,0-0.38,0.03-0.51,0.1c-0.18,0.09-0.26,0.22-0.26,0.41C48.48,31.79,48.51,31.88,48.57,31.97z
		 M50.85,29.26c-0.2-0.2-0.36-0.41-0.47-0.61c0.23,0.07,0.48,0.19,0.74,0.34c0.33,0.2,0.5,0.38,0.5,0.54l-0.12,0.1
		C51.31,29.63,51.09,29.5,50.85,29.26z M49.6,28.52c0.11,0.46,0.33,0.87,0.64,1.21c0.36,0.39,0.75,0.58,1.19,0.58
		c0.23,0,0.44-0.07,0.6-0.21c0.17-0.14,0.25-0.33,0.25-0.56c0-0.46-0.32-0.88-0.96-1.27c-0.57-0.35-1.11-0.53-1.6-0.52
		c-0.38,0-0.68,0.13-0.91,0.38s-0.34,0.57-0.34,0.95c0,0.35,0.13,0.7,0.39,1.06c0.28,0.39,0.59,0.58,0.92,0.58
		c0.12,0,0.22-0.04,0.3-0.13s0.12-0.19,0.12-0.3c-0.24-0.18-0.47-0.35-0.71-0.53c-0.21-0.19-0.32-0.44-0.32-0.74
		C49.18,28.74,49.32,28.58,49.6,28.52z M51.33,26.23c-0.09,0.03-0.22,0.04-0.38,0.04c-0.28,0-0.62-0.08-1.04-0.23
		c-0.5-0.18-0.74-0.39-0.75-0.61c0-0.1,0.05-0.16,0.16-0.19c0.11-0.03,0.22-0.04,0.34-0.04c0.29,0,0.66,0.07,1.11,0.21
		c0.53,0.16,0.8,0.35,0.8,0.56C51.57,26.1,51.49,26.19,51.33,26.23z M52.62,26.56c-0.23-0.02-0.42-0.04-0.59-0.07
		c0.1-0.09,0.18-0.19,0.23-0.29c0.05-0.1,0.08-0.21,0.08-0.32c0-0.43-0.33-0.8-0.99-1.09c-0.54-0.24-1.06-0.37-1.55-0.36
		c-0.35,0-0.65,0.08-0.9,0.24c-0.29,0.18-0.44,0.44-0.44,0.76c0,0.23,0.09,0.45,0.27,0.65c0.14,0.17,0.33,0.3,0.57,0.42
		c-0.29,0.03-0.48,0.08-0.58,0.15c-0.1,0.07-0.15,0.17-0.15,0.31c0,0.08,0.03,0.17,0.09,0.26s0.13,0.14,0.2,0.14
		c0.12,0,0.3-0.02,0.52-0.06c0.44-0.08,0.74-0.11,0.9-0.12c0.25,0,0.83,0.06,1.77,0.18c0.41,0.05,0.75,0.08,1.03,0.08
		c0.13,0,0.23-0.04,0.3-0.13c0.07-0.09,0.11-0.2,0.11-0.32c0-0.11-0.02-0.2-0.06-0.27c-0.04-0.07-0.11-0.11-0.21-0.11
		C53.05,26.59,52.85,26.58,52.62,26.56z M50.44,22.13c0.21,0.04,0.44,0.11,0.69,0.19c-0.03,0.06,0.04,0.14,0.21,0.23
		c0.17,0.09,0.25,0.2,0.25,0.35c0,0.14-0.08,0.24-0.25,0.3c-0.11,0.04-0.25,0.06-0.42,0.06c-0.33,0-0.68-0.06-1.06-0.18
		c-0.48-0.16-0.72-0.37-0.72-0.63c0-0.12,0.05-0.21,0.14-0.28s0.26-0.1,0.48-0.1C50.01,22.06,50.23,22.08,50.44,22.13z M52.16,22.62
		c0.08-0.07,0.13-0.16,0.13-0.26c0-0.3-0.34-0.56-1.02-0.78c-0.54-0.17-1.01-0.26-1.4-0.26c-0.41,0-0.74,0.09-1,0.28
		c-0.28,0.2-0.42,0.5-0.42,0.9c0,0.52,0.29,0.92,0.86,1.2c0.45,0.22,0.96,0.33,1.54,0.33c0.37,0,0.69-0.07,0.96-0.22
		c0.33-0.18,0.5-0.44,0.49-0.78C52.3,22.88,52.25,22.75,52.16,22.62z M52.78,19.32c-0.28-0.21-0.72-0.51-1.32-0.9
		c0.38-0.17,0.68-0.29,0.89-0.37c0.33-0.12,0.63-0.22,0.91-0.29l0.12-0.03l0.1-0.03c0.22-0.16,0.34-0.37,0.33-0.62
		c0-0.22-0.18-0.39-0.54-0.51c-0.29-0.1-0.63-0.16-1.02-0.19c-0.38-0.03-0.84-0.04-1.36-0.04l-0.47,0
		c-0.09-0.01-0.19-0.01-0.29-0.01c-0.1,0-0.21,0-0.33,0c-0.4,0-0.71,0.03-0.92,0.09c-0.3,0.09-0.46,0.23-0.45,0.44
		c0,0.1,0.03,0.2,0.08,0.3s0.13,0.16,0.22,0.16c0.1,0,0.38-0.03,0.85-0.1c0.19-0.03,0.36-0.04,0.51-0.04c0.65,0,1.29,0.03,1.93,0.09
		c-0.29,0.09-0.58,0.19-0.87,0.28c-0.8,0.28-1.2,0.58-1.2,0.91l0.02,0.09L50,18.66c0.17,0.06,0.34,0.12,0.52,0.17
		c0.2,0.09,0.46,0.24,0.78,0.46c0.24,0.16,0.48,0.34,0.74,0.53c-0.18,0-0.48-0.01-0.91-0.03c-0.75-0.04-1.26-0.05-1.51-0.05
		l-0.18-0.01l-0.18,0c-0.25,0-0.43,0.03-0.55,0.09c-0.17,0.08-0.26,0.22-0.25,0.43c0,0.1,0.03,0.19,0.08,0.3
		c0.06,0.1,0.13,0.15,0.21,0.15c0.07,0,0.19-0.01,0.36-0.03c0.3-0.04,0.5-0.06,0.6-0.06c0.67,0,1.32,0.02,1.94,0.06
		c0.62,0.04,1.21,0.12,1.78,0.24c0.12-0.05,0.22-0.12,0.28-0.2c0.06-0.08,0.1-0.19,0.1-0.33C53.8,20.18,53.46,19.82,52.78,19.32z"/>
	
		<rect x="56.51" y="7.87" transform="matrix(1 -2.685947e-003 2.685947e-003 1 -0.1307 0.1734)" fill="#385358" width="16" height="81.73"/>
	
		<rect x="58.31" y="71.44" transform="matrix(1 -2.676359e-003 2.676359e-003 1 -0.2025 0.172)" fill="#5E6474" width="11.68" height="8.65"/>
	<path fill="#AAA875" d="M65.36,36.53c-0.2-0.45-0.3-0.91-0.31-1.36l0.26,0l0.2,0l0.23,0.03c0.19,0.08,0.36,0.29,0.5,0.65
		s0.21,0.68,0.21,0.99c0,0.32-0.09,0.49-0.28,0.49C65.86,37.32,65.59,37.06,65.36,36.53z M67.05,35.2c0.15-0.06,0.29-0.17,0.39-0.31
		c0.11-0.14,0.16-0.31,0.16-0.52c0-0.23-0.06-0.46-0.19-0.69c-0.13-0.23-0.27-0.35-0.41-0.35c-0.17,0.06-0.34,0.13-0.5,0.19
		c-0.17,0.06-0.31,0.09-0.45,0.09c-0.32-0.02-0.61-0.04-0.85-0.06c-0.24-0.02-0.51-0.03-0.82-0.03c-0.7,0-1.23,0.12-1.6,0.36
		c-0.49,0.31-0.74,0.85-0.74,1.6c0,0.5,0.17,1.05,0.51,1.65c0.34,0.6,0.68,0.9,1.02,0.9c0.13,0,0.24-0.07,0.33-0.22
		c0.09-0.15,0.13-0.31,0.13-0.48c0-0.16-0.23-0.48-0.67-0.97c-0.2-0.22-0.3-0.46-0.3-0.74c0-0.2,0.08-0.34,0.24-0.41
		c0.08-0.03,0.22-0.05,0.42-0.05L64,35.19c0.12,0.95,0.36,1.76,0.73,2.44c0.44,0.83,0.97,1.24,1.59,1.24c0.36,0,0.66-0.21,0.88-0.62
		c0.19-0.36,0.29-0.8,0.29-1.33C67.48,36.29,67.33,35.71,67.05,35.2z M63.73,41.24c0.51,0.29,1.15,0.59,1.9,0.9
		c-0.49,0.23-0.97,0.42-1.46,0.57c-0.62,0.2-1.11,0.29-1.48,0.3c-0.15,0-0.27,0.09-0.36,0.28c-0.05,0.11-0.09,0.21-0.11,0.32
		s-0.03,0.23-0.03,0.38c0,0.24,0.04,0.44,0.11,0.6c0.07,0.16,0.19,0.24,0.35,0.24c0.11,0,0.56-0.15,1.34-0.45s1.52-0.6,2.2-0.9
		c0.77-0.35,1.19-0.58,1.26-0.69s0.11-0.22,0.13-0.32c0.02-0.1,0.03-0.24,0.03-0.41c0-0.25-0.03-0.46-0.1-0.63
		c-0.07-0.17-0.18-0.27-0.35-0.31c-0.55-0.11-1.21-0.36-1.97-0.76c-0.76-0.4-1.41-0.81-1.93-1.22c-0.12-0.11-0.18-0.17-0.2-0.18
		l-0.2-0.08c-0.17,0-0.31,0.1-0.42,0.29c-0.11,0.19-0.16,0.41-0.16,0.65C62.29,40.22,62.78,40.69,63.73,41.24z M65.39,48.63
		c-0.2-0.45-0.3-0.91-0.31-1.36l0.25,0l0.2,0l0.23,0.03c0.19,0.08,0.36,0.29,0.5,0.65c0.14,0.36,0.21,0.68,0.21,0.99
		c0,0.32-0.09,0.49-0.28,0.49C65.89,49.42,65.62,49.16,65.39,48.63z M67.08,47.3c0.15-0.07,0.29-0.17,0.39-0.31
		c0.11-0.14,0.16-0.31,0.16-0.52c0-0.23-0.06-0.46-0.19-0.69c-0.13-0.23-0.27-0.35-0.41-0.35c-0.17,0.07-0.34,0.13-0.5,0.19
		c-0.17,0.06-0.31,0.09-0.45,0.09c-0.32-0.02-0.61-0.04-0.85-0.06c-0.24-0.02-0.51-0.03-0.82-0.03c-0.7,0-1.23,0.12-1.6,0.36
		c-0.49,0.31-0.74,0.85-0.74,1.6c0,0.5,0.17,1.05,0.51,1.65c0.34,0.6,0.68,0.9,1.02,0.9c0.13,0,0.24-0.07,0.33-0.22
		c0.09-0.15,0.13-0.3,0.13-0.48c0-0.16-0.23-0.48-0.68-0.97c-0.2-0.21-0.3-0.46-0.3-0.74c0-0.21,0.08-0.34,0.24-0.41
		c0.08-0.03,0.22-0.05,0.42-0.05l0.28,0.02c0.12,0.95,0.36,1.76,0.73,2.44c0.44,0.83,0.97,1.24,1.59,1.24
		c0.36,0,0.66-0.21,0.88-0.62c0.19-0.36,0.29-0.8,0.29-1.33C67.51,48.39,67.37,47.82,67.08,47.3z M65.02,56.69
		c0.12,0.16,0.27,0.24,0.45,0.24c0.52,0,1.03-0.3,1.53-0.89c0.5-0.59,0.76-1.25,0.75-1.96c0-0.7-0.27-1.25-0.8-1.65
		c-0.42-0.31-1.01-0.53-1.78-0.64c-0.49-0.07-1.11-0.11-1.87-0.11l-0.74,0c-0.05,0-0.18,0-0.38-0.02s-0.36-0.02-0.49-0.02
		c-0.53,0-0.94,0.07-1.24,0.21c-0.4,0.19-0.6,0.52-0.6,0.99c0,0.23,0.02,0.43,0.07,0.6s0.13,0.3,0.25,0.37
		c0.51-0.2,1-0.32,1.47-0.38c0.47-0.06,1.06-0.08,1.77-0.09l0.44,0c0.48,0,0.9,0.02,1.25,0.06c0.96,0.12,1.44,0.4,1.44,0.84
		c0,0.29-0.15,0.55-0.44,0.77c-0.29,0.22-0.56,0.33-0.79,0.33c-0.32,0-0.49,0.23-0.49,0.68C64.84,56.31,64.9,56.53,65.02,56.69z"/>
	<polygon fill="#A4733A" points="107.68,4.69 124.37,3.06 132.6,87.83 115.91,89.47 	"/>
	<path fill="#781113" d="M117.09,29.36c0.04-0.14,0.04-0.38,0.01-0.73c0.06-0.01,0.56-0.03,1.5-0.08c0.27-0.01,0.57-0.04,0.9-0.07
		c0.7-0.08,1.19-0.19,1.46-0.36c0.27-0.16,0.39-0.39,0.36-0.68c-0.01-0.14-0.06-0.25-0.13-0.34s-0.18-0.15-0.31-0.17
		c-0.27,0.1-0.54,0.18-0.8,0.24c-0.26,0.06-0.57,0.1-0.91,0.14c-0.18,0.02-0.66,0.05-1.43,0.09c-0.3,0.02-0.59,0.04-0.86,0.07
		l-0.1-0.57c-0.01-0.07-0.01-0.17-0.02-0.3l-0.04-0.19c-0.14-0.04-0.28-0.07-0.41-0.09c-0.13-0.02-0.26-0.02-0.39-0.01
		c-0.25,0.03-0.37,0.17-0.34,0.42c0.01,0.11,0.03,0.24,0.06,0.37c0.03,0.14,0.06,0.27,0.09,0.41c-0.02,0-0.21,0-0.57,0.01
		c-0.09,0-0.2,0.01-0.33,0.02c-0.23,0.02-0.41,0.09-0.54,0.2s-0.18,0.29-0.15,0.55c0.01,0.14,0.06,0.26,0.14,0.38
		c0.08,0.12,0.17,0.17,0.29,0.15c0.05,0,0.33-0.05,0.85-0.14c0.13-0.02,0.3-0.04,0.51-0.07l0.04,0.24c0.02,0.14,0.02,0.28,0.02,0.4
		c0,0.12-0.01,0.23-0.02,0.32c0.05,0.08,0.13,0.14,0.23,0.16c0.1,0.03,0.21,0.03,0.32,0.02C116.84,29.73,117.02,29.6,117.09,29.36z
		 M118.34,32.67c-0.82-0.14-1.25-0.39-1.29-0.76c-0.02-0.17,0.12-0.32,0.41-0.43c0.18-0.07,0.39-0.11,0.62-0.14
		c0.49-0.05,1.01-0.02,1.58,0.1c0.73,0.15,1.12,0.4,1.16,0.77c0.02,0.18-0.07,0.32-0.27,0.42c-0.11,0.05-0.28,0.09-0.51,0.12
		C119.54,32.8,118.97,32.78,118.34,32.67z M116.13,32.25c0.11,0.18,0.25,0.34,0.42,0.47c-0.18,0.08-0.3,0.16-0.38,0.25
		c-0.1,0.12-0.14,0.26-0.12,0.42c0.01,0.13,0.08,0.27,0.18,0.43s0.22,0.23,0.34,0.22c0.43-0.05,1.54-0.09,3.33-0.13
		c0.75-0.02,1.43-0.06,2.02-0.12c0.1,0,0.2-0.01,0.3-0.02c0.11-0.01,0.22-0.02,0.34-0.04c0.72-0.08,1.23-0.22,1.51-0.43
		c0.24-0.17,0.34-0.4,0.31-0.68c-0.01-0.13-0.06-0.25-0.14-0.35s-0.18-0.16-0.3-0.14c-0.05,0-0.37,0.09-0.96,0.27
		c-0.25,0.08-0.47,0.12-0.67,0.14l-0.59,0.05c0.08-0.13,0.12-0.25,0.13-0.38c0.01-0.12,0.01-0.27,0-0.44
		c-0.08-0.72-0.59-1.22-1.53-1.53c-0.72-0.23-1.5-0.3-2.32-0.21c-0.54,0.06-1.01,0.2-1.4,0.44c-0.51,0.3-0.73,0.7-0.68,1.18
		C115.95,31.87,116.02,32.07,116.13,32.25z M114.78,36.52c0.11,0.14,0.24,0.2,0.4,0.19c0.21-0.02,0.36-0.13,0.46-0.33
		c0.1-0.2,0.14-0.41,0.11-0.63c-0.02-0.18-0.08-0.33-0.19-0.46c-0.11-0.12-0.25-0.17-0.43-0.15c-0.2,0.02-0.34,0.13-0.44,0.32
		s-0.13,0.4-0.1,0.6C114.61,36.23,114.67,36.38,114.78,36.52z M121.99,35c-0.1-0.11-0.21-0.16-0.33-0.14
		c-0.08,0.01-0.3,0.06-0.67,0.16c-0.16,0.04-0.29,0.07-0.41,0.08c-0.43,0.05-1.07,0.07-1.91,0.07c-0.84,0-1.44,0.02-1.78,0.06
		c-0.17,0.02-0.3,0.09-0.37,0.2c-0.07,0.12-0.09,0.27-0.07,0.45c0.02,0.17,0.07,0.33,0.16,0.48s0.21,0.22,0.35,0.21
		c0.05,0,0.12-0.02,0.22-0.06c0.1-0.04,0.17-0.05,0.22-0.06c0.42-0.05,1.05-0.08,1.87-0.11c0.83-0.02,1.44-0.06,1.85-0.1
		c0.32-0.03,0.56-0.11,0.74-0.22c0.23-0.15,0.33-0.37,0.3-0.65C122.14,35.23,122.09,35.11,121.99,35z M117.24,38.73
		c0.16,0.25,0.39,0.49,0.67,0.74c-0.01,0-0.11,0-0.29,0.01c-0.19,0-0.32,0.01-0.39,0.02c-0.17,0.02-0.31,0.07-0.39,0.16
		s-0.12,0.24-0.1,0.45c0.02,0.16,0.07,0.31,0.16,0.45c0.09,0.14,0.21,0.2,0.35,0.19c0.06-0.01,0.58-0.05,1.55-0.14
		c0.97-0.09,1.66-0.15,2.07-0.2l0.29-0.03c0.32-0.03,0.57-0.08,0.76-0.13c0.52-0.14,0.75-0.39,0.72-0.74
		c-0.02-0.14-0.07-0.29-0.17-0.43c-0.1-0.14-0.22-0.21-0.35-0.19c-0.09,0.01-0.27,0.06-0.54,0.15c-0.26,0.09-0.47,0.14-0.62,0.16
		c-0.58,0.06-1.13,0.02-1.64-0.14c-0.67-0.2-1.04-0.56-1.09-1.07c0-0.04,0-0.1,0.01-0.2l0.02-0.19c-0.02-0.17-0.12-0.32-0.29-0.43
		c-0.18-0.11-0.36-0.16-0.55-0.14c-0.19,0.02-0.33,0.11-0.41,0.25c-0.08,0.15-0.11,0.32-0.09,0.52
		C116.94,38.11,117.05,38.43,117.24,38.73z M120.44,41.33c-0.12,0.12-0.18,0.26-0.16,0.42c0.02,0.15,0.29,0.34,0.82,0.58
		c0.53,0.23,0.82,0.52,0.85,0.86c0.02,0.19-0.05,0.34-0.22,0.44c-0.17,0.1-0.36,0.17-0.57,0.19c-0.37,0.04-0.83-0.01-1.38-0.14
		c-0.56-0.13-0.94-0.31-1.15-0.54c0.02-0.06,0.13-0.14,0.34-0.24s0.3-0.25,0.28-0.45c-0.02-0.17-0.08-0.3-0.2-0.4
		c-0.12-0.1-0.26-0.14-0.42-0.12c-0.33,0.04-0.61,0.22-0.86,0.55c-0.25,0.33-0.36,0.65-0.32,0.97c0.06,0.52,0.63,0.93,1.71,1.23
		c0.91,0.26,1.68,0.35,2.31,0.28c0.52-0.06,0.92-0.25,1.21-0.58c0.29-0.33,0.41-0.75,0.35-1.26c-0.05-0.45-0.31-0.9-0.78-1.36
		s-0.93-0.67-1.36-0.62C120.71,41.13,120.57,41.2,120.44,41.33z M122.06,50.55c0.17,0.08,0.36,0.11,0.56,0.09
		c0.42-0.04,0.71-0.34,0.87-0.88c0.11-0.38,0.14-0.83,0.09-1.34c-0.08-0.7-0.24-1.3-0.51-1.79c-0.36-0.68-0.84-0.98-1.43-0.92
		c-0.46,0.05-0.85,0.39-1.17,1.03c-0.01,0.02-0.24,0.61-0.67,1.75c-0.24,0.62-0.49,0.95-0.75,0.97c-0.33,0.04-0.76-0.22-1.29-0.77
		c-0.53-0.55-0.82-0.99-0.85-1.32c-0.01-0.11,0.04-0.19,0.14-0.23c0.11-0.04,0.23-0.07,0.38-0.09c0.18-0.02,0.32-0.02,0.42,0.01
		c0.09,0.03,0.26,0.08,0.48,0.16c0.12-0.05,0.22-0.12,0.28-0.22c0.06-0.1,0.09-0.21,0.07-0.34c-0.04-0.36-0.27-0.59-0.69-0.69
		c-0.28-0.07-0.64-0.08-1.08-0.03c-0.42,0.04-0.76,0.15-1.01,0.3c-0.32,0.2-0.47,0.49-0.43,0.87c0.07,0.64,0.53,1.42,1.38,2.33
		c0.89,0.94,1.64,1.38,2.27,1.31c0.61-0.07,1.1-0.41,1.46-1.03c0.17-0.29,0.39-0.85,0.65-1.69c0.19-0.6,0.38-0.91,0.55-0.93
		c0.21-0.02,0.39,0.13,0.52,0.45c0.08,0.19,0.13,0.44,0.16,0.74c0.04,0.38-0.01,0.72-0.16,1.01c-0.15,0.29-0.33,0.57-0.54,0.84
		C121.79,50.34,121.88,50.47,122.06,50.55z M121.81,53.75c-0.24-0.31-0.38-0.63-0.42-0.97l0.26-0.03l0.2-0.02l0.24,0
		c0.21,0.03,0.39,0.17,0.56,0.42c0.17,0.25,0.27,0.48,0.29,0.7c0.03,0.24-0.06,0.37-0.25,0.39
		C122.39,54.28,122.09,54.11,121.81,53.75z M123.45,52.58c0.15-0.07,0.28-0.16,0.38-0.27c0.1-0.12,0.14-0.25,0.13-0.4
		c-0.02-0.17-0.1-0.33-0.25-0.49c-0.15-0.16-0.3-0.23-0.45-0.21c-0.17,0.07-0.34,0.13-0.5,0.19c-0.17,0.06-0.32,0.1-0.45,0.11
		c-0.34,0.02-0.63,0.04-0.88,0.04c-0.25,0.01-0.53,0.04-0.85,0.07c-0.72,0.08-1.26,0.22-1.62,0.44c-0.48,0.29-0.7,0.71-0.64,1.26
		c0.04,0.37,0.26,0.75,0.66,1.16c0.4,0.41,0.77,0.59,1.12,0.55c0.13-0.01,0.24-0.08,0.32-0.2c0.08-0.12,0.11-0.24,0.1-0.37
		c-0.01-0.12-0.27-0.33-0.77-0.64c-0.22-0.14-0.35-0.31-0.37-0.51c-0.02-0.15,0.06-0.26,0.22-0.33c0.08-0.03,0.22-0.06,0.43-0.08
		l0.29-0.02c0.19,0.69,0.51,1.26,0.93,1.72c0.52,0.56,1.1,0.81,1.73,0.74c0.37-0.04,0.66-0.22,0.86-0.55
		c0.17-0.28,0.24-0.62,0.19-1.01C123.98,53.34,123.79,52.93,123.45,52.58z M120.5,57.4c0.55,0.16,1.22,0.31,2.03,0.46
		c-0.48,0.22-0.97,0.41-1.46,0.58c-0.62,0.21-1.12,0.34-1.5,0.38c-0.16,0.02-0.28,0.1-0.35,0.24l-0.09,0.25
		c-0.01,0.08-0.01,0.17,0,0.28c0.02,0.18,0.07,0.32,0.16,0.43c0.09,0.11,0.22,0.16,0.38,0.14c0.11-0.01,0.56-0.17,1.35-0.48
		c0.79-0.31,1.52-0.61,2.2-0.91c0.77-0.34,1.18-0.56,1.24-0.65s0.09-0.18,0.11-0.25s0.01-0.18,0-0.31
		c-0.02-0.18-0.07-0.33-0.15-0.46s-0.21-0.18-0.39-0.19c-0.57-0.02-1.27-0.13-2.08-0.34c-0.82-0.21-1.51-0.44-2.08-0.69
		c-0.13-0.07-0.2-0.1-0.22-0.11l-0.21-0.04c-0.17,0.02-0.31,0.11-0.41,0.26c-0.1,0.16-0.13,0.32-0.12,0.5
		C118.94,56.8,119.47,57.1,120.5,57.4z M122.77,62.67c-0.24-0.31-0.38-0.63-0.42-0.97l0.26-0.03l0.2-0.02l0.24,0
		c0.21,0.03,0.39,0.17,0.56,0.42c0.17,0.25,0.27,0.48,0.29,0.71c0.03,0.24-0.06,0.37-0.25,0.39
		C123.35,63.2,123.05,63.04,122.77,62.67z M124.41,61.51c0.15-0.07,0.28-0.16,0.38-0.27c0.1-0.11,0.14-0.25,0.13-0.4
		c-0.02-0.17-0.1-0.33-0.25-0.49c-0.15-0.16-0.3-0.23-0.45-0.21c-0.17,0.07-0.34,0.13-0.5,0.19s-0.32,0.1-0.45,0.12
		c-0.34,0.02-0.63,0.04-0.88,0.04c-0.25,0.01-0.53,0.03-0.85,0.07c-0.72,0.08-1.25,0.22-1.62,0.44c-0.48,0.29-0.7,0.71-0.64,1.26
		c0.04,0.37,0.26,0.75,0.66,1.16c0.4,0.41,0.77,0.59,1.12,0.55c0.14-0.01,0.24-0.08,0.32-0.2s0.11-0.24,0.1-0.37
		c-0.01-0.12-0.27-0.33-0.77-0.64c-0.22-0.14-0.35-0.31-0.37-0.52c-0.02-0.15,0.06-0.26,0.22-0.32c0.08-0.03,0.22-0.06,0.43-0.08
		l0.29-0.02c0.2,0.69,0.51,1.26,0.93,1.72c0.52,0.57,1.1,0.81,1.73,0.74c0.37-0.04,0.66-0.22,0.86-0.55
		c0.17-0.28,0.23-0.62,0.19-1.01C124.94,62.27,124.75,61.86,124.41,61.51z M123,68.66c0.13,0.11,0.29,0.15,0.48,0.13
		c0.53-0.06,1.04-0.33,1.51-0.83c0.47-0.49,0.68-1,0.63-1.53c-0.06-0.52-0.37-0.89-0.95-1.13c-0.45-0.18-1.08-0.28-1.88-0.28
		c-0.51,0-1.15,0.04-1.93,0.12l-0.76,0.08c-0.05,0.01-0.19,0.02-0.39,0.03s-0.38,0.03-0.5,0.04c-0.54,0.06-0.96,0.16-1.26,0.29
		c-0.4,0.19-0.58,0.45-0.54,0.79c0.02,0.17,0.06,0.31,0.11,0.43c0.06,0.12,0.15,0.21,0.29,0.25c0.51-0.2,1.01-0.34,1.49-0.44
		c0.48-0.09,1.09-0.18,1.82-0.25l0.45-0.05c0.49-0.05,0.92-0.08,1.29-0.09c1-0.02,1.51,0.14,1.55,0.46
		c0.02,0.22-0.11,0.42-0.39,0.62c-0.28,0.2-0.55,0.31-0.79,0.33c-0.33,0.04-0.48,0.22-0.45,0.56C122.8,68.4,122.87,68.55,123,68.66z
		"/>
	<path fill="#486976" d="M103.01,77.05c-0.65,0.22-1.16,0.41-1.54,0.59c-0.38-0.12-0.62-0.19-0.72-0.21
		c-0.29-0.07-0.54-0.11-0.73-0.11c-0.17,0-0.31,0.06-0.42,0.18s-0.18,0.25-0.17,0.4l0.06,0.17l0.14,0.07c0.04,0,0.11-0.01,0.21-0.01
		c0.42,0,1.03,0.13,1.83,0.38c0.58,0.18,1.22,0.42,1.92,0.71c0.59,0.24,0.89,0.37,0.89,0.38c0.11,0,0.2-0.06,0.28-0.17
		c0.08-0.11,0.12-0.22,0.12-0.32c0-0.21-0.31-0.43-0.94-0.68c-0.41-0.14-0.82-0.27-1.22-0.4c0.49-0.2,0.85-0.33,1.09-0.39
		c0.24-0.06,0.45-0.09,0.65-0.09l0.15-0.01l0.12-0.03l0.16-0.17l0.05-0.23c0-0.12-0.03-0.23-0.1-0.31s-0.16-0.13-0.3-0.13
		C104.29,76.66,103.78,76.79,103.01,77.05z M104.6,75.54c-0.09-0.18-0.22-0.35-0.39-0.54c0,0,0.07,0,0.2,0.01
		c0.13,0.01,0.21,0.02,0.26,0.02c0.12,0,0.21-0.03,0.27-0.08c0.06-0.05,0.1-0.15,0.1-0.29c0-0.11-0.03-0.21-0.08-0.31
		s-0.12-0.15-0.22-0.15c-0.04,0-0.39,0-1.04-0.01c-0.65-0.01-1.11-0.01-1.39-0.01h-0.19c-0.21,0-0.38,0.01-0.51,0.03
		c-0.35,0.06-0.53,0.21-0.53,0.44c0,0.1,0.03,0.19,0.08,0.3c0.06,0.1,0.13,0.15,0.22,0.15c0.06,0,0.19-0.02,0.37-0.06
		c0.18-0.04,0.32-0.06,0.42-0.06c0.39,0,0.75,0.07,1.08,0.21c0.43,0.18,0.65,0.44,0.65,0.78l-0.02,0.13l-0.02,0.13
		c0,0.12,0.05,0.22,0.17,0.31c0.11,0.09,0.23,0.13,0.36,0.13c0.13,0,0.22-0.05,0.29-0.14c0.06-0.09,0.1-0.21,0.09-0.34
		C104.76,75.96,104.71,75.75,104.6,75.54z M103.46,72.31c-0.2-0.2-0.36-0.41-0.47-0.61c0.23,0.07,0.48,0.19,0.74,0.34
		c0.33,0.2,0.5,0.38,0.5,0.54l-0.12,0.1C103.92,72.67,103.7,72.55,103.46,72.31z M102.21,71.57c0.11,0.46,0.33,0.87,0.64,1.21
		c0.36,0.39,0.75,0.58,1.19,0.58c0.23,0,0.44-0.07,0.6-0.21c0.17-0.14,0.25-0.33,0.25-0.56c0-0.46-0.32-0.88-0.96-1.27
		c-0.57-0.35-1.11-0.53-1.6-0.52c-0.38,0-0.68,0.13-0.91,0.38c-0.23,0.25-0.34,0.57-0.34,0.95c0,0.35,0.13,0.7,0.39,1.06
		c0.28,0.39,0.59,0.58,0.92,0.58c0.12,0,0.22-0.04,0.29-0.13c0.08-0.08,0.12-0.19,0.12-0.3c-0.23-0.18-0.47-0.35-0.71-0.53
		c-0.21-0.19-0.32-0.44-0.32-0.74C101.79,71.79,101.93,71.63,102.21,71.57z M103.75,69.51c-0.35-0.14-0.79-0.29-1.31-0.45
		c0.34-0.11,0.67-0.21,1.01-0.28c0.43-0.1,0.77-0.15,1.02-0.15c0.11,0,0.19-0.05,0.25-0.14l0.08-0.16l0.02-0.19
		c0-0.12-0.03-0.22-0.08-0.3s-0.13-0.12-0.24-0.12c-0.08,0-0.38,0.07-0.93,0.22c-0.54,0.15-1.05,0.3-1.52,0.45
		c-0.53,0.17-0.82,0.29-0.87,0.34l-0.09,0.16l-0.02,0.2c0,0.12,0.02,0.23,0.07,0.31c0.04,0.09,0.13,0.14,0.24,0.15
		c0.38,0.05,0.83,0.18,1.36,0.37c0.53,0.2,0.97,0.4,1.33,0.6l0.14,0.09l0.14,0.04c0.12,0,0.21-0.05,0.29-0.14
		c0.07-0.1,0.11-0.2,0.11-0.32C104.75,70.02,104.42,69.78,103.75,69.51z M106.05,66.6c-0.06-0.1-0.15-0.15-0.25-0.15
		c-0.14,0-0.25,0.06-0.33,0.18c-0.08,0.12-0.12,0.26-0.12,0.41c0,0.12,0.03,0.23,0.1,0.32s0.16,0.13,0.27,0.13
		c0.13,0,0.24-0.06,0.31-0.19c0.07-0.12,0.11-0.25,0.11-0.39C106.15,66.8,106.12,66.7,106.05,66.6z M101.17,67.11l0.21,0.12
		c0.05,0,0.21-0.02,0.46-0.06c0.11-0.02,0.2-0.03,0.28-0.03c0.29,0,0.71,0.03,1.27,0.08c0.56,0.06,0.96,0.09,1.18,0.09
		c0.12,0,0.2-0.04,0.26-0.11c0.05-0.07,0.08-0.17,0.08-0.29c0-0.11-0.02-0.22-0.07-0.33c-0.05-0.11-0.12-0.16-0.22-0.16l-0.15,0.02
		l-0.15,0.02c-0.28,0-0.7-0.02-1.25-0.06c-0.55-0.04-0.96-0.06-1.23-0.06c-0.21,0-0.38,0.03-0.5,0.1c-0.17,0.09-0.25,0.22-0.25,0.41
		C101.08,66.94,101.11,67.03,101.17,67.11z M101.16,65.63c0.06,0.09,0.13,0.13,0.22,0.13c0.06,0,0.25-0.02,0.54-0.07
		c0.13-0.02,0.25-0.03,0.34-0.03c0.88,0,1.78,0.04,2.7,0.13c0.16,0.02,0.33,0.04,0.51,0.07c0.18,0.02,0.33,0.04,0.44,0.04
		c0.12,0,0.21-0.04,0.27-0.11c0.06-0.07,0.09-0.17,0.09-0.28c0-0.1-0.03-0.21-0.09-0.33c-0.06-0.12-0.13-0.17-0.22-0.17l-0.18,0.03
		l-0.17,0.03c-0.3,0-0.7-0.01-1.17-0.05c-0.48-0.03-0.94-0.06-1.37-0.1s-0.84-0.05-1.22-0.04c-0.21,0-0.38,0.03-0.51,0.1
		c-0.18,0.09-0.26,0.22-0.26,0.41C101.07,65.45,101.1,65.54,101.16,65.63z M103.43,62.92c-0.2-0.2-0.36-0.41-0.47-0.61
		c0.23,0.07,0.48,0.19,0.74,0.34c0.33,0.2,0.5,0.38,0.5,0.54l-0.12,0.1C103.89,63.28,103.68,63.16,103.43,62.92z M102.18,62.17
		c0.11,0.46,0.33,0.87,0.64,1.21c0.36,0.39,0.75,0.58,1.19,0.58c0.23,0,0.44-0.07,0.6-0.21c0.17-0.14,0.25-0.33,0.25-0.56
		c0-0.46-0.32-0.88-0.96-1.27c-0.57-0.35-1.11-0.53-1.6-0.52c-0.38,0-0.68,0.13-0.91,0.38c-0.23,0.25-0.34,0.57-0.34,0.95
		c0,0.35,0.13,0.7,0.39,1.06c0.28,0.39,0.59,0.58,0.92,0.58c0.12,0,0.22-0.04,0.3-0.13c0.08-0.08,0.12-0.19,0.12-0.3
		c-0.24-0.18-0.47-0.35-0.71-0.53c-0.21-0.19-0.32-0.44-0.32-0.74C101.77,62.4,101.91,62.23,102.18,62.17z M102.42,59.69
		c-0.31-0.31-0.47-0.68-0.47-1.12c1.19,0,2.36,0.07,3.5,0.21c-0.17,0.4-0.43,0.72-0.77,0.98c-0.34,0.26-0.72,0.39-1.14,0.39
		C103.1,60.15,102.73,60,102.42,59.69z M105.9,57.8l-0.16,0.15c-0.65-0.06-1.27-0.11-1.89-0.14s-1.21-0.05-1.78-0.05l-0.17,0
		c-0.25,0-0.45,0.03-0.58,0.07c-0.2,0.07-0.3,0.2-0.3,0.39c0.04,0.17,0.09,0.34,0.13,0.52c0.07,0.63,0.32,1.16,0.77,1.57
		c0.45,0.41,0.99,0.62,1.62,0.62c0.69,0,1.36-0.29,1.99-0.85c0.65-0.58,0.97-1.22,0.97-1.92c0-0.12-0.04-0.23-0.1-0.31
		c-0.07-0.09-0.17-0.13-0.29-0.13L105.9,57.8z M101.89,52.56l-0.24-0.1c-0.22,0-0.39,0.17-0.5,0.5c-0.08,0.24-0.13,0.49-0.13,0.76
		c0,0.34,0.07,0.64,0.19,0.89c0.16,0.31,0.4,0.46,0.71,0.46c0.31,0,0.6-0.29,0.86-0.87c0.26-0.58,0.44-0.87,0.55-0.87
		c0.15,0,0.32,0.14,0.5,0.42c0.18,0.28,0.28,0.5,0.28,0.66c0,0.1-0.04,0.14-0.13,0.14l-0.16-0.05c-0.15-0.07-0.24-0.1-0.26-0.1
		l-0.23,0.12l-0.1,0.24c0,0.14,0.11,0.25,0.34,0.34c0.18,0.07,0.35,0.1,0.51,0.1c0.22,0,0.4-0.05,0.54-0.15
		c0.14-0.1,0.21-0.25,0.21-0.46c0-0.42-0.16-0.86-0.48-1.34c-0.34-0.52-0.71-0.77-1.11-0.77c-0.35,0-0.66,0.3-0.94,0.89
		c-0.28,0.59-0.44,0.89-0.49,0.89l-0.13-0.14c-0.03-0.09-0.04-0.22-0.04-0.38c0-0.22,0.04-0.41,0.11-0.56
		c0.07-0.15,0.16-0.29,0.25-0.42L101.89,52.56z M101.38,50.61c0.13,0.13,0.31,0.26,0.55,0.4c-0.27,0.03-0.47,0.07-0.59,0.13
		c-0.2,0.1-0.3,0.25-0.3,0.46c0,0.1,0.02,0.19,0.06,0.28s0.11,0.12,0.2,0.12c0.03,0,0.21-0.05,0.53-0.14
		c0.14-0.04,0.26-0.07,0.37-0.07c0.25,0,0.57,0.04,0.96,0.11c0.84,0.16,1.28,0.24,1.33,0.24c0.11,0,0.19-0.05,0.25-0.14
		c0.06-0.09,0.09-0.19,0.09-0.3l-0.02-0.16l-0.07-0.12c-0.61-0.18-1.22-0.37-1.83-0.55c-0.56-0.23-0.87-0.49-0.94-0.77l0.13-0.12
		c0.06-0.01,0.15-0.02,0.27-0.02c0.18,0,0.34,0.01,0.47,0.02c0.13,0.01,0.3,0.04,0.51,0.08c0.05,0.01,0.22,0.06,0.53,0.14
		c0.31,0.08,0.48,0.13,0.52,0.13c0.1,0,0.18-0.05,0.25-0.14s0.1-0.19,0.1-0.29c0-0.21-0.21-0.37-0.64-0.49
		c-0.48-0.14-1.06-0.21-1.74-0.2c-0.33,0-0.6,0.05-0.83,0.16c-0.3,0.14-0.45,0.36-0.45,0.65C101.1,50.22,101.19,50.42,101.38,50.61z
		 M103.01,46.85c0.21,0.04,0.44,0.11,0.69,0.19c-0.03,0.06,0.04,0.14,0.21,0.23c0.17,0.09,0.25,0.2,0.25,0.35
		c0,0.14-0.08,0.24-0.25,0.3c-0.11,0.04-0.25,0.06-0.42,0.06c-0.33,0-0.68-0.06-1.06-0.18c-0.48-0.16-0.72-0.37-0.72-0.63
		c0-0.12,0.05-0.21,0.14-0.28c0.1-0.07,0.26-0.1,0.48-0.1C102.57,46.78,102.79,46.8,103.01,46.85z M104.73,47.34
		c0.08-0.07,0.13-0.16,0.13-0.26c0-0.3-0.34-0.56-1.02-0.78c-0.54-0.17-1.01-0.26-1.4-0.26c-0.41,0-0.74,0.09-1,0.28
		c-0.28,0.2-0.42,0.5-0.42,0.9c0,0.52,0.29,0.92,0.86,1.2c0.45,0.22,0.96,0.33,1.54,0.33c0.37,0,0.69-0.07,0.96-0.22
		c0.33-0.18,0.5-0.44,0.49-0.78C104.87,47.6,104.82,47.47,104.73,47.34z M101.36,44.16c0.13,0.13,0.31,0.26,0.55,0.4
		c-0.27,0.03-0.47,0.07-0.59,0.13c-0.2,0.1-0.3,0.25-0.3,0.46c0,0.1,0.02,0.19,0.06,0.28s0.11,0.12,0.2,0.12
		c0.03,0,0.21-0.05,0.53-0.14c0.14-0.04,0.26-0.07,0.37-0.07c0.25,0,0.57,0.04,0.96,0.11c0.84,0.16,1.28,0.24,1.33,0.24
		c0.11,0,0.19-0.05,0.25-0.14c0.06-0.09,0.09-0.19,0.09-0.3l-0.02-0.16l-0.07-0.12c-0.61-0.18-1.22-0.37-1.83-0.55
		c-0.56-0.23-0.87-0.49-0.94-0.77l0.13-0.12c0.06-0.01,0.15-0.02,0.27-0.02c0.18,0,0.34,0.01,0.47,0.02
		c0.13,0.01,0.3,0.04,0.51,0.08c0.05,0.01,0.23,0.06,0.53,0.14c0.31,0.08,0.48,0.13,0.52,0.13c0.1,0,0.18-0.05,0.25-0.14
		s0.1-0.19,0.1-0.29c0-0.21-0.21-0.37-0.64-0.49c-0.48-0.14-1.06-0.21-1.74-0.2c-0.33,0-0.6,0.05-0.83,0.16
		c-0.3,0.14-0.45,0.36-0.45,0.65C101.08,43.78,101.17,43.97,101.36,44.16z M104.27,40.87c-0.17-0.11-0.44-0.25-0.8-0.43
		c0.05,0,0.16,0.01,0.33,0.02c0.17,0.02,0.31,0.02,0.41,0.02c0.21,0,0.38-0.03,0.49-0.08c0.14-0.07,0.21-0.18,0.21-0.34
		c0-0.1-0.03-0.21-0.08-0.31c-0.05-0.11-0.12-0.16-0.22-0.16c-0.04,0-0.12,0.02-0.25,0.04s-0.23,0.04-0.3,0.04
		c-0.24,0-0.55-0.02-0.94-0.05c-0.78-0.07-1.3-0.11-1.56-0.11c-0.16,0-0.3,0.03-0.42,0.08c-0.12,0.05-0.18,0.14-0.18,0.28
		c0,0.09,0.03,0.18,0.08,0.27l0.21,0.13c0.35,0,0.77,0.09,1.25,0.28s0.81,0.41,0.97,0.67c0,0.06-0.13,0.1-0.4,0.12
		c-0.08,0.01-0.22,0.01-0.45,0.01c-0.15,0-0.37-0.02-0.66-0.07c-0.29-0.05-0.5-0.07-0.63-0.07c-0.09,0-0.17,0.05-0.24,0.14
		c-0.07,0.09-0.1,0.19-0.1,0.28c0,0.21,0.22,0.36,0.65,0.44c0.26,0.05,0.63,0.07,1.1,0.07l0.32,0c0.42,0,0.75-0.03,1.02-0.08
		c0.47-0.1,0.7-0.27,0.7-0.53C104.81,41.34,104.63,41.11,104.27,40.87z M105.98,38.18c-0.06-0.1-0.15-0.15-0.25-0.15
		c-0.14,0-0.25,0.06-0.33,0.18c-0.08,0.12-0.12,0.26-0.12,0.41c0,0.12,0.03,0.23,0.1,0.32c0.06,0.09,0.16,0.13,0.27,0.13
		c0.13,0,0.24-0.06,0.31-0.19c0.07-0.12,0.11-0.25,0.11-0.39C106.07,38.39,106.04,38.28,105.98,38.18z M101.09,38.69l0.21,0.12
		c0.05,0,0.21-0.02,0.46-0.06c0.11-0.02,0.2-0.03,0.28-0.03c0.29,0,0.71,0.03,1.27,0.08c0.56,0.06,0.96,0.09,1.18,0.09
		c0.12,0,0.2-0.04,0.26-0.11s0.08-0.17,0.08-0.29c0-0.11-0.02-0.22-0.07-0.33c-0.05-0.11-0.12-0.16-0.22-0.16l-0.15,0.02l-0.15,0.02
		c-0.28,0-0.7-0.02-1.25-0.06c-0.55-0.04-0.96-0.06-1.23-0.06c-0.21,0-0.38,0.03-0.5,0.1c-0.17,0.09-0.25,0.22-0.25,0.41
		C101.01,38.52,101.04,38.61,101.09,38.69z M103.93,35.59c-0.04,0.09-0.06,0.25-0.05,0.48c-0.04,0-0.38-0.02-1-0.05
		c-0.18-0.01-0.38-0.02-0.6-0.01c-0.47,0-0.8,0.05-0.99,0.13c-0.19,0.09-0.29,0.23-0.29,0.43c0,0.09,0.02,0.17,0.06,0.24l0.19,0.13
		c0.19-0.05,0.37-0.08,0.55-0.1c0.18-0.02,0.38-0.03,0.61-0.03c0.12,0,0.44,0.01,0.95,0.04c0.2,0.01,0.39,0.02,0.58,0.01l0.03,0.38
		l-0.01,0.2l0.02,0.13c0.09,0.04,0.18,0.07,0.26,0.09l0.26,0.03c0.17,0,0.26-0.09,0.25-0.26c0-0.08-0.01-0.16-0.02-0.25
		c-0.01-0.09-0.02-0.19-0.03-0.28c0.01,0,0.14,0.01,0.38,0.03c0.06,0,0.13,0.01,0.22,0.01c0.16,0,0.28-0.03,0.37-0.1
		c0.09-0.07,0.14-0.18,0.14-0.35c0-0.09-0.02-0.18-0.06-0.26l-0.18-0.12c-0.03,0-0.22,0.01-0.58,0.03
		c-0.09,0.01-0.21,0.01-0.34,0.01l-0.01-0.16c0-0.1,0-0.18,0.01-0.26l0.04-0.21l-0.14-0.12l-0.21-0.04
		C104.13,35.35,103.99,35.43,103.93,35.59z M104.25,33.64c-0.17-0.11-0.44-0.25-0.8-0.43c0.05,0,0.16,0.01,0.33,0.02
		s0.31,0.02,0.41,0.02c0.21,0,0.38-0.03,0.49-0.08c0.14-0.07,0.22-0.18,0.22-0.34c0-0.1-0.03-0.21-0.08-0.31
		c-0.05-0.11-0.12-0.16-0.22-0.16c-0.04,0-0.12,0.02-0.25,0.04s-0.23,0.04-0.3,0.04c-0.24,0-0.55-0.02-0.94-0.05
		c-0.78-0.07-1.3-0.11-1.56-0.11c-0.16,0-0.3,0.03-0.42,0.08c-0.12,0.05-0.17,0.14-0.17,0.28c0,0.09,0.03,0.18,0.08,0.27l0.21,0.13
		c0.35,0,0.77,0.09,1.25,0.28s0.8,0.41,0.97,0.67c0,0.06-0.13,0.1-0.4,0.12c-0.08,0.01-0.22,0.01-0.45,0.01
		c-0.15,0-0.37-0.02-0.66-0.07c-0.29-0.05-0.5-0.07-0.63-0.07c-0.09,0-0.17,0.05-0.24,0.14c-0.07,0.09-0.1,0.19-0.1,0.28
		c0,0.21,0.22,0.36,0.65,0.44c0.26,0.05,0.62,0.07,1.1,0.07l0.32,0c0.42,0,0.75-0.03,1.02-0.08c0.47-0.1,0.7-0.27,0.7-0.53
		C104.79,34.1,104.61,33.88,104.25,33.64z M102.96,29.94c0.21,0.04,0.44,0.11,0.69,0.19c-0.03,0.06,0.04,0.14,0.21,0.23
		c0.17,0.09,0.25,0.2,0.25,0.35c0,0.14-0.08,0.24-0.25,0.3c-0.11,0.04-0.25,0.06-0.42,0.06c-0.33,0-0.68-0.06-1.06-0.18
		c-0.48-0.16-0.72-0.37-0.72-0.63c0-0.12,0.05-0.21,0.14-0.28c0.1-0.07,0.26-0.1,0.48-0.1C102.53,29.88,102.75,29.9,102.96,29.94z
		 M104.69,30.44c0.08-0.07,0.13-0.16,0.13-0.26c0-0.3-0.34-0.56-1.02-0.78c-0.54-0.17-1.01-0.26-1.4-0.26c-0.41,0-0.74,0.09-1,0.28
		c-0.28,0.2-0.42,0.5-0.42,0.9c0,0.52,0.29,0.92,0.86,1.2c0.45,0.22,0.96,0.33,1.54,0.33c0.37,0,0.69-0.07,0.96-0.22
		c0.33-0.18,0.5-0.44,0.49-0.78C104.82,30.7,104.78,30.56,104.69,30.44z M103,28.53c0.09-0.07,0.14-0.16,0.14-0.27
		c0-0.19-0.24-0.36-0.72-0.49s-0.72-0.38-0.72-0.73c0-0.23,0.13-0.4,0.39-0.5c0.18-0.07,0.4-0.1,0.68-0.11
		c0.39,0,0.88,0.09,1.46,0.26c0.69,0.21,1.08,0.44,1.18,0.71c-0.04,0.08-0.1,0.15-0.2,0.19c-0.1,0.04-0.2,0.06-0.3,0.06l-0.12-0.01
		l-0.12-0.01l-0.2,0.06c-0.05,0.04-0.07,0.13-0.07,0.26c0,0.16,0.06,0.27,0.18,0.33c0.12,0.07,0.26,0.1,0.42,0.1
		c0.31,0,0.61-0.09,0.9-0.28c0.33-0.21,0.49-0.47,0.49-0.76c0-0.33-0.25-0.64-0.76-0.93c-0.41-0.25-0.93-0.45-1.56-0.62
		c-0.55-0.15-0.99-0.22-1.32-0.22c-0.5,0-0.91,0.12-1.24,0.36c-0.37,0.27-0.55,0.64-0.55,1.12c0,0.44,0.19,0.81,0.56,1.13
		c0.35,0.29,0.75,0.44,1.2,0.44C102.81,28.63,102.91,28.6,103,28.53z"/>
	
		<rect x="32.47" y="16.88" transform="matrix(1 -2.521354e-003 2.521354e-003 1 -0.1341 0.0996)" fill="#486976" width="13.94" height="72.7"/>
	
		<rect x="32.44" y="38.21" transform="matrix(1 -2.591481e-003 2.591481e-003 1 -0.1028 0.1023)" fill="#607778" width="13.94" height="3.05"/>
	
		<rect x="32.42" y="31.68" transform="matrix(1 -2.591481e-003 2.591481e-003 1 -0.0859 0.1022)" fill="#607778" width="13.94" height="3.05"/>
	
		<rect x="32.4" y="23.85" transform="matrix(1 -2.591300e-003 2.591300e-003 1 -0.0656 0.1021)" fill="#607778" width="13.94" height="3.05"/>
	<path fill="#AAA875" d="M39.69,70.76c-0.18-0.41-0.3-0.83-0.34-1.24c0.28,0,0.62,0.02,1,0.07c0.22,0.03,0.55,0.07,1,0.14l0.01,0.23
		c0,0.36-0.06,0.7-0.19,1c-0.16,0.4-0.39,0.6-0.67,0.6C40.2,71.56,39.93,71.29,39.69,70.76z M40.57,68.48
		c-0.56-0.08-1.01-0.12-1.33-0.11l-0.09-0.22l-0.17-0.06l-0.26,0.07c-0.05,0.03-0.13,0.08-0.23,0.16c-0.22-0.02-0.42-0.04-0.59-0.05
		c-0.17-0.01-0.36-0.01-0.59-0.01c-0.41,0-0.72,0.05-0.93,0.14c-0.28,0.12-0.42,0.33-0.42,0.62s0.11,0.47,0.33,0.55
		c0.07,0,0.16-0.02,0.28-0.05c0.22-0.07,0.38-0.11,0.47-0.11c0.14,0,0.36,0.01,0.65,0.02c0.29,0.01,0.51,0.02,0.65,0.02
		c0.15,1.09,0.45,1.92,0.88,2.49c0.34,0.45,0.76,0.67,1.24,0.67c0.49,0,0.88-0.21,1.19-0.63c0.37-0.5,0.59-1.28,0.67-2.33
		c0.13-0.13,0.2-0.28,0.2-0.45c0-0.16-0.08-0.37-0.25-0.61c-0.17-0.24-0.33-0.36-0.48-0.36c-0.11,0-0.19,0.03-0.26,0.1
		c-0.07,0.06-0.12,0.15-0.16,0.27C41.27,68.57,40.99,68.53,40.57,68.48z M37.81,65.9c-0.18-0.02-0.32-0.04-0.41-0.04
		c-0.09-0.01-0.18-0.01-0.27-0.01c-0.34,0-0.61,0.05-0.8,0.14c-0.25,0.12-0.37,0.32-0.37,0.61c0,0.14,0.03,0.26,0.08,0.36
		c0.05,0.09,0.13,0.16,0.24,0.21c0.23-0.07,0.39-0.11,0.49-0.12c0.1-0.02,0.24-0.03,0.43-0.03c0.39,0,0.91,0.03,1.54,0.1
		c0.63,0.07,1.24,0.14,1.82,0.2c0.58,0.07,1.06,0.1,1.44,0.1c0.16,0,0.29-0.08,0.38-0.24c0.09-0.16,0.14-0.33,0.14-0.51
		c0-0.11-0.03-0.23-0.07-0.34c-0.05-0.11-0.12-0.17-0.22-0.17c-0.57,0-1.08-0.01-1.55-0.05c-0.47-0.04-1.09-0.09-1.86-0.17
		c0-0.04-0.01-0.33-0.02-0.88s-0.02-0.94-0.02-1.18c0.27,0,0.95,0.07,2.05,0.22c0.47,0.06,0.87,0.09,1.2,0.09
		c0.15,0,0.27-0.08,0.37-0.24c0.09-0.16,0.14-0.32,0.14-0.5c0-0.11-0.03-0.23-0.08-0.34c-0.06-0.11-0.13-0.17-0.23-0.17
		c-0.34,0-0.79-0.02-1.35-0.07c-1.12-0.1-1.86-0.14-2.24-0.14c-0.03-0.12-0.08-0.22-0.15-0.29c-0.07-0.07-0.16-0.11-0.28-0.11
		c-0.09,0-0.18,0.03-0.26,0.1c-0.08,0.07-0.14,0.15-0.19,0.24c-0.05,0-0.14,0-0.29-0.01c-0.14-0.01-0.26-0.01-0.35-0.01
		c-0.35,0-0.62,0.04-0.81,0.13c-0.25,0.11-0.37,0.31-0.37,0.6c0,0.13,0.03,0.25,0.08,0.37s0.13,0.18,0.23,0.18
		c0.08,0,0.21-0.02,0.4-0.07s0.33-0.06,0.43-0.06l0.66,0.01c0.04,0.25,0.06,0.48,0.07,0.69c0,0.21,0.01,0.43,0.01,0.65L37.81,65.9z
		 M39.67,60.06c-0.19-0.41-0.3-0.83-0.34-1.24c0.28,0,0.62,0.02,1,0.07c0.22,0.03,0.55,0.07,1,0.14l0.01,0.23
		c0,0.36-0.06,0.7-0.18,1c-0.16,0.4-0.39,0.6-0.67,0.6C40.18,60.86,39.9,60.59,39.67,60.06z M40.54,57.78
		c-0.56-0.08-1.01-0.12-1.33-0.11l-0.09-0.22l-0.17-0.06l-0.25,0.07c-0.05,0.03-0.13,0.08-0.23,0.16c-0.22-0.02-0.42-0.04-0.59-0.05
		c-0.17-0.01-0.36-0.01-0.59-0.01c-0.41,0-0.72,0.05-0.94,0.14c-0.28,0.12-0.42,0.33-0.42,0.62s0.11,0.47,0.33,0.55
		c0.07,0,0.16-0.02,0.28-0.05c0.22-0.07,0.38-0.11,0.47-0.11c0.14,0,0.36,0.01,0.65,0.02c0.29,0.01,0.51,0.02,0.65,0.02
		c0.15,1.09,0.45,1.92,0.88,2.49c0.34,0.45,0.76,0.67,1.24,0.67c0.49,0,0.88-0.21,1.19-0.63c0.37-0.5,0.59-1.28,0.67-2.33
		c0.13-0.13,0.2-0.28,0.19-0.45c0-0.16-0.08-0.37-0.25-0.61c-0.17-0.24-0.33-0.36-0.48-0.36c-0.11,0-0.19,0.03-0.26,0.1
		c-0.07,0.06-0.12,0.15-0.16,0.27C41.24,57.87,40.97,57.84,40.54,57.78z"/>
	
		<rect x="20.59" y="8.15" transform="matrix(1 -2.608171e-003 2.608171e-003 1 -0.1282 0.07)" fill="#824452" width="12.36" height="82.05"/>
	<path fill="#D0532F" d="M27.92,81.58c-0.19-0.13-0.49-0.29-0.9-0.48c0.05,0,0.18,0.01,0.37,0.03c0.19,0.02,0.34,0.03,0.46,0.03
		c0.24,0,0.42-0.03,0.55-0.09c0.16-0.08,0.24-0.2,0.24-0.38c0-0.11-0.03-0.23-0.09-0.35c-0.06-0.12-0.14-0.18-0.25-0.18
		c-0.04,0-0.14,0.02-0.28,0.05c-0.14,0.03-0.25,0.05-0.33,0.05c-0.26,0-0.62-0.02-1.05-0.06c-0.88-0.08-1.46-0.12-1.76-0.12
		c-0.18,0-0.34,0.03-0.47,0.09c-0.13,0.06-0.2,0.16-0.2,0.32c0,0.1,0.03,0.2,0.1,0.3c0.06,0.1,0.14,0.15,0.24,0.15
		c0.4,0,0.87,0.1,1.41,0.32c0.54,0.21,0.91,0.46,1.09,0.75c0,0.07-0.15,0.11-0.45,0.14c-0.08,0.01-0.25,0.01-0.5,0.01
		c-0.17,0-0.41-0.03-0.74-0.08c-0.32-0.05-0.56-0.08-0.71-0.08c-0.1,0-0.19,0.05-0.27,0.16c-0.08,0.1-0.12,0.21-0.12,0.32
		c0,0.24,0.24,0.4,0.73,0.49c0.29,0.05,0.7,0.08,1.24,0.08l0.36,0c0.47,0,0.85-0.03,1.14-0.09c0.53-0.11,0.79-0.31,0.79-0.6
		C28.53,82.1,28.32,81.85,27.92,81.58z M27.55,78.47c-0.09,0.02-0.23,0.04-0.43,0.04c-0.31,0-0.68-0.07-1.09-0.22
		c-0.51-0.18-0.77-0.4-0.77-0.65c0-0.13,0.07-0.21,0.21-0.26c0.07-0.02,0.19-0.04,0.35-0.04c0.3,0,0.68,0.07,1.15,0.22
		c0.56,0.18,0.85,0.38,0.85,0.62C27.82,78.33,27.73,78.42,27.55,78.47z M28.54,78.86l-0.14-0.14c0.16-0.18,0.24-0.39,0.24-0.62
		c0-0.49-0.36-0.91-1.07-1.24c-0.58-0.27-1.15-0.41-1.71-0.41c-0.38,0-0.71,0.09-1.01,0.25c-0.35,0.2-0.52,0.48-0.52,0.83
		c0,0.22,0.08,0.41,0.24,0.58c0.11,0.13,0.29,0.25,0.52,0.39l-0.4,0.01c-0.3,0-0.56-0.07-0.78-0.22c-0.25-0.17-0.38-0.4-0.38-0.68
		c0-0.19,0.05-0.36,0.15-0.53c0.1-0.17,0.22-0.33,0.34-0.49c0-0.11-0.06-0.2-0.18-0.28c-0.12-0.08-0.23-0.12-0.34-0.12
		c-0.26,0-0.46,0.17-0.62,0.52c-0.12,0.26-0.18,0.55-0.18,0.85c0,0.65,0.2,1.13,0.61,1.43c0.35,0.27,0.86,0.4,1.52,0.4
		c0.36,0,0.72,0.01,1.09,0.02c0.37,0,0.73,0.01,1.09,0.01c0.08,0,0.33,0.04,0.75,0.12c0.16,0.03,0.3,0.04,0.42,0.04
		c0.1,0,0.2-0.06,0.29-0.17c0.09-0.12,0.13-0.23,0.13-0.33L28.54,78.86z M29.84,74.99c-0.07-0.11-0.16-0.17-0.28-0.17
		c-0.16,0-0.28,0.07-0.37,0.21c-0.09,0.14-0.13,0.29-0.13,0.46c0,0.14,0.04,0.26,0.11,0.36s0.17,0.15,0.31,0.15
		c0.15,0,0.27-0.07,0.35-0.21c0.08-0.14,0.13-0.29,0.13-0.44C29.94,75.22,29.9,75.1,29.84,74.99z M24.34,75.56
		c0.06,0.09,0.14,0.13,0.24,0.13c0.06,0,0.23-0.02,0.51-0.06c0.12-0.02,0.22-0.03,0.31-0.03c0.32,0,0.8,0.03,1.43,0.09
		c0.63,0.06,1.07,0.1,1.33,0.1c0.13,0,0.23-0.04,0.29-0.12c0.06-0.08,0.09-0.19,0.09-0.33c0-0.13-0.03-0.25-0.08-0.37
		s-0.14-0.18-0.24-0.18l-0.17,0.03l-0.17,0.03c-0.32,0-0.79-0.02-1.4-0.07c-0.62-0.05-1.08-0.07-1.39-0.07
		c-0.24,0-0.43,0.04-0.57,0.11c-0.19,0.1-0.28,0.25-0.28,0.46C24.24,75.38,24.27,75.47,24.34,75.56z M25.18,71.24
		c-0.1-0.08-0.19-0.12-0.27-0.12c-0.25,0-0.44,0.19-0.57,0.56c-0.1,0.27-0.14,0.55-0.14,0.86c0,0.38,0.07,0.72,0.22,1
		c0.18,0.35,0.45,0.52,0.79,0.52c0.35,0,0.68-0.33,0.97-0.97c0.29-0.65,0.5-0.97,0.62-0.97c0.17,0,0.36,0.15,0.56,0.47
		c0.21,0.31,0.31,0.56,0.31,0.74c0,0.11-0.05,0.16-0.14,0.16l-0.18-0.05c-0.17-0.08-0.27-0.12-0.3-0.12c-0.1,0-0.18,0.04-0.26,0.13
		s-0.11,0.18-0.11,0.27c0,0.16,0.13,0.29,0.38,0.39c0.2,0.08,0.39,0.12,0.58,0.12c0.25,0,0.45-0.05,0.61-0.16
		c0.16-0.11,0.24-0.28,0.24-0.51c0-0.47-0.18-0.97-0.54-1.51c-0.39-0.58-0.8-0.87-1.24-0.87c-0.39,0-0.74,0.34-1.06,1.01
		c-0.32,0.67-0.5,1.01-0.55,1.01c-0.06,0-0.11-0.05-0.14-0.15c-0.03-0.1-0.05-0.24-0.05-0.42c0-0.25,0.04-0.46,0.12-0.63
		s0.18-0.33,0.29-0.47C25.32,71.4,25.27,71.32,25.18,71.24z M26.88,69.11c-0.23-0.23-0.41-0.46-0.53-0.69
		c0.26,0.08,0.54,0.21,0.83,0.38c0.37,0.23,0.56,0.43,0.56,0.61c0,0.07-0.04,0.11-0.13,0.11C27.4,69.53,27.16,69.39,26.88,69.11z
		 M25.48,68.28c0.13,0.52,0.37,0.97,0.72,1.36c0.4,0.44,0.85,0.65,1.33,0.65c0.26,0,0.49-0.08,0.68-0.24
		c0.19-0.16,0.28-0.37,0.28-0.63c0-0.52-0.36-0.99-1.07-1.43c-0.64-0.39-1.24-0.59-1.8-0.59c-0.43,0-0.77,0.14-1.02,0.43
		c-0.25,0.28-0.38,0.64-0.38,1.06c0,0.39,0.15,0.79,0.44,1.2c0.32,0.44,0.66,0.65,1.04,0.65c0.13,0,0.24-0.05,0.33-0.14
		s0.13-0.21,0.13-0.34c-0.26-0.2-0.53-0.4-0.79-0.59c-0.24-0.22-0.36-0.49-0.36-0.84C25.01,68.53,25.16,68.35,25.48,68.28z
		 M25.74,65.48c-0.35-0.35-0.52-0.77-0.53-1.26c1.34,0,2.65,0.08,3.94,0.24c-0.19,0.44-0.48,0.81-0.87,1.1S27.48,66,27.01,66
		C26.51,66,26.09,65.83,25.74,65.48z M29.66,63.35l-0.18,0.17c-0.73-0.07-1.43-0.12-2.12-0.16c-0.69-0.04-1.36-0.06-2-0.05h-0.19
		c-0.28,0-0.5,0.03-0.66,0.08c-0.23,0.08-0.34,0.23-0.34,0.44c0.05,0.19,0.1,0.39,0.15,0.58c0.07,0.71,0.36,1.3,0.87,1.77
		c0.51,0.47,1.11,0.7,1.82,0.7c0.78,0,1.53-0.32,2.24-0.96c0.73-0.66,1.09-1.37,1.09-2.15c0-0.14-0.04-0.26-0.12-0.35
		s-0.19-0.14-0.32-0.14L29.66,63.35z M27.86,58.75c-0.19-0.13-0.49-0.29-0.9-0.48c0.05,0,0.18,0.01,0.37,0.03
		c0.19,0.02,0.35,0.03,0.46,0.03c0.24,0,0.42-0.03,0.55-0.09c0.16-0.08,0.24-0.2,0.24-0.38c0-0.11-0.03-0.23-0.09-0.35
		c-0.06-0.12-0.14-0.18-0.25-0.18c-0.04,0-0.13,0.02-0.28,0.05s-0.25,0.05-0.33,0.05c-0.26,0-0.62-0.02-1.05-0.06
		c-0.88-0.08-1.46-0.12-1.76-0.12c-0.18,0-0.34,0.03-0.47,0.09c-0.13,0.06-0.2,0.16-0.2,0.32c0,0.1,0.03,0.2,0.1,0.3
		c0.06,0.1,0.14,0.15,0.24,0.15c0.4,0,0.87,0.1,1.41,0.32c0.54,0.21,0.91,0.46,1.09,0.75c0,0.07-0.15,0.11-0.45,0.14
		c-0.08,0.01-0.25,0.01-0.5,0.01c-0.17,0-0.41-0.03-0.74-0.08c-0.32-0.05-0.56-0.08-0.71-0.08c-0.1,0-0.19,0.05-0.27,0.16
		c-0.08,0.1-0.12,0.21-0.12,0.32c0,0.24,0.24,0.4,0.73,0.49c0.29,0.05,0.7,0.08,1.24,0.08l0.36,0c0.47,0,0.85-0.03,1.14-0.09
		c0.53-0.11,0.79-0.31,0.79-0.6C28.47,59.27,28.27,59.02,27.86,58.75z M26.85,55.15c-0.23-0.23-0.41-0.46-0.53-0.69
		c0.26,0.08,0.54,0.21,0.83,0.38c0.37,0.23,0.56,0.43,0.56,0.61l-0.13,0.11C27.36,55.57,27.12,55.43,26.85,55.15z M25.44,54.32
		c0.13,0.52,0.37,0.97,0.72,1.36c0.4,0.44,0.85,0.65,1.33,0.65c0.26,0,0.49-0.08,0.68-0.24c0.19-0.16,0.28-0.37,0.28-0.63
		c0-0.52-0.36-0.99-1.07-1.43c-0.64-0.39-1.24-0.59-1.8-0.59c-0.43,0-0.77,0.14-1.02,0.43c-0.25,0.28-0.38,0.64-0.38,1.06
		c0,0.39,0.15,0.79,0.44,1.2c0.32,0.44,0.66,0.65,1.04,0.65c0.13,0,0.24-0.05,0.33-0.14c0.09-0.1,0.13-0.21,0.13-0.34
		c-0.26-0.2-0.53-0.4-0.79-0.59c-0.24-0.22-0.36-0.49-0.36-0.84C24.97,54.57,25.13,54.39,25.44,54.32z M27.18,52.01
		c-0.4-0.16-0.89-0.33-1.48-0.5c0.38-0.13,0.76-0.23,1.13-0.32c0.48-0.11,0.86-0.16,1.15-0.17c0.12,0,0.21-0.05,0.28-0.15l0.09-0.18
		l0.02-0.21c0-0.13-0.03-0.24-0.09-0.33c-0.06-0.09-0.15-0.14-0.27-0.13c-0.08,0-0.43,0.08-1.04,0.25c-0.61,0.17-1.18,0.33-1.71,0.5
		c-0.6,0.19-0.92,0.32-0.98,0.39l-0.1,0.18c-0.01,0.06-0.02,0.13-0.02,0.23c0,0.14,0.03,0.25,0.08,0.35
		c0.05,0.1,0.14,0.15,0.27,0.17c0.43,0.06,0.94,0.2,1.53,0.42c0.59,0.22,1.09,0.45,1.5,0.68c0.09,0.06,0.14,0.09,0.15,0.1l0.15,0.04
		c0.13,0,0.24-0.05,0.32-0.16c0.08-0.11,0.13-0.23,0.13-0.36C28.3,52.58,27.92,52.32,27.18,52.01z M29.77,48.73
		c-0.07-0.11-0.16-0.17-0.28-0.17c-0.16,0-0.28,0.07-0.37,0.21c-0.09,0.14-0.13,0.29-0.13,0.46c0,0.14,0.04,0.26,0.11,0.36
		s0.17,0.15,0.31,0.15c0.15,0,0.27-0.07,0.35-0.21c0.08-0.14,0.13-0.29,0.12-0.44C29.87,48.96,29.84,48.84,29.77,48.73z M24.27,49.3
		c0.06,0.09,0.14,0.13,0.24,0.13c0.06,0,0.23-0.02,0.51-0.06c0.12-0.02,0.23-0.03,0.31-0.03c0.32,0,0.8,0.03,1.43,0.09
		s1.07,0.1,1.33,0.1c0.13,0,0.23-0.04,0.29-0.12c0.06-0.08,0.09-0.19,0.09-0.33c0-0.13-0.03-0.25-0.08-0.37
		c-0.05-0.12-0.14-0.18-0.24-0.18l-0.17,0.03l-0.17,0.03c-0.32,0-0.79-0.02-1.4-0.07c-0.62-0.05-1.08-0.07-1.39-0.07
		c-0.24,0-0.43,0.04-0.57,0.11c-0.19,0.1-0.28,0.25-0.28,0.46C24.17,49.12,24.21,49.21,24.27,49.3z M28.1,46.89
		c-0.1-0.2-0.25-0.4-0.44-0.6c0.01,0,0.08,0,0.22,0.02c0.14,0.01,0.24,0.02,0.29,0.02c0.13,0,0.23-0.03,0.31-0.09
		c0.07-0.06,0.11-0.17,0.11-0.32c0-0.12-0.03-0.24-0.09-0.35c-0.06-0.11-0.14-0.17-0.25-0.17c-0.05,0-0.44,0-1.17-0.01
		c-0.73-0.01-1.25-0.01-1.56-0.01l-0.22,0c-0.24,0-0.43,0.01-0.58,0.04c-0.4,0.07-0.59,0.23-0.59,0.5c0,0.11,0.03,0.22,0.1,0.33
		c0.06,0.11,0.15,0.17,0.25,0.17c0.07,0,0.21-0.02,0.41-0.07c0.2-0.05,0.36-0.07,0.48-0.07c0.44,0,0.84,0.08,1.22,0.23
		c0.49,0.2,0.73,0.5,0.73,0.88l-0.03,0.14l-0.03,0.14c0,0.13,0.06,0.25,0.19,0.35c0.12,0.1,0.26,0.15,0.4,0.15
		c0.14,0,0.25-0.05,0.32-0.16s0.11-0.23,0.11-0.38C28.28,47.37,28.22,47.13,28.1,46.89z M25.68,43.32
		c-0.35-0.35-0.52-0.77-0.53-1.26c1.34,0,2.65,0.08,3.94,0.24c-0.19,0.44-0.48,0.81-0.87,1.1s-0.81,0.43-1.28,0.44
		C26.45,43.84,26.03,43.67,25.68,43.32z M29.6,41.2l-0.18,0.17c-0.73-0.07-1.43-0.12-2.12-0.16c-0.69-0.04-1.36-0.06-2-0.05h-0.19
		c-0.28,0-0.5,0.03-0.66,0.08c-0.23,0.08-0.34,0.23-0.34,0.44c0.05,0.19,0.1,0.39,0.15,0.58c0.07,0.71,0.36,1.3,0.87,1.77
		c0.51,0.47,1.11,0.7,1.82,0.7c0.78,0,1.53-0.32,2.24-0.96c0.73-0.66,1.09-1.37,1.09-2.15c0-0.14-0.04-0.26-0.12-0.35
		s-0.19-0.14-0.32-0.14L29.6,41.2z M26.67,38.71c-0.07-0.24-0.19-0.36-0.34-0.36l-0.27,0.07l-0.13,0.18c0,0.01,0.02,0.15,0.06,0.42
		c0.02,0.11,0.03,0.21,0.03,0.3c0,0.11-0.02,0.27-0.06,0.47c-0.04,0.2-0.06,0.32-0.06,0.37l0.1,0.18c0.07,0.04,0.15,0.06,0.24,0.06
		c0.22,0,0.37-0.15,0.45-0.44c0.04-0.16,0.06-0.39,0.06-0.71C26.74,39.05,26.72,38.87,26.67,38.71z M27.8,36.1
		c-0.19-0.13-0.49-0.29-0.9-0.48c0.05,0,0.18,0.01,0.37,0.03c0.19,0.02,0.34,0.03,0.46,0.03c0.24,0,0.42-0.03,0.55-0.09
		c0.16-0.08,0.24-0.2,0.24-0.38c0-0.11-0.03-0.23-0.09-0.35c-0.06-0.12-0.14-0.18-0.25-0.18c-0.04,0-0.13,0.02-0.28,0.05
		c-0.14,0.03-0.25,0.05-0.33,0.05c-0.26,0-0.62-0.02-1.05-0.06c-0.88-0.08-1.46-0.12-1.76-0.12c-0.18,0-0.34,0.03-0.47,0.09
		c-0.13,0.06-0.2,0.16-0.2,0.32c0,0.1,0.03,0.2,0.1,0.3c0.06,0.1,0.14,0.15,0.24,0.15c0.4,0,0.87,0.1,1.41,0.32
		c0.54,0.21,0.91,0.46,1.09,0.75c0,0.07-0.15,0.11-0.45,0.14c-0.08,0.01-0.25,0.01-0.5,0.01c-0.17,0-0.41-0.03-0.74-0.08
		c-0.32-0.05-0.56-0.08-0.71-0.08c-0.1,0-0.19,0.05-0.27,0.16c-0.08,0.1-0.12,0.21-0.12,0.32c0,0.24,0.24,0.4,0.73,0.49
		c0.29,0.05,0.7,0.08,1.24,0.08l0.36,0c0.47,0,0.85-0.03,1.14-0.09c0.53-0.11,0.79-0.31,0.79-0.6C28.41,36.62,28.21,36.37,27.8,36.1
		z M29.73,33.07c-0.07-0.11-0.16-0.17-0.28-0.17c-0.16,0-0.28,0.07-0.37,0.21c-0.09,0.14-0.13,0.29-0.13,0.46
		c0,0.14,0.04,0.26,0.11,0.36s0.17,0.15,0.31,0.15c0.15,0,0.27-0.07,0.35-0.21s0.13-0.29,0.13-0.44
		C29.83,33.3,29.8,33.18,29.73,33.07z M24.23,33.64c0.06,0.09,0.14,0.13,0.24,0.13c0.06,0,0.23-0.02,0.51-0.06
		c0.12-0.02,0.23-0.03,0.31-0.03c0.32,0,0.8,0.03,1.43,0.09c0.63,0.06,1.07,0.1,1.33,0.1c0.13,0,0.23-0.04,0.29-0.12
		c0.06-0.08,0.09-0.19,0.09-0.33c0-0.13-0.03-0.25-0.08-0.37s-0.14-0.18-0.24-0.18l-0.17,0.03l-0.17,0.03
		c-0.32,0-0.79-0.02-1.4-0.07c-0.62-0.05-1.08-0.07-1.39-0.07c-0.24,0-0.43,0.04-0.57,0.11c-0.19,0.1-0.28,0.25-0.28,0.46
		C24.13,33.46,24.17,33.55,24.23,33.64z M25.85,30.38c0.16,0.25,0.24,0.5,0.24,0.76h-0.2l-0.15,0l-0.18-0.02
		c-0.15-0.04-0.28-0.16-0.39-0.36c-0.11-0.2-0.16-0.38-0.16-0.55c0-0.18,0.07-0.27,0.21-0.27C25.46,29.94,25.67,30.09,25.85,30.38z
		 M24.54,31.12c-0.12,0.04-0.22,0.09-0.31,0.17c-0.08,0.08-0.13,0.17-0.13,0.29c0,0.13,0.05,0.25,0.15,0.38
		c0.1,0.13,0.21,0.19,0.32,0.19c0.13-0.04,0.26-0.07,0.39-0.1S25.22,32,25.32,32c0.25,0.01,0.47,0.02,0.66,0.03
		c0.19,0.01,0.4,0.02,0.64,0.02c0.54,0,0.95-0.07,1.24-0.2c0.38-0.17,0.57-0.47,0.57-0.89c0-0.28-0.13-0.58-0.4-0.92
		c-0.27-0.34-0.53-0.5-0.79-0.5c-0.1,0-0.19,0.04-0.26,0.12c-0.07,0.08-0.1,0.17-0.1,0.27c0,0.09,0.17,0.27,0.52,0.54
		c0.16,0.12,0.23,0.26,0.23,0.41c0,0.11-0.06,0.19-0.19,0.22c-0.06,0.02-0.17,0.03-0.32,0.03l-0.22-0.01
		c-0.09-0.53-0.28-0.98-0.56-1.36c-0.34-0.46-0.75-0.69-1.23-0.69c-0.28,0-0.51,0.12-0.68,0.34c-0.15,0.2-0.22,0.44-0.22,0.74
		C24.21,30.51,24.32,30.83,24.54,31.12z M27.58,25.36c-0.17-0.14-0.41-0.29-0.69-0.47c0.1,0,0.33,0.03,0.71,0.08
		c0.17,0.02,0.31,0.03,0.42,0.03c0.13,0,0.23-0.05,0.28-0.14s0.08-0.2,0.08-0.34c0-0.1-0.03-0.19-0.08-0.29
		c-0.05-0.1-0.13-0.15-0.22-0.15c-0.29,0-0.68-0.02-1.19-0.05c-1-0.07-1.65-0.1-1.95-0.1c-0.34,0-0.57,0.04-0.67,0.12
		c-0.1,0.08-0.16,0.21-0.16,0.38c0,0.1,0.03,0.19,0.09,0.28l0.21,0.13c0.4,0,0.79,0.06,1.2,0.18c0.49,0.14,0.83,0.35,1.02,0.61
		c-0.11,0.11-0.34,0.2-0.69,0.24c-0.21,0.03-0.46,0.05-0.76,0.05c-0.02,0-0.1-0.01-0.24-0.02s-0.26-0.02-0.34-0.02
		c-0.16,0-0.27,0.03-0.35,0.09c-0.08,0.06-0.12,0.18-0.12,0.36c0,0.15,0.23,0.28,0.7,0.39c1.12,0.27,1.77,0.56,1.95,0.88
		c-0.04,0.05-0.12,0.09-0.25,0.11s-0.3,0.03-0.54,0.03c-0.2,0-0.48-0.04-0.84-0.12c-0.36-0.08-0.59-0.12-0.69-0.12
		c-0.1,0-0.18,0.06-0.24,0.17c-0.06,0.11-0.09,0.22-0.09,0.32c0,0.26,0.25,0.45,0.75,0.55c0.29,0.06,0.71,0.09,1.24,0.09l0.23,0
		c0.49,0,0.88-0.03,1.2-0.09c0.58-0.11,0.86-0.31,0.86-0.61c0-0.22-0.21-0.48-0.62-0.76c-0.16-0.11-0.46-0.29-0.9-0.52
		c0.29-0.05,0.53-0.12,0.72-0.19c0.33-0.13,0.49-0.29,0.49-0.47C28.08,25.83,27.91,25.63,27.58,25.36z M26.33,21.29
		c0.24,0.05,0.5,0.12,0.77,0.22c-0.03,0.07,0.05,0.16,0.23,0.25c0.19,0.1,0.28,0.23,0.28,0.39c0,0.16-0.09,0.27-0.28,0.33
		c-0.12,0.04-0.28,0.06-0.47,0.07c-0.37,0-0.77-0.07-1.19-0.2c-0.54-0.18-0.81-0.42-0.81-0.71c0-0.13,0.05-0.24,0.16-0.31
		c0.11-0.08,0.29-0.11,0.54-0.11C25.83,21.22,26.09,21.24,26.33,21.29z M28.26,21.85c0.1-0.08,0.14-0.18,0.14-0.3
		c0-0.34-0.38-0.63-1.15-0.88c-0.61-0.2-1.13-0.29-1.58-0.29c-0.46,0-0.84,0.1-1.12,0.31c-0.32,0.23-0.48,0.56-0.47,1.01
		c0,0.58,0.32,1.03,0.97,1.35c0.5,0.25,1.08,0.38,1.73,0.37c0.42,0,0.78-0.08,1.08-0.25c0.37-0.2,0.56-0.49,0.56-0.88
		C28.42,22.14,28.36,21.99,28.26,21.85z M25.62,18.4c-0.35-0.35-0.52-0.77-0.52-1.26c1.34,0,2.65,0.08,3.94,0.24
		c-0.19,0.44-0.48,0.81-0.87,1.1s-0.81,0.43-1.28,0.44C26.39,18.92,25.96,18.75,25.62,18.4z M29.53,16.28l-0.18,0.17
		c-0.73-0.07-1.43-0.12-2.12-0.16c-0.69-0.04-1.36-0.06-2-0.05h-0.19c-0.28,0-0.5,0.03-0.66,0.08c-0.23,0.08-0.34,0.23-0.34,0.44
		c0.05,0.19,0.1,0.39,0.15,0.58c0.07,0.71,0.36,1.3,0.87,1.77c0.51,0.47,1.11,0.7,1.82,0.7c0.78,0,1.53-0.32,2.24-0.96
		c0.73-0.66,1.09-1.37,1.09-2.15c0-0.14-0.04-0.26-0.12-0.35c-0.08-0.1-0.19-0.14-0.32-0.14L29.53,16.28z"/>
</g>
</svg>
