<?xml version="1.0" encoding="utf-8"?>
<!-- Generator: Adobe Illustrator 16.0.0, SVG Export Plug-In . SVG Version: 6.00 Build 0)  -->
<!DOCTYPE svg PUBLIC "-//W3C//DTD SVG 1.1//EN" "http://www.w3.org/Graphics/SVG/1.1/DTD/svg11.dtd">
<svg version="1.1" id="Layer_1" xmlns="http://www.w3.org/2000/svg" xmlns:xlink="http://www.w3.org/1999/xlink" x="0px" y="0px"
	 width="172.507px" height="241.911px" viewBox="0 0 172.507 241.911" enable-background="new 0 0 172.507 241.911"
	 xml:space="preserve">
<g>
	<g>
		<g>
			<rect fill="#FFFFFF" width="172.507" height="237.708"/>
			<rect x="11.271" y="11.27" fill="#D5ECEE" width="149.966" height="215.166"/>
			<g>
				
					<radialGradient id="SVGID_1_" cx="-5905.8101" cy="-3122.1724" r="51.475" gradientTransform="matrix(-0.8922 0 0 -0.8922 -5141.8364 -2664.6624)" gradientUnits="userSpaceOnUse">
					<stop  offset="0.2304" style="stop-color:#FFD844"/>
					<stop  offset="0.4334" style="stop-color:#FFD442"/>
					<stop  offset="0.6226" style="stop-color:#FDC937"/>
					<stop  offset="0.8058" style="stop-color:#FAB72A"/>
					<stop  offset="0.9162" style="stop-color:#F7A71E"/>
				</radialGradient>
				<path fill="url(#SVGID_1_)" d="M96.604,124c1.416,0.086,2.615,1.131,2.896,2.539c0.285,1.437-0.449,2.84-1.703,3.457
					c0.138-0.02,0.271-0.026,0.412-0.026c1.287,0,2.433,0.771,2.924,1.954c0.324,0.781,0.324,1.641,0,2.424
					c-0.217,0.52-0.559,0.967-0.993,1.299c0.319-0.111,0.664-0.163,1.014-0.163c1.062,0,2.043,0.519,2.636,1.403
					c0.467,0.701,0.631,1.548,0.473,2.376c-0.111,0.552-0.355,1.055-0.721,1.466c0.475-0.275,1.014-0.421,1.58-0.421
					c0.842,0,1.635,0.331,2.234,0.933c0.594,0.596,0.928,1.389,0.928,2.231c0,0.567-0.146,1.108-0.42,1.585
					c0.564-0.5,1.303-0.786,2.09-0.786c0.625,0,1.23,0.187,1.754,0.534c0.701,0.468,1.188,1.186,1.344,2.017
					c0.113,0.548,0.07,1.111-0.102,1.63c0.584-0.771,1.508-1.234,2.508-1.234c0.416,0,0.821,0.078,1.215,0.238
					c1.353,0.563,2.104,1.959,1.925,3.347c0.521-1.062,1.614-1.771,2.833-1.771c0.215,0,0.425,0.021,0.619,0.063
					c0.834,0.165,1.547,0.642,2.017,1.346c0.315,0.47,0.493,1.003,0.531,1.552c0.358-1.351,1.597-2.346,3.059-2.346
					c1.458,0,2.695,0.996,3.056,2.346c0.041-0.547,0.22-1.082,0.535-1.553c0.467-0.704,1.178-1.18,2.01-1.345
					c0.199-0.042,0.412-0.063,0.619-0.063c1.226,0,2.315,0.71,2.836,1.771c-0.181-1.388,0.572-2.783,1.927-3.347
					c0.39-0.16,0.801-0.238,1.212-0.238c1.006,0,1.925,0.464,2.512,1.236c-0.443-1.322,0.03-2.836,1.239-3.647
					c0.524-0.349,1.132-0.534,1.757-0.534c0.781,0,1.521,0.286,2.09,0.786c-0.275-0.478-0.423-1.019-0.423-1.585
					c0-0.844,0.335-1.641,0.929-2.232c0.599-0.601,1.396-0.932,2.237-0.932c0.563,0,1.104,0.146,1.577,0.422
					c-0.916-1.051-1.059-2.63-0.247-3.844c0.59-0.885,1.574-1.404,2.638-1.404c0.348,0,0.688,0.053,1.012,0.165
					c-1.106-0.849-1.556-2.37-0.996-3.724c0.492-1.185,1.638-1.954,2.928-1.954c0.135,0,0.271,0.012,0.414,0.026
					c-1.255-0.617-1.993-2.021-1.706-3.457c0.28-1.408,1.479-2.453,2.896-2.539c-1.351-0.363-2.344-1.602-2.344-3.064
					c0-1.454,0.993-2.693,2.344-3.055c-1.414-0.089-2.613-1.129-2.896-2.543c-0.171-0.826,0-1.672,0.476-2.371
					c0.311-0.472,0.731-0.84,1.228-1.079c-0.138,0.017-0.274,0.023-0.409,0.023c-1.29,0-2.436-0.769-2.928-1.95
					c-0.319-0.788-0.319-1.646,0-2.435c0.22-0.514,0.559-0.959,0.994-1.291c-0.32,0.11-0.662,0.164-1.01,0.164
					c-1.063,0-2.048-0.524-2.638-1.407c-0.468-0.702-0.637-1.544-0.472-2.374c0.111-0.549,0.354-1.059,0.719-1.467
					c-0.475,0.274-1.016,0.423-1.577,0.423c-0.844,0-1.641-0.333-2.237-0.932c-1.039-1.032-1.197-2.611-0.506-3.819
					c-0.566,0.498-1.309,0.783-2.09,0.783c-0.625,0-1.234-0.179-1.757-0.53c-0.699-0.469-1.183-1.186-1.343-2.016
					c-0.115-0.552-0.073-1.111,0.103-1.632c-0.586,0.767-1.505,1.238-2.511,1.238c-0.411,0-0.822-0.083-1.212-0.244
					c-1.354-0.563-2.104-1.958-1.927-3.342c-0.521,1.06-1.61,1.771-2.836,1.771c-0.207,0-0.42-0.024-0.619-0.064
					c-1.434-0.284-2.455-1.504-2.545-2.898c-0.358,1.351-1.598,2.346-3.055,2.346c-1.463,0-2.699-0.993-3.059-2.346
					c-0.039,0.556-0.217,1.085-0.532,1.553c-0.47,0.702-1.183,1.182-2.017,1.347c-0.194,0.04-0.404,0.063-0.618,0.063
					c-1.22,0-2.313-0.71-2.833-1.771c0.181,1.384-0.573,2.78-1.926,3.342c-0.393,0.161-0.799,0.244-1.215,0.244
					c-1.002,0-1.924-0.472-2.51-1.241c0.443,1.326-0.031,2.838-1.24,3.649c-0.521,0.353-1.129,0.53-1.754,0.53
					c-0.787,0-1.522-0.285-2.09-0.783c0.692,1.208,0.53,2.787-0.508,3.819c-0.602,0.599-1.395,0.932-2.232,0.932
					c-0.572,0-1.112-0.148-1.586-0.423c0.92,1.049,1.062,2.626,0.252,3.845c-0.592,0.879-1.57,1.403-2.636,1.403
					c-0.351,0-0.692-0.053-1.018-0.165c1.106,0.849,1.557,2.366,0.997,3.727c-0.491,1.182-1.637,1.95-2.924,1.95
					c-0.139,0-0.271-0.008-0.41-0.023c0.49,0.239,0.912,0.607,1.228,1.079c0.474,0.699,0.646,1.545,0.476,2.371
					c-0.28,1.414-1.479,2.454-2.896,2.543c1.351,0.361,2.345,1.601,2.345,3.055C98.947,122.4,97.953,123.637,96.604,124z"/>
				
					<radialGradient id="SVGID_2_" cx="-5855.9551" cy="-2870.2041" r="39.423" gradientTransform="matrix(-0.937 0 0 -0.937 -5365.4619 -2564.4414)" gradientUnits="userSpaceOnUse">
					<stop  offset="0.2304" style="stop-color:#FFD844"/>
					<stop  offset="0.4026" style="stop-color:#FFD440"/>
					<stop  offset="0.6021" style="stop-color:#FDC631"/>
					<stop  offset="0.8145" style="stop-color:#F9B120"/>
					<stop  offset="0.8226" style="stop-color:#F9AF1E"/>
				</radialGradient>
				<path fill="url(#SVGID_2_)" d="M127.649,145.17c13.39,0,24.231-10.846,24.231-24.234c0-13.383-10.844-24.229-24.231-24.229
					c-13.381,0-24.229,10.845-24.229,24.229C103.419,134.325,114.269,145.17,127.649,145.17z"/>
			</g>
			<rect x="8.01" y="130.015" fill="#FFFFFF" width="160.005" height="6.551"/>
			<rect x="11.271" y="11.27" opacity="0.38" fill="#94B2B0" enable-background="new    " width="149.966" height="118.745"/>
			<rect x="11.271" y="119.819" opacity="0.1" fill="#010202" enable-background="new    " width="149.966" height="6.549"/>
			<g id="nuvens">
								<animateTransform attributeName="transform"
    type="translate"
    from="-150 0"
    to="150 0"
    begin="0s"
    dur="30s"
    repeatCount="indefinite"
  />
				<path opacity="0.4" fill="#FFFFFF" enable-background="new    " d="M54.577,99.642c0-2.704-2.19-4.897-4.895-4.897
					c-0.198,0-0.393,0.016-0.585,0.039c-0.35-1.927-2.027-3.39-4.055-3.39c-0.552,0-1.076,0.111-1.556,0.307
					c-0.885-3.293-3.892-5.717-7.463-5.717c-4.27,0-7.73,3.461-7.73,7.73c0,0.215,0.012,0.427,0.027,0.637
					c-0.649-0.244-1.352-0.38-2.09-0.38c-3.271,0-5.925,2.654-5.925,5.927h34.256C54.571,99.813,54.577,99.729,54.577,99.642z"/>
				<path opacity="0.4" fill="#FFFFFF" enable-background="new    " d="M154.38,80.314c-0.77-3.536-3.914-6.185-7.68-6.185
					c-1.174,0-2.283,0.258-3.283,0.721c0.037-0.32,0.063-0.646,0.063-0.979c0-4.27-3.46-7.73-7.73-7.73
					c-4.271,0-7.729,3.461-7.729,7.73c0,0.089,0.004,0.175,0.008,0.263c-0.754-0.333-1.582-0.521-2.455-0.521
					c-3.345,0-6.056,2.712-6.056,6.057c0,0.218,0.011,0.433,0.031,0.646h34.832V80.314L154.38,80.314z"/>
				<path opacity="0.4" fill="#FFFFFF" enable-background="new    " d="M53.542,51.196c0.001-0.043,0.006-0.084,0.006-0.129
					c0-2.348-1.903-4.25-4.252-4.25c-0.92,0-1.771,0.294-2.467,0.792c-0.188-2.745-2.472-4.916-5.265-4.916
					c-2.537,0-4.656,1.792-5.164,4.179c-0.427-0.2-0.902-0.313-1.405-0.313c-1.852,0-3.352,1.499-3.352,3.351
					c0,0.456,0.092,0.891,0.258,1.288L53.542,51.196L53.542,51.196z"/>
				<g>
					<path opacity="0.51" fill="#FFFFFF" enable-background="new    " d="M34.995,47.846c0.503,0,0.979,0.115,1.405,0.313
						c0.508-2.388,2.627-4.178,5.164-4.178c2.793,0,5.077,2.17,5.265,4.915c0.695-0.496,1.547-0.792,2.467-0.792
						c1.946,0,3.581,1.309,4.088,3.093h0.158c0.001-0.043,0.006-0.084,0.006-0.129c0-2.348-1.903-4.25-4.252-4.25
						c-0.92,0-1.771,0.294-2.467,0.792c-0.188-2.745-2.472-4.916-5.265-4.916c-2.537,0-4.656,1.792-5.164,4.179
						c-0.427-0.2-0.902-0.313-1.405-0.313c-1.852,0-3.352,1.499-3.352,3.351c0,0.22,0.023,0.436,0.064,0.644
						C32.008,49.01,33.364,47.846,34.995,47.846z"/>
					<path opacity="0.51" fill="#FFFFFF" enable-background="new    " d="M26.232,95.261c0.738,0,1.439,0.135,2.09,0.38
						c-0.017-0.21-0.027-0.421-0.027-0.638c0-4.271,3.462-7.73,7.73-7.73c3.572,0,6.578,2.426,7.463,5.718
						c0.479-0.195,1.004-0.307,1.556-0.307c2.026,0,3.705,1.462,4.055,3.39c0.192-0.023,0.387-0.039,0.585-0.039
						c2.349,0,4.311,1.658,4.783,3.866h0.098c0.008-0.086,0.014-0.17,0.014-0.257c0-2.704-2.19-4.897-4.895-4.897
						c-0.198,0-0.393,0.016-0.585,0.039c-0.35-1.926-2.027-3.39-4.055-3.39c-0.552,0-1.076,0.111-1.556,0.307
						c-0.885-3.293-3.891-5.717-7.463-5.717c-4.27,0-7.73,3.461-7.73,7.73c0,0.215,0.012,0.427,0.027,0.637
						c-0.649-0.243-1.352-0.38-2.09-0.38c-3.271,0-5.925,2.654-5.925,5.928h0.14C21.037,97.244,23.403,95.261,26.232,95.261z"/>
					<path opacity="0.51" fill="#FFFFFF" enable-background="new    " d="M143.48,75.162c0,0.331-0.023,0.656-0.063,0.976
						c1-0.46,2.109-0.719,3.283-0.719c3.293,0,6.11,2.025,7.28,4.896h0.397c-0.77-3.536-3.914-6.185-7.68-6.185
						c-1.15,0-2.244,0.251-3.229,0.696C143.479,74.938,143.48,75.048,143.48,75.162z"/>
					<path opacity="0.51" fill="#FFFFFF" enable-background="new    " d="M128.021,73.872c0,0.089,0.004,0.175,0.008,0.263
						c-0.754-0.333-1.582-0.521-2.455-0.521c-3.345,0-6.056,2.712-6.056,6.057c0,0.218,0.011,0.432,0.032,0.645
						c0.322-3.042,2.896-5.41,6.021-5.41c0.873,0,1.701,0.187,2.455,0.52c-0.004-0.088-0.008-0.174-0.008-0.262
						c0-4.271,3.458-7.731,7.729-7.731c4.049,0,7.367,3.111,7.703,7.072c0.021-0.208,0.028-0.417,0.028-0.63
						c0-4.27-3.46-7.73-7.731-7.73C131.479,66.142,128.021,69.603,128.021,73.872z"/>
				</g>
			</g>
			<g>
				<g>
					<g>
						<defs>
							<rect id="SVGID_3_" x="11.271" y="11.27" width="149.966" height="215.166"/>
						</defs>
						<clipPath id="SVGID_4_">
							<use xlink:href="#SVGID_3_"  overflow="visible"/>
						</clipPath>
						<g clip-path="url(#SVGID_4_)">
							<g>
								<g>
									
										<linearGradient id="SVGID_5_" gradientUnits="userSpaceOnUse" x1="4514.7729" y1="533.7358" x2="4591.5737" y2="533.7358" gradientTransform="matrix(-1 0 0 1 4631.3467 -350.7148)">
										<stop  offset="0.3039" style="stop-color:#90AB3E"/>
										<stop  offset="0.4537" style="stop-color:#8EAA3D"/>
										<stop  offset="0.5422" style="stop-color:#85A73E"/>
										<stop  offset="0.6147" style="stop-color:#77A341"/>
										<stop  offset="0.6786" style="stop-color:#629C40"/>
										<stop  offset="0.7369" style="stop-color:#489343"/>
										<stop  offset="0.7905" style="stop-color:#298945"/>
										<stop  offset="0.8406" style="stop-color:#017C49"/>
										<stop  offset="0.8441" style="stop-color:#037B49"/>
									</linearGradient>
									<polygon fill="url(#SVGID_5_)" points="77.004,139.571 116.574,226.47 39.773,226.47 									"/>
									<polygon fill="#FEFBE4" points="74.865,171.935 68.498,183.303 61.914,174.792 77.004,139.571 93.535,175.874 
										92.373,180.174 87.182,172.479 82.202,187.094 									"/>
									<polygon display="none" fill="#CFD5B8" points="77.004,139.571 71.419,226.47 39.773,226.47 									"/>
								</g>
								<polygon display="none" fill="#A19C9A" points="71.004,139.571 55.914,174.792 55.914,174.792 33.773,226.47 65.419,226.47 
									110.574,226.47 								"/>
								<g>
									
										<linearGradient id="SVGID_6_" gradientUnits="userSpaceOnUse" x1="353.4312" y1="553.1675" x2="413.0874" y2="553.1675" gradientTransform="matrix(1 0 0 1 -341.7998 -350.7148)">
										<stop  offset="0.3039" style="stop-color:#90AB3E"/>
										<stop  offset="0.4969" style="stop-color:#8EAA3D"/>
										<stop  offset="0.6109" style="stop-color:#85A73E"/>
										<stop  offset="0.7044" style="stop-color:#77A341"/>
										<stop  offset="0.7868" style="stop-color:#629C40"/>
										<stop  offset="0.8619" style="stop-color:#489343"/>
										<stop  offset="0.931" style="stop-color:#298945"/>
										<stop  offset="0.9955" style="stop-color:#017C49"/>
										<stop  offset="1" style="stop-color:#037B49"/>
									</linearGradient>
									<polygon fill="url(#SVGID_6_)" points="39.124,178.433 11.632,226.47 71.287,226.47 									"/>
									<polygon fill="#FEFBE4" points="39.124,178.433 27.134,199.383 29.813,206 34.635,197.677 39.842,210.29 45.63,196.665 
										50.839,204.743 52.818,198.883 									"/>
								</g>
							</g>
							<g>
								<g>
									
										<linearGradient id="SVGID_7_" gradientUnits="userSpaceOnUse" x1="-380.0181" y1="553.1675" x2="-320.3657" y2="553.1675" gradientTransform="matrix(-1 0 0 1 -231.4424 -350.7148)">
										<stop  offset="0.3039" style="stop-color:#90AB3E"/>
										<stop  offset="0.4969" style="stop-color:#8EAA3D"/>
										<stop  offset="0.6109" style="stop-color:#85A73E"/>
										<stop  offset="0.7044" style="stop-color:#77A341"/>
										<stop  offset="0.7868" style="stop-color:#629C40"/>
										<stop  offset="0.8619" style="stop-color:#489343"/>
										<stop  offset="0.931" style="stop-color:#298945"/>
										<stop  offset="0.9955" style="stop-color:#017C49"/>
										<stop  offset="1" style="stop-color:#037B49"/>
									</linearGradient>
									<polygon fill="url(#SVGID_7_)" points="121.083,178.433 148.576,226.47 88.923,226.47 									"/>
									<polygon fill="#FEFBE4" points="121.083,178.433 133.072,199.383 130.396,206 125.574,197.677 120.367,210.29 
										114.58,196.665 109.371,204.743 107.391,198.883 									"/>
								</g>
							</g>
						</g>
					</g>
				</g>
			</g>
			<g id="nuvem2">

								<animateTransform attributeName="transform"
    type="translate"
    from="-150 0"
    to="50 0"
    begin="0s"
    dur="30s"
    repeatCount="indefinite"
  />
				<path opacity="0.4" fill="#FFFFFF" enable-background="new    " d="M108.542,156.562c0-0.089-0.012-0.176-0.012-0.267
					c0-4.864,3.942-8.81,8.809-8.81c3.068,0,5.771,1.571,7.349,3.953c0.933-6.462,6.487-11.427,13.21-11.427
					c7.369,0,13.348,5.976,13.348,13.347c0,1.104-0.139,2.177-0.391,3.203H108.542L108.542,156.562z"/>
				<path opacity="0.51" fill="#FFFFFF" enable-background="new    " d="M137.897,140.013c-6.722,0-12.278,4.965-13.21,11.427
					c-1.575-2.381-4.277-3.953-7.348-3.953c-4.865,0-8.81,3.944-8.81,8.809c0,0.092,0.013,0.179,0.013,0.268h0.537
					c1.236-3.367,4.463-5.771,8.26-5.771c3.068,0,5.771,1.571,7.348,3.955c0.932-6.465,6.488-11.432,13.21-11.432
					c6.821,0,12.437,5.121,13.238,11.729c0.069-0.551,0.106-1.112,0.106-1.684C151.244,145.988,145.267,140.013,137.897,140.013z"/>
			</g>
			<rect x="75.951" y="113.096" fill="#FFFFFF" width="22.116" height="4.975"/>
			<rect y="237.032" opacity="0.1" fill="#010202" enable-background="new    " width="172.458" height="4.879"/>
			<polygon opacity="0.1" fill="#010202" enable-background="new    " points="161.216,11.243 11.328,11.243 11.306,129.95 
				16.186,129.95 16.186,16.123 161.216,16.123 			"/>
			<rect x="11.271" y="117.563" fill="#FFFFFF" width="149.966" height="6.552"/>
		</g>
	</g>
</g>
</svg>
