<?xml version="1.0" encoding="utf-8"?>
<!-- Generator: Adobe Illustrator 16.0.0, SVG Export Plug-In . SVG Version: 6.00 Build 0)  -->
<!DOCTYPE svg PUBLIC "-//W3C//DTD SVG 1.1//EN" "http://www.w3.org/Graphics/SVG/1.1/DTD/svg11.dtd">
<svg version="1.1" id="Layer_1" xmlns="http://www.w3.org/2000/svg" xmlns:xlink="http://www.w3.org/1999/xlink" x="0px" y="0px"
	 width="660.484px" height="668.79px" viewBox="0 0 660.484 668.79" enable-background="new 0 0 660.484 668.79"
	 xml:space="preserve">
<g>
	<g>
		<g>
			<rect fill="#F7F9E4" width="660.484" height="664.517"/>
		</g>
		<g>
			<rect y="526.269" fill="#D5B79D" width="660.484" height="142.521"/>
		</g>
		<g>
			<rect y="526.269" fill="#E5CAAF" width="660.484" height="20.905"/>
		</g>
		<g>
			<rect y="649.186" fill="#E5CAAF" width="660.484" height="19.604"/>
		</g>
	</g>
	<g>
		<g>
			<g opacity="0.6">
				<defs>
					<rect id="SVGID_1_" x="141.637" y="19.395" opacity="0.6" width="396.054" height="285.701"/>
				</defs>
				<clipPath id="SVGID_2_">
					<use xlink:href="#SVGID_1_"  overflow="visible"/>
				</clipPath>
				<g clip-path="url(#SVGID_2_)">
					<g>
						<path fill="#AADDE2" d="M254.569,18.57c4.988,3.387,12.858,5.574,21.718,5.574c8.616,0,16.294-2.07,21.297-5.298
							C283.247,18.751,268.907,18.658,254.569,18.57z"/>
					</g>
					<g>
						<path fill="#AADDE2" d="M288.041,18.782c-0.016,0.163-0.056,0.323-0.056,0.487c0,5.923,10.913,10.724,24.375,10.724
							c13.46,0,24.372-4.801,24.372-10.724c0-0.061-0.02-0.12-0.021-0.181C320.487,18.994,304.265,18.89,288.041,18.782z"/>
					</g>
					<g>
						<path fill="#AADDE2" d="M331.213,19.058c1.847,6.747,11.893,11.911,24.042,11.911c12.009,0,21.967-5.043,23.979-11.674
							C363.228,19.233,347.221,19.154,331.213,19.058z"/>
					</g>
					<g>
						<ellipse fill="#AADDE2" cx="210.967" cy="49.004" rx="34.122" ry="11.211"/>
					</g>
					<g>
						<ellipse fill="#AADDE2" cx="277.262" cy="68.015" rx="17.549" ry="6.338"/>
					</g>
					<g>
						<ellipse fill="#AADDE2" cx="370.854" cy="83.126" rx="34.123" ry="15.111"/>
					</g>
					<g>
						<ellipse fill="#AADDE2" cx="402.539" cy="68.99" rx="18.036" ry="9.75"/>
					</g>
					<g>
						<polygon fill="#B6B7D3" points="514.168,116.761 514.168,18.294 494.183,18.294 494.183,44.129 467.372,70.94 429.35,70.94 
							429.35,260.076 404.002,260.076 404.002,125.536 354.28,125.536 354.28,151.858 345.506,151.858 345.506,187.435 
							318.208,187.435 318.208,288.188 295.7,288.188 295.7,200.604 268.488,200.604 268.488,177.769 251.913,177.769 
							251.913,155.758 233.39,155.758 233.39,126.511 182.694,126.511 182.694,225.307 151.156,225.307 151.156,301.249 
							533.438,301.249 533.438,116.761 						"/>
					</g>
					<g>
						<g>
							<path fill-rule="evenodd" clip-rule="evenodd" fill="#FDC95C" d="M231.1,301.249h7.563v-25.982h4.756l-1.263,25.982h11.799
								l-1.262-25.982h4.819v25.982h7.763v-2.103c5.678,0.101,10.958,0.425,16.11,0.712l-0.121-2.837
								c-4.791-0.296-9.888-0.879-16-1.111v-3.303c5.745,0.164,10.896,0.661,15.856,1.097l-0.123-2.789
								c-4.53-0.4-9.463-1.186-15.745-1.504v-3.21c5.811,0.227,10.83,0.897,15.596,1.486c-0.042-0.918-0.085-1.833-0.131-2.752
								c-4.261-0.508-9.033-1.485-15.471-1.888v-3.118c5.866,0.287,10.75,1.125,15.316,1.864c-0.047-0.906-0.094-1.811-0.142-2.72
								c-3.995-0.62-8.6-1.782-15.177-2.267v-3.026c5.906,0.345,10.647,1.348,15.006,2.235c-0.05-0.898-0.102-1.795-0.156-2.696
								c-3.723-0.735-8.162-2.071-14.85-2.631v-2.936c5.928,0.405,10.519,1.557,14.667,2.591c-0.057-0.897-0.116-1.792-0.175-2.687
								c-3.458-0.852-7.729-2.341-14.486-2.975v-2.844c5.92,0.457,10.354,1.751,14.283,2.923c-0.063-0.896-0.129-1.793-0.198-2.687
								c-3.193-0.971-7.303-2.587-14.078-3.285v-2.755c5.877,0.51,10.15,1.921,13.855,3.224c-0.074-0.902-0.15-1.806-0.228-2.708
								c-2.941-1.089-6.896-2.798-13.618-3.549v-2.664c5.797,0.553,9.898,2.06,13.374,3.478c-0.086-0.918-0.173-1.839-0.264-2.757
								c-2.712-1.199-6.518-2.948-13.096-3.743v-2.57c5.657,0.59,9.584,2.155,12.827,3.666c-0.099-0.946-0.199-1.894-0.305-2.84
								c-2.512-1.292-6.178-3.026-12.507-3.84v-2.48c5.46,0.617,9.201,2.197,12.217,3.776c-0.117-0.99-0.236-1.976-0.357-2.965
								c-2.357-1.353-5.878-3.006-11.845-3.819v-2.389c5.19,0.625,8.735,2.178,11.529,3.78c-0.345-2.625-0.72-5.249-1.127-7.873
								l-18.199-5.835v16.897h-6.397l-0.762-35.75h4.853v-10.398h-5.135l-0.544-12.595c1.791-0.611,3.077-2.308,3.077-4.305
								c0-1.97-1.257-3.65-3.009-4.283l-0.697-16.272l-0.844-19.743l-0.846,19.743l-0.695,16.274
								c-1.754,0.631-3.011,2.311-3.011,4.281c0,1.997,1.288,3.694,3.08,4.305l-0.543,12.595h-7.377V169.32l-26.616,1.44
								c-0.342,3.358-0.047,15.17-0.354,18.528c4.955-3.343,12.604-6.958,21.771-6.967c0,1.082-0.325,1.516-0.325,2.599
								c-8.783-0.205-16.638,3.251-21.628,6.401c-0.116,1.334-0.235,2.666-0.346,4c4.893-3.324,12.725-7.17,22.178-7.182
								c0,1.089-0.308,1.558-0.308,2.646c-9.028-0.204-17.082,3.423-22.039,6.531c-0.111,1.339-0.218,2.68-0.325,4.019
								c4.818-3.26,12.83-7.333,22.551-7.344c0,1.093-0.292,1.599-0.292,2.693c-9.252-0.204-17.492,3.576-22.409,6.608
								c-0.107,1.344-0.207,2.69-0.306,4.033c4.732-3.155,12.911-7.439,22.887-7.45c0,1.098-0.277,1.641-0.277,2.739
								c-9.454-0.199-17.866,3.709-22.749,6.631c-0.098,1.349-0.19,2.694-0.283,4.042c4.641-3.003,12.972-7.483,23.19-7.492
								c0,1.102-0.264,1.681-0.264,2.783c-9.636-0.197-18.204,3.813-23.054,6.598c-0.089,1.347-0.176,2.691-0.264,4.035
								c4.552-2.804,13.029-7.455,23.46-7.465c0,1.109-0.248,1.726-0.248,2.832c-9.792-0.192-18.497,3.886-23.33,6.507
								c-0.081,1.336-0.163,2.674-0.243,4.012c4.471-2.568,13.079-7.354,23.699-7.364c0,1.115-0.23,1.766-0.23,2.879
								c-9.919-0.188-18.749,3.918-23.575,6.357c-0.076,1.325-0.151,2.647-0.226,3.973c4.405-2.294,13.131-7.178,23.909-7.187
								c0,1.117-0.215,1.806-0.215,2.924c-10.014-0.179-18.943,3.915-23.793,6.153c-0.071,1.305-0.137,2.608-0.205,3.912
								c4.367-1.996,13.192-6.923,24.092-6.932c0,1.124-0.203,1.847-0.203,2.971c-10.077-0.172-19.084,3.867-23.987,5.896
								c-0.062,1.275-0.125,2.554-0.184,3.83c4.368-1.681,13.275-6.592,24.25-6.604c0,1.132-0.187,1.892-0.187,3.02
								c-10.106-0.164-19.173,3.774-24.156,5.593c-0.057,1.238-0.114,2.482-0.169,3.726c4.418-1.369,13.387-6.198,24.389-6.207
								c0,1.135-0.17,1.929-0.17,3.063c-10.101-0.151-19.202,3.638-24.31,5.244c-0.051,1.202-0.101,2.406-0.15,3.609
								c4.526-1.067,13.533-5.741,24.507-5.749c0,1.14-0.154,1.969-0.154,3.11c-10.062-0.142-19.177,3.455-24.441,4.857
								c-0.047,1.159-0.091,2.323-0.136,3.483c4.695-0.798,13.719-5.24,24.608-5.248c0,1.143-0.14,2.009-0.14,3.157
								c-9.993-0.132-19.097,3.23-24.556,4.438c-0.041,1.117-0.081,2.236-0.121,3.355c4.926-0.564,13.94-4.703,24.691-4.711
								c0,1.151-0.123,2.055-0.123,3.205c-9.893-0.12-18.969,2.971-24.657,3.997l-0.108,3.224c5.215-0.37,14.198-4.14,24.763-4.146
								c0,1.155-0.108,2.095-0.108,3.25c-9.764-0.104-18.794,2.678-24.741,3.535l-0.1,3.099c5.558-0.217,14.489-3.562,24.822-3.566
								c0,1.16-0.091,2.135-0.091,3.294c-9.614-0.089-18.582,2.358-24.819,3.059l-0.088,2.985c5.947-0.11,14.81-2.975,24.875-2.981
								c0,1.169-0.079,2.177-0.079,3.343c-9.443-0.076-18.335,2.006-24.884,2.565l-0.081,2.876
								c6.375-0.036,15.151-2.382,24.915-2.387c0,1.17-0.061,2.217-0.061,3.389c-9.253-0.061-18.059,1.636-24.938,2.065
								l-0.076,2.771c6.829,0.011,15.511-1.785,24.95-1.789c0,1.177-0.047,2.259-0.047,3.437
								c-9.049-0.046-17.757,1.247-24.989,1.556l-0.072,2.678c7.314,0.027,15.892-1.191,24.98-1.193
								C231.12,299.705,231.109,300.474,231.1,301.249z M257.513,251.218v13.648h-5.885l-0.292-13.648H257.513z M238.663,205.067
								h7.093l-0.759,35.75h-6.334V205.067z M238.663,251.218h6.113l-0.292,13.648h-5.821V251.218z"/>
						</g>
					</g>
					<g>
						<g>
							<path fill="#001B20" d="M499.489,18.033v152.07h24.406V17.272C515.761,17.558,507.624,17.808,499.489,18.033z"/>
						</g>
						<g>
							<g>
								<rect x="512.803" y="97.437" fill="#0F2E00" width="20.636" height="66.563"/>
							</g>
							<g>
								<path d="M534.046,164.607h-21.851V96.829h21.851V164.607z M513.41,163.393h19.421V98.044H513.41V163.393z"/>
							</g>
						</g>
						<g>
							<polygon fill="#A9B342" points="499.489,151.242 499.489,301.249 533.438,301.249 533.438,48.396 500.598,23.663 
								500.598,104.093 530.554,104.093 530.554,151.242 							"/>
						</g>
						<g>
							<g>
								<g>
									<rect x="506.561" y="165.11" fill="#F2F5EB" width="13.313" height="13.313"/>
								</g>
								<g>
									<rect x="506.561" y="187.458" fill="#F2F5EB" width="13.313" height="13.313"/>
								</g>
								<g>
									<rect x="506.561" y="209.803" fill="#F2F5EB" width="13.313" height="13.313"/>
								</g>
								<g>
									<rect x="506.561" y="232.151" fill="#F2F5EB" width="13.313" height="13.313"/>
								</g>
								<g>
									<rect x="506.561" y="254.5" fill="#F2F5EB" width="13.313" height="13.313"/>
								</g>
								<g>
									<rect x="506.561" y="276.845" fill="#F2F5EB" width="13.313" height="13.312"/>
								</g>
								<g>
									<rect x="506.561" y="299.192" fill="#F2F5EB" width="13.313" height="2.057"/>
								</g>
							</g>
							<g>
								<g>
									<rect x="527.271" y="165.11" fill="#F2F5EB" width="6.168" height="13.313"/>
								</g>
								<g>
									<rect x="527.271" y="187.458" fill="#F2F5EB" width="6.168" height="13.313"/>
								</g>
								<g>
									<rect x="527.271" y="209.803" fill="#F2F5EB" width="6.168" height="13.313"/>
								</g>
								<g>
									<rect x="527.271" y="232.151" fill="#F2F5EB" width="6.168" height="13.313"/>
								</g>
								<g>
									<rect x="527.271" y="254.5" fill="#F2F5EB" width="6.168" height="13.313"/>
								</g>
								<g>
									<rect x="527.271" y="276.845" fill="#F2F5EB" width="6.168" height="13.312"/>
								</g>
								<g>
									<rect x="527.271" y="299.192" fill="#F2F5EB" width="6.168" height="2.057"/>
								</g>
							</g>
						</g>
						<g>
							<g>
								<rect x="505.591" y="53.616" fill="#4A313E" width="26.071" height="2.218"/>
							</g>
							<g>
								<rect x="505.591" y="58.499" fill="#4A313E" width="26.071" height="2.219"/>
							</g>
							<g>
								<rect x="505.591" y="63.378" fill="#4A313E" width="26.071" height="2.22"/>
							</g>
							<g>
								<rect x="505.591" y="68.262" fill="#4A313E" width="26.071" height="2.219"/>
							</g>
							<g>
								<rect x="505.591" y="73.143" fill="#4A313E" width="26.071" height="2.218"/>
							</g>
							<g>
								<rect x="505.591" y="78.022" fill="#4A313E" width="26.071" height="2.219"/>
							</g>
						</g>
					</g>
					<g>
						<g>
							<rect x="163.313" y="89.834" fill="#380000" width="6.707" height="24.143"/>
						</g>
						<g>
							<rect x="181.645" y="89.834" fill="#380000" width="6.706" height="24.143"/>
						</g>
						<g>
							<rect x="156.248" y="103.248" fill="#380000" width="38.897" height="16.543"/>
						</g>
						<g>
							<rect x="151.156" y="116.661" fill="#54101A" width="49.132" height="16.543"/>
						</g>
						<g>
							<rect x="151.156" y="130.074" fill="#75103D" width="53.828" height="16.542"/>
						</g>
						<g>
							<rect x="151.156" y="141.251" fill="#75353D" width="60.533" height="39.344"/>
						</g>
						<g>
							<rect x="151.156" y="164.948" fill="#4C353D" width="65.675" height="136.3"/>
						</g>
						<g>
							<rect x="151.156" y="176.125" fill-rule="evenodd" clip-rule="evenodd" fill="#FDC95C" width="5.451" height="7.153"/>
						</g>
						<g>
							<rect x="162.866" y="185.067" fill-rule="evenodd" clip-rule="evenodd" fill="#FDC95C" width="7.154" height="7.154"/>
						</g>
						<g>
							<rect x="177.173" y="178.808" fill-rule="evenodd" clip-rule="evenodd" fill="#FDC95C" width="7.153" height="7.155"/>
						</g>
						<g>
							<rect x="191.481" y="190.433" fill-rule="evenodd" clip-rule="evenodd" fill="#FDC95C" width="7.152" height="7.155"/>
						</g>
						<g>
							<rect x="178.962" y="201.163" fill-rule="evenodd" clip-rule="evenodd" fill="#FDC95C" width="7.153" height="7.154"/>
						</g>
						<g>
							<rect x="151.156" y="203.846" fill-rule="evenodd" clip-rule="evenodd" fill="#FDC95C" width="5.451" height="7.154"/>
						</g>
						<g>
							<rect x="198.633" y="212.788" fill-rule="evenodd" clip-rule="evenodd" fill="#FDC95C" width="7.154" height="7.154"/>
						</g>
						<g>
							<rect x="170.914" y="223.518" fill-rule="evenodd" clip-rule="evenodd" fill="#FDC95C" width="7.153" height="7.154"/>
						</g>
						<g>
							<rect x="151.156" y="239.615" fill-rule="evenodd" clip-rule="evenodd" fill="#FDC95C" width="5.451" height="7.153"/>
						</g>
						<g>
							<rect x="196.844" y="243.191" fill-rule="evenodd" clip-rule="evenodd" fill="#FDC95C" width="7.154" height="7.154"/>
						</g>
						<g>
							<rect x="178.962" y="262.864" fill-rule="evenodd" clip-rule="evenodd" fill="#FDC95C" width="7.153" height="7.154"/>
						</g>
						<g>
							<rect x="171.808" y="244.98" fill-rule="evenodd" clip-rule="evenodd" fill="#FDC95C" width="7.154" height="7.153"/>
						</g>
						<g>
							<rect x="155.711" y="261.969" fill-rule="evenodd" clip-rule="evenodd" fill="#FDC95C" width="7.155" height="7.154"/>
						</g>
						<g>
							<rect x="198.633" y="267.334" fill-rule="evenodd" clip-rule="evenodd" fill="#FDC95C" width="7.154" height="7.156"/>
						</g>
						<g>
							<rect x="195.951" y="285.219" fill-rule="evenodd" clip-rule="evenodd" fill="#FDC95C" width="7.154" height="7.154"/>
						</g>
						<g>
							<rect x="174.49" y="279.854" fill-rule="evenodd" clip-rule="evenodd" fill="#FDC95C" width="7.154" height="7.154"/>
						</g>
						<g>
							<rect x="153.923" y="292.373" fill-rule="evenodd" clip-rule="evenodd" fill="#FDC95C" width="7.154" height="7.152"/>
						</g>
						<g>
							<rect x="151.156" y="225.307" fill-rule="evenodd" clip-rule="evenodd" fill="#FDC95C" width="0.085" height="7.153"/>
						</g>
						<g>
							<rect x="203.999" y="177.02" fill-rule="evenodd" clip-rule="evenodd" fill="#FDC95C" width="7.154" height="7.154"/>
						</g>
					</g>
					<g>
						<path fill="#74453D" d="M311.416,115.651h5.008c0.7,0,1.271-0.738,1.271-1.638v-1.403c0-0.899-0.571-1.635-1.271-1.635h-5.008
							c-0.698,0-1.272,0.736-1.272,1.635v1.403C310.144,114.913,310.718,115.651,311.416,115.651z"/>
					</g>
					<g>
						<polygon fill="#74453D" points="314.466,100.793 313.921,90.885 313.374,100.793 312.828,110.706 315.013,110.706 						"/>
					</g>
					<g>
						<g>
							<path fill="#74453D" d="M290.187,301.249v-94.731h-14.483v94.731H290.187z M289.847,298.747H278.99v-3.065h10.856V298.747z
								 M289.847,289.273H278.99v-3.063h10.856V289.273z M289.847,279.801H278.99v-3.063h10.856V279.801z M289.847,270.329H278.99
								v-3.061h10.856V270.329z M289.847,260.854H278.99v-3.06h10.856V260.854z M289.847,251.385H278.99v-3.062h10.856V251.385z
								 M289.847,241.913H278.99v-3.063h10.856V241.913z M289.847,232.439H278.99v-3.062h10.856V232.439z M289.847,222.97H278.99
								v-3.064h10.856V222.97z M278.989,210.435h10.858v3.063h-10.858V210.435z"/>
						</g>
					</g>
					<g>
						<g>
							<path fill="#74453D" d="M352.138,301.249v-94.731h-14.484v94.731H352.138z M337.992,210.435h10.861v3.063h-10.861V210.435z
								 M337.992,219.905h10.861v3.064h-10.861V219.905z M337.992,229.378h10.861v3.062h-10.861V229.378z M337.992,238.85h10.861
								v3.063h-10.861V238.85z M337.992,248.323h10.861v3.062h-10.861V248.323z M337.992,257.794h10.861v3.06h-10.861V257.794z
								 M337.992,267.268h10.861v3.061h-10.861V267.268z M337.992,276.738h10.861v3.063h-10.861V276.738z M337.992,286.211h10.861
								v3.063h-10.861V286.211z M337.992,295.681h10.861v3.065h-10.861V295.681z"/>
						</g>
					</g>
					<g>
						<polygon fill="#74453D" points="348.545,198.38 345.959,192.28 343.373,198.38 340.785,204.479 351.132,204.479 						"/>
					</g>
					<g>
						<polygon fill="#74453D" points="284.466,198.38 281.879,192.28 279.293,198.38 276.708,204.479 287.055,204.479 						"/>
					</g>
					<g>
						<g>
							<path fill="#74453D" d="M291.283,301.249h4.417v-5.025h6.257v5.025h23.93v-5.025h6.254v5.025h4.418V152.242h2.004v-11.414
								h-8.926l1.554-8.415h-9.648c-2.289-5.173-3.911-10.601-5.031-16.222h-5.182c-1.119,5.621-2.742,11.049-5.031,16.222h-9.651
								l1.557,8.415h-8.925v11.414h2.005V301.249z M332.141,293.861h-6.254v-5.674h6.254V293.861z M332.141,285.827h-6.254v-5.674
								h6.254V285.827z M332.141,277.794h-6.254v-5.677h6.254V277.794z M332.141,269.757h-6.254v-5.675h6.254V269.757z
								 M332.141,261.721h-6.254v-5.672h6.254V261.721z M332.141,253.688h-6.254v-5.674h6.254V253.688z M332.141,245.651h-6.254
								v-5.673h6.254V245.651z M332.141,237.617h-6.254v-5.674h6.254V237.617z M332.141,229.582h-6.254v-5.673h6.254V229.582z
								 M332.141,221.547h-6.254v-5.674h6.254V221.547z M332.141,213.512h-6.254v-5.674h6.254V213.512z M332.141,205.475h-6.254
								v-5.67h6.254V205.475z M332.141,197.44h-6.254v-5.672h6.254V197.44z M332.141,189.406h-6.254v-5.674h6.254V189.406z
								 M332.141,181.371h-6.254v-5.673h6.254V181.371z M332.141,173.335h-6.254v-5.673h6.254V173.335z M325.886,159.628h6.255
								v5.673h-6.255V159.628z M314.756,161.988h8.914v6.642h-8.914V161.988z M314.756,180.792h8.914v6.643h-8.914V180.792z
								 M314.756,199.599h8.914v6.64h-8.914V199.599z M314.756,218.4h8.914v6.644h-8.914V218.4z M314.756,237.207h8.914v6.642
								h-8.914V237.207z M314.756,256.012h8.914v6.641h-8.914V256.012z M314.756,274.817h8.914v6.641h-8.914V274.817z
								 M314.756,293.622h8.914v6.641h-8.914V293.622z M304.17,161.988h8.916v6.642h-8.916V161.988z M304.17,180.792h8.916v6.643
								h-8.916V180.792z M304.17,199.599h8.916v6.64h-8.916V199.599z M304.17,218.4h8.916v6.644h-8.916V218.4z M304.17,237.207
								h8.916v6.642h-8.916V237.207z M304.17,256.012h8.916v6.641h-8.916V256.012z M304.17,274.817h8.916v6.641h-8.916V274.817z
								 M304.17,293.622h8.916v6.641h-8.916V293.622z M295.7,159.628h6.257v5.673H295.7V159.628z M295.7,167.662h6.257v5.673H295.7
								V167.662z M295.7,175.697h6.257v5.673H295.7V175.697z M295.7,183.732h6.257v5.674H295.7V183.732z M295.7,191.768h6.257v5.672
								H295.7V191.768z M295.7,199.804h6.257v5.67H295.7V199.804z M295.7,207.838h6.257v5.674H295.7V207.838z M295.7,215.874h6.257
								v5.674H295.7V215.874z M295.7,223.908h6.257v5.673H295.7V223.908z M295.7,231.943h6.257v5.674H295.7V231.943z M295.7,239.978
								h6.257v5.673H295.7V239.978z M295.7,248.014h6.257v5.674H295.7V248.014z M295.7,256.049h6.257v5.672H295.7V256.049z
								 M295.7,264.083h6.257v5.675H295.7V264.083z M295.7,272.117h6.257v5.677H295.7V272.117z M295.7,280.152h6.257v5.674H295.7
								V280.152z M295.7,288.188h6.257v5.674H295.7V288.188z"/>
						</g>
					</g>
					<g>
						<rect x="361.06" y="192.051" fill-rule="evenodd" clip-rule="evenodd" fill="#74453D" width="72.131" height="109.198"/>
					</g>
					<g>
						<g>
							<path fill-rule="evenodd" clip-rule="evenodd" fill="#3D0000" d="M476.639,123.77c0,4.974-2.766,9.007-6.178,9.007h-29.175
								c-3.412,0-6.178-4.033-6.178-9.007v-16.014c0-4.974,2.766-9.007,6.178-9.007h29.175c3.412,0,6.178,4.033,6.178,9.007V123.77z
								"/>
						</g>
						<g>
							<path fill-rule="evenodd" clip-rule="evenodd" fill="#4C1836" d="M486.149,135.779c0,4.975-4.034,9.008-9.01,9.008h-42.533
								c-4.974,0-9.006-4.034-9.006-9.008v-16.013c0-4.974,4.032-9.007,9.006-9.007h42.533c4.976,0,9.01,4.033,9.01,9.007V135.779z"
								/>
						</g>
						<g>
							<rect x="417.093" y="129.278" fill-rule="evenodd" clip-rule="evenodd" fill="#4C3554" width="77.561" height="171.97"/>
						</g>
						<g>
							<rect x="425.601" y="141.034" fill-rule="evenodd" clip-rule="evenodd" fill="#AE8EA1" width="62.545" height="5.251"/>
						</g>
						<g>
							<rect x="430.104" y="153.793" fill-rule="evenodd" clip-rule="evenodd" fill="#AE8EA1" width="62.546" height="5.002"/>
						</g>
						<g>
							<rect x="423.599" y="166.304" fill-rule="evenodd" clip-rule="evenodd" fill="#AE8EA1" width="62.548" height="5.001"/>
						</g>
						<g>
							<rect x="428.603" y="177.438" fill-rule="evenodd" clip-rule="evenodd" fill="#AE8EA1" width="62.547" height="3.75"/>
						</g>
						<g>
							<rect x="423.099" y="197.454" fill-rule="evenodd" clip-rule="evenodd" fill="#AE8EA1" width="62.546" height="3.751"/>
						</g>
						<g>
							<rect x="427.603" y="211.965" fill-rule="evenodd" clip-rule="evenodd" fill="#AE8EA1" width="62.546" height="3.752"/>
						</g>
						<g>
							<rect x="425.099" y="220.471" fill-rule="evenodd" clip-rule="evenodd" fill="#AE8EA1" width="62.547" height="3.75"/>
						</g>
						<g>
							<rect x="431.104" y="230.478" fill-rule="evenodd" clip-rule="evenodd" fill="#AE8EA1" width="33.525" height="3.753"/>
						</g>
						<g>
							<rect x="458.126" y="241.988" fill-rule="evenodd" clip-rule="evenodd" fill="#AE8EA1" width="33.523" height="3.751"/>
						</g>
						<g>
							<rect x="455.623" y="189.447" fill-rule="evenodd" clip-rule="evenodd" fill="#AE8EA1" width="33.522" height="3.751"/>
						</g>
						<g>
							<rect x="429.603" y="264.506" fill-rule="evenodd" clip-rule="evenodd" fill="#AE8EA1" width="33.524" height="3.751"/>
						</g>
						<g>
							<rect x="434.105" y="290.526" fill-rule="evenodd" clip-rule="evenodd" fill="#AE8EA1" width="33.524" height="3.752"/>
						</g>
						<g>
							<rect x="442.613" y="274.014" fill-rule="evenodd" clip-rule="evenodd" fill="#AE8EA1" width="48.034" height="3.751"/>
						</g>
						<g>
							<rect x="424.098" y="297.032" fill-rule="evenodd" clip-rule="evenodd" fill="#AE8EA1" width="66.051" height="3.752"/>
						</g>
					</g>
					<g>
						<g>
							<g>
								<rect x="367.908" y="201.357" fill-rule="evenodd" clip-rule="evenodd" fill="#FDC95C" width="11.179" height="11.178"/>
							</g>
							<g>
								<rect x="384.677" y="201.357" fill-rule="evenodd" clip-rule="evenodd" fill="#FDC95C" width="11.18" height="11.178"/>
							</g>
							<g>
								<rect x="401.444" y="201.357" fill-rule="evenodd" clip-rule="evenodd" fill="#FDC95C" width="11.18" height="11.178"/>
							</g>
						</g>
						<g>
							<g>
								<rect x="367.908" y="216.856" fill-rule="evenodd" clip-rule="evenodd" fill="#FDC95C" width="11.179" height="11.178"/>
							</g>
							<g>
								<rect x="384.677" y="216.856" fill-rule="evenodd" clip-rule="evenodd" fill="#FDC95C" width="11.18" height="11.178"/>
							</g>
							<g>
								<rect x="401.444" y="216.856" fill-rule="evenodd" clip-rule="evenodd" fill="#FDC95C" width="11.18" height="11.178"/>
							</g>
						</g>
						<g>
							<g>
								<rect x="367.908" y="232.355" fill-rule="evenodd" clip-rule="evenodd" fill="#FDC95C" width="11.179" height="11.179"/>
							</g>
							<g>
								<rect x="384.677" y="232.355" fill-rule="evenodd" clip-rule="evenodd" fill="#FDC95C" width="11.18" height="11.179"/>
							</g>
							<g>
								<rect x="401.444" y="232.355" fill-rule="evenodd" clip-rule="evenodd" fill="#FDC95C" width="11.18" height="11.179"/>
							</g>
						</g>
					</g>
					<g>
						<g>
							<g>
								<rect x="367.908" y="266.931" fill-rule="evenodd" clip-rule="evenodd" fill="#FDC95C" width="11.179" height="11.18"/>
							</g>
							<g>
								<rect x="384.677" y="266.931" fill-rule="evenodd" clip-rule="evenodd" fill="#FDC95C" width="11.18" height="11.18"/>
							</g>
							<g>
								<rect x="401.444" y="266.931" fill-rule="evenodd" clip-rule="evenodd" fill="#FDC95C" width="11.18" height="11.18"/>
							</g>
						</g>
						<g>
							<g>
								<rect x="367.908" y="282.432" fill-rule="evenodd" clip-rule="evenodd" fill="#FDC95C" width="11.179" height="11.177"/>
							</g>
							<g>
								<rect x="384.677" y="282.432" fill-rule="evenodd" clip-rule="evenodd" fill="#FDC95C" width="11.18" height="11.177"/>
							</g>
							<g>
								<rect x="401.444" y="282.432" fill-rule="evenodd" clip-rule="evenodd" fill="#FDC95C" width="11.18" height="11.177"/>
							</g>
						</g>
						<g>
							<g>
								<rect x="367.908" y="297.93" fill-rule="evenodd" clip-rule="evenodd" fill="#FDC95C" width="11.179" height="3.318"/>
							</g>
							<g>
								<rect x="384.677" y="297.93" fill-rule="evenodd" clip-rule="evenodd" fill="#FDC95C" width="11.18" height="3.318"/>
							</g>
							<g>
								<rect x="401.444" y="297.93" fill-rule="evenodd" clip-rule="evenodd" fill="#FDC95C" width="11.18" height="3.318"/>
							</g>
						</g>
					</g>
				</g>
			</g>
			<g>
				<path fill="#7E5634" d="M527.975,19.395H409.723h-9.72H280.135h-9.718H151.355h-9.718v9.111v267.478v9.112h9.718h119.062h9.718
					h119.868h9.72h118.252h9.717v-9.112V28.506v-9.111H527.975z M151.355,295.984V28.506h119.062v267.478H151.355z M280.135,295.984
					V28.506h119.868v267.478H280.135z M527.975,295.984H409.723V28.506h118.252V295.984z"/>
			</g>
			<g>
				<g>
					<rect x="141.637" y="19.395" fill="#45C7EB" width="396.054" height="285.701"/>
				</g>
			</g>
			<g>
				<g>
					<g>
						<polygon fill="#FFFFFF" points="270.417,28.506 151.356,119.623 151.356,154.855 270.416,66.168 						"/>
					</g>
				</g>
				<g>
					<g>
						<polygon fill="#FFFFFF" points="270.011,78.722 150.952,170.243 151.356,176.125 270.417,85.606 						"/>
					</g>
					<g>
						<polygon fill="#FFFFFF" points="270.416,146.351 151.356,236.86 151.355,295.984 270.416,204.666 						"/>
					</g>
					<g>
						<polygon fill="#FFFFFF" points="400.003,28.506 280.134,114.763 280.135,127.424 400.003,40.959 						"/>
					</g>
					<g>
						<polygon fill="#FFFFFF" points="400.003,108.284 280.135,200.211 280.539,233.013 400.003,146.351 						"/>
					</g>
					<g>
						<polygon fill="#FFFFFF" points="400.409,207.096 280.135,295.984 304.026,295.782 400.003,228.559 						"/>
					</g>
					<g>
						<polygon fill="#FFFFFF" points="409.723,162.245 527.975,77.965 528.782,111.524 409.724,198.187 						"/>
					</g>
					<g>
						<polygon fill="#FFFFFF" points="409.723,295.984 527.997,211.753 527.997,258.324 477.554,296.086 						"/>
					</g>
				</g>
			</g>
		</g>
		<g>
			<g>
				<rect x="44.696" y="126.408" fill="#534741" width="66.438" height="96.685"/>
			</g>
			<g>
				<rect x="44.696" y="126.408" fill="#534741" width="66.438" height="9.227"/>
			</g>
			<g>
				<g>
					<circle fill="#534741" cx="70.025" cy="131.022" r="1.938"/>
				</g>
				<g>
					<circle fill="#534741" cx="77.915" cy="131.022" r="1.938"/>
				</g>
				<g>
					<circle fill="#534741" cx="85.804" cy="131.022" r="1.938"/>
				</g>
			</g>
			<g>
				<g>
					<path fill="#534741" d="M68.631,173.046c1.48-1.48,2.979-2.943,4.476-4.406c1.533-1.427,1.991-2.432,1.991-3.472
						c0-0.934-0.74-1.903-1.956-1.903c-1.057,0-1.938,0.74-2.502,1.692c-0.423-0.458-0.863-0.917-1.286-1.392
						c0.792-1.251,2.026-2.291,3.806-2.291c2.485,0,3.965,1.762,3.965,4c0,1.427-0.688,2.714-2.573,4.617l-2.608,2.503
						c-0.053,0.07-0.123,0.124-0.123,0.159c0,0.018,0.017,0.035,0.07,0.035h5.251v2.009h-8.088L68.631,173.046z"/>
				</g>
				<g>
					<path fill="#534741" d="M78.796,170.35v-4.705c0-2.344,1.991-4.388,4.405-4.388c2.238,0,4.388,1.885,4.388,4.388v4.705
						c0,2.361-1.991,4.388-4.388,4.388C80.857,174.738,78.796,172.782,78.796,170.35z M80.822,165.68v4.634
						c0,1.216,1.093,2.361,2.379,2.361c1.269,0,2.326-1.11,2.326-2.361v-4.634c0-1.252-1.057-2.344-2.326-2.344
						C81.88,163.336,80.822,164.481,80.822,165.68z"/>
				</g>
				<g>
					<path fill="#534741" d="M61.109,192.988c0.194,0.511,0.687,0.846,1.251,0.846c0.775,0,1.393-0.617,1.393-1.41v-9.921h2.062
						v9.921c0,1.921-1.534,3.454-3.455,3.454c-1.357,0-2.52-0.775-3.084-1.938L61.109,192.988z"/>
				</g>
				<g>
					<path fill="#534741" d="M67.274,182.538h2.063v9.182c0,1.198,1.004,2.08,2.114,2.08c1.128,0,2.062-0.881,2.062-1.991v-9.27
						h2.063v9.463c0,2.203-1.957,3.859-4.124,3.859c-2.22,0-4.177-1.674-4.177-3.876V182.538z"/>
				</g>
				<g>
					<path fill="#534741" d="M79.501,182.538c1.85,2.943,3.718,5.886,5.569,8.847c0.158,0.247,0.317,0.494,0.493,0.723v-9.569h2.062
						v13.199h-2.167l-5.534-8.811c-0.159-0.247-0.353-0.476-0.511-0.723c0,0.335-0.018,0.688-0.018,1.057v8.477h-2.044v-13.199
						H79.501z"/>
				</g>
				<g>
					<path fill="#534741" d="M91.375,193.587c0,0.07,0.035,0.105,0.106,0.105h4.723v2.044H89.33v-13.216h6.873v2.062H91.48
						c-0.071,0-0.106,0.018-0.106,0.088v3.313c0,0.07,0.035,0.088,0.106,0.088h4.723v2.062H91.48c-0.071,0-0.106,0.035-0.106,0.088
						V193.587z"/>
				</g>
			</g>
		</g>
		<g>
			<g>
				<rect x="42.316" y="124.141" fill="#FFFFFF" width="66.438" height="96.685"/>
			</g>
			<g>
				<rect x="42.316" y="124.141" fill="#F15A24" width="66.438" height="9.227"/>
			</g>
			<g>
				<g>
					<circle fill="#F7F9E4" cx="67.646" cy="128.754" r="1.938"/>
				</g>
				<g>
					<circle fill="#F7F9E4" cx="75.535" cy="128.754" r="1.938"/>
				</g>
				<g>
					<circle fill="#F7F9E4" cx="83.425" cy="128.754" r="1.938"/>
				</g>
			</g>
			<g>
				<g>
					<path d="M66.251,170.778c1.48-1.48,2.979-2.943,4.476-4.406c1.533-1.427,1.991-2.432,1.991-3.472
						c0-0.934-0.74-1.903-1.956-1.903c-1.057,0-1.938,0.74-2.502,1.692c-0.423-0.458-0.863-0.917-1.286-1.392
						c0.792-1.251,2.026-2.291,3.806-2.291c2.485,0,3.965,1.762,3.965,4c0,1.427-0.688,2.714-2.573,4.617l-2.608,2.503
						c-0.053,0.07-0.123,0.124-0.123,0.159c0,0.018,0.017,0.035,0.07,0.035h5.251v2.009h-8.088L66.251,170.778z"/>
				</g>
				<g>
					<path d="M76.417,168.082v-4.705c0-2.344,1.991-4.388,4.405-4.388c2.238,0,4.388,1.885,4.388,4.388v4.705
						c0,2.361-1.991,4.388-4.388,4.388C78.478,172.47,76.417,170.514,76.417,168.082z M78.443,163.413v4.634
						c0,1.216,1.093,2.361,2.379,2.361c1.269,0,2.326-1.11,2.326-2.361v-4.634c0-1.252-1.057-2.344-2.326-2.344
						C79.5,161.069,78.443,162.214,78.443,163.413z"/>
				</g>
				<g>
					<path d="M58.729,190.72c0.194,0.511,0.687,0.846,1.251,0.846c0.775,0,1.393-0.617,1.393-1.41v-9.921h2.062v9.921
						c0,1.921-1.534,3.454-3.455,3.454c-1.357,0-2.52-0.775-3.084-1.938L58.729,190.72z"/>
				</g>
				<g>
					<path d="M64.895,180.27h2.063v9.182c0,1.198,1.004,2.08,2.114,2.08c1.128,0,2.062-0.881,2.062-1.991v-9.27h2.063v9.463
						c0,2.203-1.957,3.859-4.124,3.859c-2.22,0-4.177-1.674-4.177-3.876V180.27z"/>
				</g>
				<g>
					<path d="M77.122,180.27c1.85,2.943,3.718,5.886,5.569,8.847c0.158,0.247,0.317,0.494,0.493,0.723v-9.569h2.062v13.199h-2.167
						l-5.534-8.811c-0.159-0.247-0.353-0.476-0.511-0.723c0,0.335-0.018,0.688-0.018,1.057v8.477h-2.044V180.27H77.122z"/>
				</g>
				<g>
					<path d="M88.995,191.32c0,0.07,0.035,0.105,0.106,0.105h4.723v2.044h-6.873v-13.216h6.873v2.062h-4.723
						c-0.071,0-0.106,0.018-0.106,0.088v3.313c0,0.07,0.035,0.088,0.106,0.088h4.723v2.062h-4.723c-0.071,0-0.106,0.035-0.106,0.088
						V191.32z"/>
				</g>
			</g>
		</g>
		<g>
			<g>
				<g>
					<g>
						<path fill-rule="evenodd" clip-rule="evenodd" fill="#FFFFFF" d="M595.266,192.988c21.003,0,38.134-17.129,38.134-38.132
							c0-21.002-17.131-38.134-38.134-38.134s-38.132,17.131-38.132,38.134C557.134,175.858,574.263,192.988,595.266,192.988z"/>
					</g>
					<g>
						<path fill="#06A687" d="M595.266,195.181c-22.234,0-40.324-18.09-40.324-40.325c0-22.236,18.09-40.327,40.324-40.327
							c22.236,0,40.327,18.09,40.327,40.327C635.593,177.091,617.502,195.181,595.266,195.181z M595.266,118.915
							c-19.815,0-35.938,16.123-35.938,35.941c0,19.817,16.123,35.939,35.938,35.939c19.818,0,35.94-16.123,35.94-35.939
							C631.206,135.038,615.084,118.915,595.266,118.915z"/>
					</g>
				</g>
				<g>
					<g>
						<path fill="#06A687" d="M600.599,161.588c-0.408,0-0.817-0.151-1.137-0.455l-25.397-24.238
							c-0.657-0.627-0.68-1.668-0.054-2.326c0.628-0.657,1.671-0.68,2.326-0.055l25.397,24.238c0.656,0.627,0.681,1.668,0.053,2.326
							C601.464,161.418,601.032,161.588,600.599,161.588z"/>
					</g>
				</g>
				<g>
					<g>
						<path fill="#06A687" d="M589.486,161.712c-0.641,0-1.275-0.279-1.709-0.816c-0.761-0.943-0.612-2.323,0.329-3.084
							l18.671-15.061c0.942-0.762,2.324-0.612,3.084,0.33c0.761,0.943,0.612,2.323-0.33,3.084l-18.67,15.061
							C590.456,161.553,589.968,161.712,589.486,161.712z"/>
					</g>
				</g>
			</g>
			<g>
				<g>
					<path fill="#06A687" d="M595.266,124.636c-1.21,0-2.193-0.982-2.193-2.194v-4.841c0-1.212,0.983-2.193,2.193-2.193
						c1.212,0,2.194,0.981,2.194,2.193v4.841C597.46,123.654,596.478,124.636,595.266,124.636z"/>
				</g>
			</g>
			<g>
				<g>
					<path fill="#06A687" d="M631.054,157.048h-4.842c-1.211,0-2.193-0.982-2.193-2.193c0-1.212,0.982-2.193,2.193-2.193h4.842
						c1.212,0,2.194,0.981,2.194,2.193C633.248,156.066,632.266,157.048,631.054,157.048z"/>
				</g>
			</g>
			<g>
				<g>
					<path fill="#06A687" d="M595.266,193.395c-1.21,0-2.193-0.982-2.193-2.193v-4.843c0-1.211,0.983-2.193,2.193-2.193
						c1.212,0,2.194,0.982,2.194,2.193v4.843C597.46,192.413,596.478,193.395,595.266,193.395z"/>
				</g>
			</g>
			<g>
				<g>
					<path fill="#06A687" d="M564.321,157.048h-4.844c-1.211,0-2.193-0.982-2.193-2.193c0-1.212,0.982-2.193,2.193-2.193h4.844
						c1.211,0,2.192,0.981,2.192,2.193C566.514,156.066,565.532,157.048,564.321,157.048z"/>
				</g>
			</g>
		</g>
	</g>
</g>
</svg>
