<?xml version="1.0" encoding="utf-8"?>
<!-- Generator: Adobe Illustrator 16.0.0, SVG Export Plug-In . SVG Version: 6.00 Build 0)  -->
<!DOCTYPE svg PUBLIC "-//W3C//DTD SVG 1.1//EN" "http://www.w3.org/Graphics/SVG/1.1/DTD/svg11.dtd">
<svg version="1.1" id="Layer_1" xmlns="http://www.w3.org/2000/svg" xmlns:xlink="http://www.w3.org/1999/xlink" x="0px" y="0px"
	 width="500px" height="500px" viewBox="0 0 500 500" enable-background="new 0 0 500 500" xml:space="preserve">
<g>
	<defs>
		<rect id="SVGID_1_" width="500" height="500.001"/>
	</defs>
	<clipPath id="SVGID_2_">
		<use xlink:href="#SVGID_1_"  overflow="visible"/>
	</clipPath>
	<g clip-path="url(#SVGID_2_)">
		<rect fill="#7B9E98" width="500" height="500.001"/>
		<g>
			<g>
				<g>
					<rect x="25.997" y="28.758" fill="#FFFFFF" width="172.507" height="237.708"/>
					<rect x="37.268" y="40.028" fill="#D4F2F2" width="149.966" height="215.166"/>
					<g>
						
							<radialGradient id="SVGID_3_" cx="-4859.9443" cy="-2759.6436" r="51.4741" gradientTransform="matrix(-0.8922 0 0 -0.8922 -4182.7178 -2312.4573)" gradientUnits="userSpaceOnUse">
							<stop  offset="0.2304" style="stop-color:#FFD842"/>
							<stop  offset="0.4334" style="stop-color:#FFD43F"/>
							<stop  offset="0.6226" style="stop-color:#FDC935"/>
							<stop  offset="0.8058" style="stop-color:#FBB626"/>
							<stop  offset="0.9162" style="stop-color:#F9A719"/>
						</radialGradient>
						<path fill="url(#SVGID_3_)" d="M122.601,152.759c1.416,0.086,2.616,1.13,2.897,2.538c0.285,1.437-0.45,2.84-1.703,3.458
							c0.136-0.019,0.27-0.027,0.411-0.027c1.287,0,2.432,0.77,2.924,1.955c0.324,0.781,0.324,1.64,0,2.423
							c-0.216,0.519-0.558,0.967-0.994,1.299c0.321-0.112,0.665-0.164,1.014-0.164c1.061,0,2.043,0.519,2.635,1.404
							c0.468,0.702,0.632,1.548,0.473,2.376c-0.112,0.552-0.356,1.054-0.72,1.466c0.473-0.276,1.013-0.421,1.579-0.421
							c0.843,0,1.635,0.331,2.235,0.931c0.594,0.596,0.927,1.39,0.927,2.233c0,0.568-0.145,1.108-0.419,1.585
							c0.565-0.5,1.303-0.786,2.089-0.786c0.626,0,1.231,0.186,1.754,0.534c0.702,0.468,1.188,1.185,1.344,2.016
							c0.114,0.548,0.071,1.112-0.101,1.629c0.584-0.77,1.508-1.234,2.508-1.234c0.415,0,0.821,0.079,1.214,0.239
							c1.352,0.563,2.105,1.958,1.925,3.346c0.521-1.062,1.614-1.772,2.833-1.772c0.214,0,0.424,0.02,0.62,0.062
							c0.833,0.165,1.546,0.641,2.015,1.346c0.316,0.468,0.493,1.003,0.532,1.551c0.358-1.35,1.596-2.345,3.058-2.345
							c1.458,0,2.695,0.996,3.055,2.345c0.041-0.547,0.22-1.083,0.535-1.552c0.467-0.704,1.178-1.18,2.011-1.345
							c0.199-0.042,0.411-0.062,0.619-0.062c1.224,0,2.315,0.71,2.835,1.772c-0.18-1.388,0.572-2.783,1.927-3.346
							c0.389-0.16,0.8-0.239,1.211-0.239c1.006,0,1.925,0.464,2.512,1.237c-0.444-1.322,0.03-2.836,1.239-3.648
							c0.526-0.349,1.132-0.534,1.757-0.534c0.782,0,1.521,0.286,2.09,0.786c-0.276-0.477-0.423-1.018-0.423-1.585
							c0-0.844,0.335-1.641,0.929-2.233c0.598-0.6,1.395-0.931,2.237-0.931c0.565,0,1.104,0.147,1.577,0.422
							c-0.916-1.051-1.058-2.63-0.247-3.844c0.59-0.885,1.575-1.404,2.638-1.404c0.347,0,0.688,0.052,1.012,0.165
							c-1.108-0.849-1.556-2.371-0.997-3.723c0.492-1.185,1.637-1.955,2.927-1.955c0.135,0,0.273,0.012,0.415,0.027
							c-1.255-0.617-1.994-2.021-1.707-3.458c0.281-1.408,1.481-2.452,2.896-2.538c-1.351-0.364-2.344-1.601-2.344-3.065
							c0-1.454,0.993-2.694,2.344-3.055c-1.414-0.089-2.614-1.129-2.896-2.543c-0.17-0.826,0-1.672,0.476-2.371
							c0.31-0.472,0.732-0.84,1.227-1.079c-0.137,0.016-0.275,0.023-0.41,0.023c-1.29,0-2.435-0.768-2.927-1.95
							c-0.32-0.788-0.32-1.645,0-2.435c0.219-0.513,0.558-0.959,0.995-1.291c-0.321,0.111-0.663,0.165-1.01,0.165
							c-1.063,0-2.048-0.525-2.638-1.408c-0.467-0.702-0.636-1.544-0.471-2.374c0.111-0.549,0.354-1.058,0.718-1.467
							c-0.474,0.275-1.014,0.423-1.577,0.423c-0.843,0-1.64-0.333-2.237-0.931c-1.04-1.033-1.198-2.612-0.506-3.82
							c-0.567,0.498-1.308,0.784-2.09,0.784c-0.625,0-1.234-0.179-1.757-0.531c-0.699-0.468-1.182-1.185-1.342-2.015
							c-0.116-0.552-0.074-1.112,0.102-1.632c-0.586,0.766-1.505,1.238-2.511,1.238c-0.411,0-0.822-0.083-1.211-0.244
							c-1.354-0.563-2.106-1.958-1.927-3.342c-0.52,1.06-1.611,1.772-2.835,1.772c-0.208,0-0.42-0.025-0.619-0.065
							c-1.435-0.284-2.456-1.504-2.546-2.898c-0.359,1.35-1.597,2.345-3.055,2.345c-1.462,0-2.699-0.993-3.058-2.345
							c-0.039,0.555-0.216,1.085-0.532,1.552c-0.469,0.703-1.182,1.182-2.015,1.347c-0.196,0.04-0.406,0.063-0.62,0.063
							c-1.219,0-2.312-0.71-2.833-1.771c0.181,1.384-0.573,2.78-1.925,3.342c-0.392,0.161-0.799,0.244-1.214,0.244
							c-1.002,0-1.924-0.472-2.511-1.241c0.444,1.326-0.031,2.838-1.24,3.649c-0.522,0.353-1.128,0.531-1.754,0.531
							c-0.786,0-1.523-0.286-2.089-0.784c0.692,1.208,0.53,2.787-0.508,3.82c-0.601,0.598-1.393,0.931-2.233,0.931
							c-0.572,0-1.112-0.148-1.586-0.423c0.92,1.049,1.061,2.626,0.252,3.845c-0.592,0.879-1.57,1.404-2.635,1.404
							c-0.35,0-0.692-0.053-1.017-0.166c1.107,0.849,1.556,2.367,0.997,3.727c-0.492,1.182-1.637,1.95-2.924,1.95
							c-0.138,0-0.272-0.008-0.41-0.023c0.49,0.239,0.913,0.607,1.227,1.079c0.473,0.699,0.645,1.545,0.476,2.371
							c-0.281,1.414-1.481,2.454-2.897,2.543c1.35,0.361,2.344,1.601,2.344,3.055C124.944,151.158,123.95,152.395,122.601,152.759z"
							/>
						
							<radialGradient id="SVGID_4_" cx="-4844.4971" cy="-2524.9736" r="39.4229" gradientTransform="matrix(-0.937 0 0 -0.937 -4391.729 -2212.2017)" gradientUnits="userSpaceOnUse">
							<stop  offset="0.2304" style="stop-color:#FFD842"/>
							<stop  offset="0.4026" style="stop-color:#FFD43D"/>
							<stop  offset="0.6021" style="stop-color:#FDC62F"/>
							<stop  offset="0.8145" style="stop-color:#FBB118"/>
							<stop  offset="0.8226" style="stop-color:#FBB017"/>
						</radialGradient>
						<path fill-rule="evenodd" clip-rule="evenodd" fill="url(#SVGID_4_)" d="M153.646,173.928
							c13.39,0,24.232-10.846,24.232-24.234c0-13.383-10.843-24.229-24.232-24.229c-13.381,0-24.229,10.845-24.229,24.229
							C129.417,163.082,140.265,173.928,153.646,173.928z"/>
					</g>
					<rect x="34.007" y="158.773" fill="#FFFFFF" width="160.004" height="6.551"/>
					<rect x="37.268" y="40.028" opacity="0.38" fill="#94B2B0" width="149.966" height="118.745"/>
					<rect x="37.268" y="148.577" opacity="0.1" width="149.966" height="6.548"/>
					<polygon opacity="0.23" fill="#FFFFFF" points="53.522,158.773 80.641,158.773 140.489,40.028 113.372,40.028 					"/>
					<polygon opacity="0.23" fill="#FFFFFF" points="108.107,158.773 167.956,40.028 152.5,40.028 92.65,158.773 					"/>
					<polygon opacity="0.23" fill="#FFFFFF" points="60.604,158.773 120.452,40.028 104.996,40.028 45.146,158.773 					"/>
					<polygon opacity="0.23" fill="#FFFFFF" points="118.859,158.773 128.896,158.773 187.233,43.031 187.233,40.028 
						178.708,40.028 					"/>
					<g>
						<path opacity="0.4" fill="#FFFFFF" d="M80.574,128.4c0-2.704-2.19-4.898-4.895-4.898c-0.198,0-0.392,0.016-0.585,0.039
							c-0.349-1.926-2.027-3.389-4.054-3.389c-0.552,0-1.076,0.111-1.556,0.306c-0.885-3.293-3.891-5.717-7.463-5.717
							c-4.269,0-7.73,3.461-7.73,7.731c0,0.215,0.011,0.427,0.027,0.637c-0.649-0.244-1.351-0.38-2.09-0.38
							c-3.271,0-5.925,2.654-5.925,5.927h34.256C80.568,128.571,80.574,128.487,80.574,128.4z"/>
						<path opacity="0.4" fill="#FFFFFF" d="M180.378,109.073c-0.77-3.537-3.914-6.185-7.68-6.185c-1.174,0-2.283,0.258-3.284,0.721
							c0.038-0.321,0.063-0.647,0.063-0.979c0-4.269-3.46-7.73-7.731-7.73c-4.271,0-7.729,3.461-7.729,7.73
							c0,0.089,0.004,0.175,0.008,0.263c-0.754-0.333-1.582-0.521-2.455-0.521c-3.345,0-6.056,2.712-6.056,6.057
							c0,0.218,0.011,0.433,0.033,0.645H180.378z"/>
						<path opacity="0.4" fill="#FFFFFF" d="M79.539,79.954c0.001-0.043,0.006-0.084,0.006-0.129c0-2.347-1.904-4.25-4.252-4.25
							c-0.92,0-1.771,0.294-2.467,0.792c-0.188-2.745-2.472-4.916-5.265-4.916c-2.537,0-4.656,1.792-5.164,4.179
							c-0.427-0.2-0.902-0.313-1.405-0.313c-1.852,0-3.352,1.499-3.352,3.35c0,0.456,0.092,0.891,0.258,1.288H79.539z"/>
						<g>
							<path opacity="0.51" fill="#FFFFFF" d="M60.992,76.604c0.503,0,0.979,0.115,1.405,0.313c0.508-2.387,2.627-4.177,5.164-4.177
								c2.793,0,5.077,2.169,5.265,4.915c0.695-0.497,1.547-0.792,2.467-0.792c1.946,0,3.581,1.308,4.088,3.092h0.158
								c0.001-0.043,0.006-0.084,0.006-0.129c0-2.347-1.904-4.25-4.252-4.25c-0.92,0-1.771,0.294-2.467,0.792
								c-0.188-2.745-2.472-4.916-5.265-4.916c-2.537,0-4.656,1.792-5.164,4.179c-0.427-0.2-0.902-0.313-1.405-0.313
								c-1.852,0-3.352,1.499-3.352,3.35c0,0.22,0.024,0.436,0.065,0.644C58.005,77.768,59.361,76.604,60.992,76.604z"/>
							<path opacity="0.51" fill="#FFFFFF" d="M52.229,124.019c0.739,0,1.44,0.135,2.09,0.38c-0.017-0.21-0.027-0.421-0.027-0.638
								c0-4.271,3.462-7.73,7.73-7.73c3.572,0,6.578,2.425,7.463,5.717c0.479-0.195,1.004-0.306,1.556-0.306
								c2.026,0,3.705,1.462,4.054,3.389c0.193-0.023,0.387-0.039,0.585-0.039c2.349,0,4.311,1.658,4.784,3.866h0.097
								c0.008-0.085,0.014-0.169,0.014-0.256c0-2.704-2.19-4.898-4.895-4.898c-0.198,0-0.392,0.016-0.585,0.039
								c-0.349-1.926-2.027-3.389-4.054-3.389c-0.552,0-1.076,0.111-1.556,0.306c-0.885-3.293-3.891-5.717-7.463-5.717
								c-4.269,0-7.73,3.461-7.73,7.731c0,0.215,0.011,0.427,0.027,0.637c-0.649-0.244-1.351-0.38-2.09-0.38
								c-3.271,0-5.925,2.654-5.925,5.927h0.14C47.034,126.002,49.4,124.019,52.229,124.019z"/>
							<path opacity="0.51" fill="#FFFFFF" d="M169.477,103.92c0,0.331-0.024,0.656-0.063,0.976c1.001-0.46,2.11-0.719,3.284-0.719
								c3.293,0,6.11,2.025,7.28,4.896h0.399c-0.77-3.537-3.914-6.185-7.68-6.185c-1.151,0-2.244,0.251-3.229,0.696
								C169.476,103.696,169.477,103.806,169.477,103.92z"/>
							<path opacity="0.51" fill="#FFFFFF" d="M154.017,102.63c0,0.089,0.004,0.175,0.008,0.263
								c-0.754-0.333-1.582-0.521-2.455-0.521c-3.345,0-6.056,2.712-6.056,6.057c0,0.218,0.011,0.432,0.033,0.645
								c0.323-3.042,2.896-5.411,6.022-5.411c0.873,0,1.701,0.187,2.455,0.52c-0.004-0.088-0.008-0.174-0.008-0.262
								c0-4.27,3.458-7.731,7.729-7.731c4.049,0,7.367,3.111,7.703,7.072c0.02-0.208,0.028-0.417,0.028-0.63
								c0-4.269-3.46-7.73-7.731-7.73C157.475,94.9,154.017,98.361,154.017,102.63z"/>
						</g>
					</g>
					<g>
						<defs>
							<rect id="SVGID_5_" x="37.268" y="40.028" width="149.966" height="215.166"/>
						</defs>
						<clipPath id="SVGID_6_">
							<use xlink:href="#SVGID_5_"  overflow="visible"/>
						</clipPath>
						<g clip-path="url(#SVGID_6_)">
							<g>
								<g>
									
										<linearGradient id="SVGID_7_" gradientUnits="userSpaceOnUse" x1="5489.0635" y1="211.7783" x2="5565.8652" y2="211.7783" gradientTransform="matrix(-1 0 0 1 5625.6348 0)">
										<stop  offset="0.3039" style="stop-color:#8FAB3E"/>
										<stop  offset="0.4537" style="stop-color:#8DAA3E"/>
										<stop  offset="0.5422" style="stop-color:#84A73F"/>
										<stop  offset="0.6147" style="stop-color:#76A240"/>
										<stop  offset="0.6786" style="stop-color:#629C41"/>
										<stop  offset="0.7369" style="stop-color:#489343"/>
										<stop  offset="0.7905" style="stop-color:#288845"/>
										<stop  offset="0.8406" style="stop-color:#037B48"/>
										<stop  offset="0.8441" style="stop-color:#007A48"/>
									</linearGradient>
									<polygon fill="url(#SVGID_7_)" points="97.001,168.329 136.571,255.228 59.77,255.228 									"/>
									<polygon fill="#FFFCE2" points="94.862,200.693 88.495,212.061 81.911,203.549 97.001,168.329 113.531,204.631 
										112.37,208.932 107.178,201.238 102.199,215.852 									"/>
									<polygon fill="#CFD5B7" points="97.001,168.329 91.416,255.228 59.77,255.228 									"/>
								</g>
								<polygon fill="#A19C99" points="97.001,168.329 81.911,203.549 81.911,203.549 59.77,255.228 91.416,255.228 
									136.571,255.228 								"/>
								<g>
									<linearGradient id="SVGID_8_" gradientUnits="userSpaceOnUse" x1="37.6289" y1="231.2095" x2="97.2842" y2="231.2095">
										<stop  offset="0.3039" style="stop-color:#8FAB3E"/>
										<stop  offset="0.4969" style="stop-color:#8DAA3E"/>
										<stop  offset="0.6109" style="stop-color:#84A73F"/>
										<stop  offset="0.7044" style="stop-color:#76A240"/>
										<stop  offset="0.7868" style="stop-color:#629C41"/>
										<stop  offset="0.8619" style="stop-color:#489343"/>
										<stop  offset="0.931" style="stop-color:#288845"/>
										<stop  offset="0.9955" style="stop-color:#037B48"/>
										<stop  offset="1" style="stop-color:#007A48"/>
									</linearGradient>
									<polygon fill="url(#SVGID_8_)" points="65.121,207.191 37.629,255.228 97.284,255.228 									"/>
									<polygon fill="#FFFCE2" points="65.121,207.191 53.131,228.142 55.81,234.759 60.632,226.435 65.839,239.048 
										71.627,225.423 76.836,233.5 78.815,227.642 									"/>
								</g>
							</g>
							<g>
								<g>
									
										<linearGradient id="SVGID_9_" gradientUnits="userSpaceOnUse" x1="588.2715" y1="231.2095" x2="647.9238" y2="231.2095" gradientTransform="matrix(-1 0 0 1 762.8438 0)">
										<stop  offset="0.3039" style="stop-color:#8FAB3E"/>
										<stop  offset="0.4969" style="stop-color:#8DAA3E"/>
										<stop  offset="0.6109" style="stop-color:#84A73F"/>
										<stop  offset="0.7044" style="stop-color:#76A240"/>
										<stop  offset="0.7868" style="stop-color:#629C41"/>
										<stop  offset="0.8619" style="stop-color:#489343"/>
										<stop  offset="0.931" style="stop-color:#288845"/>
										<stop  offset="0.9955" style="stop-color:#037B48"/>
										<stop  offset="1" style="stop-color:#007A48"/>
									</linearGradient>
									<polygon fill="url(#SVGID_9_)" points="147.081,207.191 174.572,255.228 114.92,255.228 									"/>
									<polygon fill="#FFFCE2" points="147.081,207.191 159.069,228.142 156.393,234.759 151.571,226.435 146.364,239.048 
										140.576,225.423 135.367,233.5 133.387,227.642 									"/>
								</g>
							</g>
						</g>
					</g>
				</g>
				<path opacity="0.4" fill="#FFFFFF" d="M134.54,185.32c0-0.089-0.012-0.176-0.012-0.267c0-4.864,3.942-8.809,8.809-8.809
					c3.068,0,5.771,1.572,7.347,3.954c0.932-6.462,6.489-11.427,13.21-11.427c7.369,0,13.347,5.975,13.347,13.346
					c0,1.104-0.138,2.177-0.39,3.204H134.54z"/>
				<path opacity="0.51" fill="#FFFFFF" d="M163.894,168.771c-6.721,0-12.278,4.965-13.21,11.427
					c-1.575-2.381-4.278-3.954-7.347-3.954c-4.866,0-8.809,3.945-8.809,8.809c0,0.091,0.012,0.178,0.012,0.267h0.537
					c1.237-3.368,4.463-5.771,8.26-5.771c3.068,0,5.771,1.571,7.347,3.954c0.932-6.464,6.489-11.43,13.21-11.43
					c6.822,0,12.437,5.121,13.239,11.727c0.07-0.551,0.107-1.112,0.107-1.683C177.24,174.746,171.263,168.771,163.894,168.771z"/>
				<rect x="101.948" y="141.854" fill="#FFFFFF" width="22.116" height="4.974"/>
				<rect x="25.997" y="265.79" opacity="0.1" width="172.459" height="4.879"/>
				<polygon opacity="0.1" points="187.213,40.001 37.325,40.001 37.302,158.708 42.182,158.708 42.182,44.881 187.213,44.881 				
					"/>
				<rect x="37.268" y="146.321" fill="#FFFFFF" width="149.966" height="6.551"/>
			</g>
		</g>
	</g>
</g>
</svg>
