<?xml version="1.0" encoding="utf-8"?>
<!-- Generator: Adobe Illustrator 23.0.1, SVG Export Plug-In . SVG Version: 6.00 Build 0)  -->
<svg version="1.1" id="Layer_1" xmlns="http://www.w3.org/2000/svg" xmlns:xlink="http://www.w3.org/1999/xlink" x="0px" y="0px"
	 viewBox="0 0 98 94.5" style="enable-background:new 0 0 98 94.5;" xml:space="preserve">
<style type="text/css">
	.st0{fill:#B5B5B4;}
	.st1{fill:#9A9999;}
	.st2{fill:#393939;}
	.st3{fill:#1D1E1E;}
	.st4{fill:#F5BB95;}
	.st5{fill:#F5BC95;}
	.st6{fill:#BEC5C9;}
	.st7{fill:#23201D;}
	.st8{fill:#101010;}
	.st9{fill:none;stroke:#000000;stroke-miterlimit:10;}
</style>
<g id="developer">
	<g id="body">
		<path class="st0" d="M56.3,63.4c-1.4,0.1-2.8-0.1-4.2-0.3c1.4,0,2.8,0,4.2,0.1C56.2,63.2,56.2,63.3,56.3,63.4z"/>
		<path class="st1" d="M40.8,63.2c0-0.1,0-0.2,0-0.3c1.3,0,2.6,0,3.9,0C43.5,63.4,42.2,63.4,40.8,63.2z"/>
		<g>
			<path class="st2" d="M88,81.5c-0.2-0.3-0.4-0.6-0.6-0.9c-0.3-0.3-0.6-0.6-0.8-1c-0.2-0.2-0.4-0.4-0.5-0.6
				c-0.4-0.2-0.8-0.4-1.2-0.6c0,0-0.1,0-0.1-0.1c-0.3-0.1-0.6-0.2-0.9-0.3c-2.8-0.5-5.7-1-8.5-1.5c-6-0.9-12-1.8-18.1-2.2
				c-1.4,0.1-2.8-0.1-4.2-0.3c-2.4,0-4.8-0.1-7.3-0.1c-1.3,0.4-2.6,0.3-3.9,0.2c-6.6,0.3-13.2,1.3-19.6,2.6c-2.5,0.5-5,1.2-7.5,2
				c-0.1,0-0.2,0.1-0.2,0.1c-0.2,0.2-0.5,0.4-0.7,0.5c-0.1,0.1-0.2,0.2-0.3,0.3c-0.2,0.3-0.4,0.6-0.7,0.8c-4.8,4.1-8.8,9-12.3,14.2
				c5.1,0,10.2,0,15.3-0.1c25.3-0.2,50.6-0.4,75.9,0.4c0.5-0.2,1.1-0.3,1.7-0.3c0.6,0,1.2,0.1,1.7,0.3c0.5-0.2,1-0.3,1.7-0.3
				c0.3,0,0.6,0,0.8,0.1C94.6,90.2,91.4,85.8,88,81.5z"/>
			<path class="st3" d="M29.8,80.1c4.6,6.8,11,9.7,18.8,10c7.9,0.3,14.1-2.9,18.7-9.4c0.2,0.9-0.3,1.4-0.6,1.9
				c-1.5,2.1-3.1,4.1-5.2,5.6c-2.3,1.6-4.7,2.6-7.4,3.2c-2.3,0.5-4.7,0.7-7,0.6c-4.4-0.3-8.5-1.5-12-4.3c-2.3-1.8-4-4.2-5.3-6.8
				C29.7,80.7,29.8,80.6,29.8,80.1z"/>
		</g>
		<path class="st4" d="M65.4,78.7c-0.4-2.4-3.2-2.4-3.8-5.1c-0.6-2.4,1.4-3.8,0.5-4.8c-1-1.1-3.7,0.7-8.5-0.2
			c-1.3-0.2-1.3-0.4-2.4-0.5c-3.1-0.3-4.3,0.9-6.7,1.2c-4.3,0.5-6.7-2.5-8-1.4c-1.1,1,0.9,3.2-0.5,6.3c-0.5,1.2-1.5,2.1-1.6,2.2
			c-1.6,1.5-2.6,1.4-3,2.2c-0.7,1.6,2.5,4.6,4.6,6.1c4.3,3.2,8.6,3.9,9.7,4.1c1.3,0.2,6.2,0.8,11.6-1.4c3.5-1.4,5.2-3.2,5.6-3.7
			C64.1,82.5,65.8,80.7,65.4,78.7z"/>
		<g id="head">
			<g>
				<path class="st4" d="M72.2,58.4c0-2.3,0.3-4.6,1.6-6.7c0.7-1.1,0.7-2.4,1-3.6c0.9-2.9,1-6.1,2.8-8.9c0.3-0.4,0.6-0.7,0.9-1.1
					c0.3-0.1,0.5-0.2,0.8-0.2c0.8-0.2,1.4-0.1,1.7,0.6c0.3,0.7,0.6,1.3,0.7,2.1c0.2,2.7,0.4,5.4-0.4,8.1c-0.5,1.9-0.7,4-1.7,5.8
					c-0.8,1.5-2,2.8-3.6,3.8C74.8,58.9,73.5,58.8,72.2,58.4z"/>
				<path class="st4" d="M21.5,37.1c0.7,0.6,0.6,1.4,0.5,2c-0.3,2.2,0,4.2,0.7,6.3c1.1,3.5,2.1,7,4,10.2c0.3,0.5,0.3,0.9,0.2,1.4
					c-1.4,0.6-2.4,0.5-3.4-0.4c-1.1-0.9-1.7-2-2.2-3.3c-0.9-2.3-1.3-4.8-1.8-7.1s-0.7-4.7,0-7.1C19.7,38.1,20.1,37.2,21.5,37.1z"/>
				<path class="st4" d="M64.3,62.1c-1.8,0.1-3.5,0-5.2-0.6c-1-0.4-2-0.5-3.1-0.3c-0.5,0.1-0.9,0.2-1.1,0.6
					c-0.8,1.3-2.2,1.7-3.8,1.8c-2.2,0.2-4.3,0.3-6.4-0.4c-0.5-0.2-1.1-0.4-1.4-0.8c-0.9-1.3-2.3-1.3-3.7-1.1
					c-2.7,0.5-5.4,0.2-8.2,0.2c-0.9,0-1.6-0.3-2.4-0.6c-0.5-0.2-0.7-0.5-0.7-0.9c-0.2-3.7-1.6-7.1-2.9-10.5c-0.6-1.5-1-3-1.5-4.5
					c-0.7-2.2,0.1-4.3,0.3-6.5c0.3-3,0.7-6.1,1.8-9c0.5-1.3,1.3-2.5,1.7-3.9c0.6-1.9,0.9-3.8,1.4-5.7c0.4-1.7,1.5-3,2.9-4.2
					c0.9-0.8,2-1.5,3.1-2c1.5-0.6,3.1-0.4,4.7,0.1c3.2,1.2,6.5,1.5,10,0.7c2.3-0.5,4.6-0.6,6.9,0.1c1.3,0.4,2.7,0.6,4.1,0.7
					c1,0,1.9,0.3,2.7,0.8c1.1,0.6,2.2,1.2,3.2,1.8c1.6,1,1.8,2.6,2.2,4.1c0.4,1.5,1.5,6.7,2.3,7.6c1.4,1.8,1.7,3.8,2,5.8
					c0.3,1.8,0.4,3.6,0.9,5.4c0.6,1.9,0.6,3.9-0.2,5.8c-0.2,0.5-0.3,1.1-0.4,1.7c-0.2,2-1.1,3.9-1.8,5.8c-0.6,1.6-1,3.3-1.5,5
					c-0.7,2.5-1.3,2.9-4.3,2.9C65.2,62.1,64.8,62.1,64.3,62.1z"/>
				<g>
					<g>
						<path class="st5" d="M33.2,44.7L33.2,44.7L33.2,44.7C33.1,44.7,33.1,44.7,33.2,44.7L33.2,44.7z"/>
						<g>
							<path class="st3" d="M33.1,39.2c0-0.9,0.1-1.8,0.6-2.6c0.6-0.9,1.5-1.4,2.7-1.3c1.1,0,1.9,0.5,2.4,1.4
								c0.4,0.8,0.7,1.5,0.7,2.4c0.1,2.1-1,3.3-3.2,3.3C34.1,42.4,33,41.4,33.1,39.2z M36.4,37.2c0.2,0.4,0.5,0.7,1,0.6
								c0.4-0.1,0.8-0.4,0.7-0.8c-0.2-0.4-0.6-0.6-1-0.4C36.6,36.6,36.4,36.9,36.4,37.2z"/>
							<path class="st6" d="M36.4,37.2c0-0.4,0.2-0.6,0.6-0.7c0.5-0.1,0.9,0.1,1,0.4c0.2,0.5-0.2,0.7-0.7,0.8
								C36.9,37.9,36.6,37.6,36.4,37.2z"/>
						</g>
						<g>
							<path class="st3" d="M55.2,38.9c0-0.9,0.3-2.1,1.6-2.9c1.1-0.8,2.7-0.8,3.6,0.1c0.8,0.9,1.5,1.8,1.6,3
								c0.1,1.9-1.1,3.2-3.2,3.3C56.4,42.5,55.2,41.4,55.2,38.9z M59.6,36.8c-0.3,0.1-0.7,0.2-0.8,0.5c-0.1,0.4,0.3,0.7,0.7,0.7
								s0.7-0.2,0.7-0.5C60.3,37.1,60,36.9,59.6,36.8z"/>
							<path class="st6" d="M59.5,36.9c0.4,0.1,0.6,0.3,0.6,0.7s-0.3,0.5-0.7,0.5c-0.5,0-0.8-0.3-0.7-0.7
								C58.8,37.1,59.2,36.9,59.5,36.9z"/>
						</g>
					</g>
					<g>
						<path class="st7" d="M39.4,30.5c0.1,0,0.3,0,0.6,0c0.7-0.1,1,0.3,1,0.8c0.1,0.6-0.5,0.6-1,0.6c-1.4,0-2.7,0-4.1,0.1
							c-1.8,0.2-3.6,0.5-5.3,0.9c-0.2,0.1-0.5,0.1-0.7,0.2c-0.4,0.2-0.9,0.2-1.1-0.3c-0.1-0.4,0.3-0.6,0.7-0.7
							c1.2-0.3,2.3-0.7,3.5-0.9C35,30.8,37.1,30.6,39.4,30.5z"/>
						<path class="st7" d="M55.3,30.8c3.3,0.1,6.5,0.7,9.6,1.8c0.5,0.2,1.2,0.2,1,0.8c-0.2,0.5-0.9,0.3-1.3,0.2
							c-3.1-0.9-6.3-1.4-9.7-1.4c-0.5,0-1.1,0-1-0.6c0-0.6,0.5-0.8,1.1-0.8C55.1,30.8,55.2,30.8,55.3,30.8z"/>
					</g>
				</g>
				<path class="st7" d="M77.3,35.7c0-1.1,0-2.2,0-3.3c-0.3-1.5-0.1-3.1-0.1-4.4c-0.2-7-1.3-13.9-5.3-19.8c-0.6-0.5-1.2-1-1.7-1.6
					c-0.9-0.9-2-1.6-3.1-2.4c-1.7-0.8-3.5-1.7-5.1-2.6c-0.3-0.1-0.6-0.2-0.9-0.3c-0.3,0-0.6-0.1-0.9-0.2c-2.4-0.3-4.7-0.9-7.1-1.1
					H53c-0.2,0.1-0.4,0.1-0.6,0.1c-1.1-0.2-2.2,0-3.3,0c-1.2,0-2.5,0.1-3.7,0.2c-2.2,0.3-4.3,0.5-6.2,1.5c-1.3,0.7-2.6,1.3-3.9,1.9
					c-0.5,0.2-0.9,0.6-1.4,0.7c-0.2,0.2-0.5,0.3-0.8,0.3c-0.2,0.1-0.3,0.1-0.5,0.2c-0.1,0.3-0.1,0.4-0.3,0.5c-0.7,0.3-1.4,0.7-2.1,1
					c-1.1,0.8-2.1,1.5-2.9,2.5c-0.3,0.3-0.6,0.6-1,0.9c-0.1,0.2-0.3,0.3-0.4,0.5c0,0,0,0-0.1,0.1c0,0.1,0,0.2-0.1,0.3
					c-0.7,0.8-1.4,1.6-2.2,2.5c-0.8,1.7-1.4,3.5-2,5.3c-0.6,2.6-0.9,5.3-1.1,8c0.2,2,0.4,3.9,0.6,5.9c0,0.1-0.1,0.2-0.1,0.3
					c0.1,0.3,0.1,0.6,0.2,1c0.1,1.2-0.1,2.4,0.3,3.6c0.7,0.6,0.6,1.4,0.5,2c-0.3,2.2,0,4.2,0.7,6.3c1.1,3.5,2.1,7,4,10.2
					c0.3,0.5,0.3,0.9,0.2,1.4c0,2,0.4,4,1.1,5.9c0.7,1.2,1.4,2.4,2.1,3.7v0.1c0.3,0.2,0.6,0.4,0.8,0.7c1.8,2.5,4.2,4.6,6.7,6.6
					c1.2,0.9,2.8,1.4,4.3,1.8c4.1,0.9,8.1,1.1,12.2,0c1.9-0.5,3.5-1.5,5.2-2.4c3.5-2,6.7-4.1,9.1-7.1c0.5-0.7,0.9-1.4,1.3-2.1
					c0-0.2,0.1-0.3,0.2-0.5c0.7-1.1,1.2-2.2,1.5-3.4c0,0,0,0,0.1-0.1c0.3-0.6,0.6-1.2,0.9-1.8c0-2.3,0.3-4.6,1.6-6.7
					c0.7-1.1,0.7-2.4,1-3.6c0.7-2.3,1-4.7,1.9-7c0.3-1.6,0.6-3.2,0.7-4.9l0,0C77.3,36.1,77.3,35.9,77.3,35.7z M73.8,46.8
					c-0.2,0.5-0.3,1.1-0.4,1.7c-0.2,2-1.1,3.9-1.8,5.8c-0.6,1.6-1,3.3-1.5,5c-0.7,2.5-1.3,2.9-4.3,2.9h-1.5c-1.8,0.1-3.5,0-5.2-0.6
					c-1-0.4-2-0.5-3.1-0.3c-0.5,0.1-0.9,0.2-1.1,0.6c-0.8,1.3-2.2,1.7-3.8,1.8c-2.2,0.2-4.3,0.3-6.4-0.4c-0.5-0.2-1.1-0.4-1.4-0.8
					c-0.9-1.3-2.3-1.3-3.7-1.1c-2.7,0.5-5.4,0.2-8.2,0.2c-0.9,0-1.6-0.3-2.4-0.6c-0.5-0.2-0.7-0.5-0.7-0.9
					c-0.2-3.7-1.6-7.1-2.9-10.5c-0.6-1.5-1-3-1.5-4.5c-0.7-2.2,0.1-4.3,0.3-6.5c0.3-3,0.7-6.1,1.8-9c0.5-1.3,1.3-2.5,1.7-3.9
					c0.6-1.9,0.9-3.8,1.4-5.7c0.4-1.7,1.5-3,2.9-4.2c0.9-0.8,2-1.5,3.1-2c1.5-0.6,3.1-0.4,4.7,0.1c3.2,1.2,6.5,1.5,10,0.7
					c2.3-0.5,4.6-0.6,6.9,0.1c1.3,0.4,2.7,0.6,4.1,0.7c1,0,1.9,0.3,2.7,0.8c1.1,0.6,2.2,1.2,3.2,1.8c1.6,1,1.8,2.6,2.2,4.1
					c0.4,1.5,0.4,3,0.5,4.6c0.1,1.1,1,2.1,1.7,3.1c1.4,1.8,1.7,3.8,2,5.8c0.3,1.8,0.4,3.6,0.9,5.4C74.5,42.9,74.5,44.9,73.8,46.8z"
					/>
			</g>
			<path class="st8" d="M42.9,58.8c1-0.1,2,0.8,3,1.1c2.8,0.8,5.4,0.4,8.1-1.1c0.2-0.1,0.5-0.3,0.7-0.4l0,0c-0.1,1.1-0.6,1.2-1,1.4
				c-2.3,1.2-4.6,1.7-7,1c-1-0.3-2-0.5-2.9-1.1C43.4,59.6,43.1,59.4,42.9,58.8L42.9,58.8z"/>
			<path class="st9" d="M47.4,42.5c-1.9,2-1.2,4.6,0.4,6.1"/>
		</g>
		<path class="st2" d="M38.2,77.3"/>
	</g>
</g>
</svg>
