<?xml version="1.0" encoding="utf-8"?>
<!-- Generator: Adobe Illustrator 23.0.1, SVG Export Plug-In . SVG Version: 6.00 Build 0)  -->
<svg version="1.1" id="e2165270-d70d-4354-9ac9-1848d055b0c2"
	xmlns="http://www.w3.org/2000/svg"
	xmlns:xlink="http://www.w3.org/1999/xlink" x="0px" y="0px" viewBox="0 0 873.2 569.3" style="enable-background:new 0 0 873.2 569.3;" xml:space="preserve">
	<style type="text/css">

	@keyframes steaming {
	0% {
		transform: translateY(0px);
		opacity: 0;
	}

	50% { opacity: 1; }

	100% {
		transform: translateY(-15px);
		opacity: 0;
	}
	}

	#steam1, #steam2{
	-webkit-animation: steaming 7s linear infinite;
	-moz-animation: steaming 7s linear infinite;
	animation: steaming 7s linear infinite;
	}
	.st0{fill:none;stroke:#69F0AE;stroke-width:9;stroke-miterlimit:10;stroke-dasharray:12.04,12.04;}
	.st1{fill:url(#SVGID_1_);}
	.st2{fill:#E55A39;}
	.st3{opacity:0.2;enable-background:new    ;}
	.st4{fill:#FF673E;}
	.st5{fill:#6C63FF;}
	.st6{opacity:0.1;enable-background:new    ;}
	.st7{fill:#FDA57D;}
	.st8{opacity:0.7;}
	.st9{fill:url(#SVGID_2_);}
	.st10{fill:#535461;}
	.st11{fill:#F5BB95;}
	.st12{fill:#F5BC95;}
	.st13{fill:#1D1E1E;}
	.st14{fill:#BEC5C9;}
	.st15{fill:#23201D;}
	.st16{fill:#101010;}
	.st17{fill:none;stroke:#000000;stroke-miterlimit:10;}
	.st18{fill:#E0E0E0;}
	.st19{fill:none;}
	.st20{fill:#FFFFFF;}
	.st21{fill:#1CB99A;}
	.st22{fill:#138698;}
	.st23{fill:none;stroke:#6F6F72;}
	.st24{fill:none;stroke:#138698;stroke-width:3;}
	</style>
	<path class="st0" d="M58,407.6C19.1,360.2-126.2,131.4,629.5,75.9"/>
	<path class="st0" d="M622.5,76.7c54.5-6.4,109.5-8.4,163.7-8"/>
	<path class="st0" d="M791.3,68.4c22.2-1.1,44.4-1.5,66.6-1.2"/>
	<g>

		<linearGradient id="SVGID_1_" gradientUnits="userSpaceOnUse" x1="474.0551" y1="851.5935" x2="474.0551" y2="786.4173" gradientTransform="matrix(0.8157 0.5131 -0.4245 0.9353 51.7849 -583.0793)">
			<stop offset="0" style="stop-color:#808080;stop-opacity:0.25"/>
			<stop offset="0.54" style="stop-color:#808080;stop-opacity:0.12"/>
			<stop offset="1" style="stop-color:#808080;stop-opacity:0.1"/>
		</linearGradient>
		<polygon class="st1" points="130.2,434.5 133.5,434.9 133,434.4 133.3,434.4 132.8,434.2 68.4,372.9 55.8,400.5 45.6,425.6 
		51.2,426.2 49.7,439.5 	"/>
		<polygon class="st2" points="58.4,401.7 49.1,424.6 130.8,434 75.8,395.8 	"/>
		<polygon class="st3" points="58.4,401.7 49.1,424.6 130.8,434 75.8,395.8 	"/>
		<polygon class="st4" points="69.9,376.4 130.8,434 58.4,401.7 	"/>
		<polygon class="st4" points="53,437.4 130.6,433.5 56.1,408.9 	"/>
	</g>
	<title>Designer</title>
	<path class="st5" d="M343.7,429c48.9,0,128.8-14.6,166.8-39.6c-4.1-22.5-13.6-58.9-22.6-91.4c-11.4-41.5-83.5-70.2-126.5-70.2H320
	c-43.1,0-115.4,28.9-126.6,70.6c-8.6,31.7-17.8,66.6-22.3,87.1C210.1,412.9,292.3,429,343.7,429z"/>
	<path class="st6" d="M303.7,168.6h74.5l0,0v59.6c0,20.6-16.7,37.2-37.2,37.2l0,0c-20.6,0-37.2-16.7-37.2-37.2L303.7,168.6
	L303.7,168.6z"/>
	<path class="st7" d="M314.4,165.9h53.1c5.9,0,10.7,4.8,10.7,10.7v48.9c0,20.6-16.7,37.2-37.2,37.2l0,0c-20.6,0-37.2-16.7-37.2-37.2
	v-48.9C303.7,170.7,308.5,165.9,314.4,165.9z"/>
	<path class="st6" d="M303.8,196.8c24,9,50.4,9,74.5,0.2v-9.1h-74.5V196.8z"/>
	<g class="st8">

		<linearGradient id="SVGID_2_" gradientUnits="userSpaceOnUse" x1="340.05" y1="812.2617" x2="340.05" y2="574.3617" gradientTransform="matrix(1 0 0 1 0 -289.3617)">
			<stop offset="0" style="stop-color:#808080;stop-opacity:0.25"/>
			<stop offset="0.5351" style="stop-color:#808080;stop-opacity:0.12"/>
			<stop offset="1" style="stop-color:#808080;stop-opacity:0.1"/>
		</linearGradient>
		<path class="st9" d="M148,285h384.1c8,0,14.5,6.5,14.5,14.5v208.9c0,8-6.5,14.5-14.5,14.5H148c-8,0-14.5-6.5-14.5-14.5V299.5
		C133.5,291.5,140,285,148,285z"/>
	</g>
	<path class="st10" d="M167.9,289.4h344.5c14.8,0,26.8,12,26.8,26.8V496c0,14.8-12,26.8-26.8,26.8H167.9c-14.8,0-26.8-12-26.8-26.8
	V316.2C141,301.4,153,289.4,167.9,289.4z"/>
	<g>
		<path class="st11" d="M384.4,238.4c-1.2-7-9.3-7-11-14.8c-1.7-7,4.1-11,1.4-13.9c-2.9-3.2-10.7,2-24.6-0.6c-3.8-0.6-3.8-1.2-7-1.4
		c-9-0.9-12.5,2.6-19.4,3.5c-12.5,1.4-19.4-7.3-23.2-4.1c-3.2,2.9,2.6,9.3-1.5,18.3c-1.5,3.5-4.4,6.1-4.6,6.4
		c-4.6,4.3-7.5,4.1-8.7,6.4c-2,4.6,7.3,13.3,13.3,17.7c12.5,9.3,24.9,11.3,28.1,11.9c3.8,0.6,18,2.3,33.6-4.1
		c10.1-4.1,15.1-9.3,16.2-10.7C380.6,249.4,385.5,244.2,384.4,238.4z"/>
		<g id="head">
			<g>
				<path class="st11" d="M404.1,179.5c0-6.7,0.9-13.3,4.6-19.4c2-3.2,2-7,2.9-10.4c2.6-8.4,2.9-17.7,8.1-25.8c0.9-1.2,1.7-2,2.6-3.2
				c0.9-0.3,1.5-0.6,2.3-0.6c2.3-0.6,4.1-0.3,4.9,1.7c0.9,2,1.7,3.8,2,6.1c0.6,7.8,1.2,15.7-1.2,23.5c-1.5,5.5-2,11.6-4.9,16.8
				c-2.3,4.4-5.8,8.1-10.4,11C411.6,181,407.9,180.7,404.1,179.5z"/>
				<path class="st11" d="M257.1,117.7c2,1.7,1.7,4.1,1.4,5.8c-0.9,6.4,0,12.2,2,18.3c3.2,10.2,6.1,20.3,11.6,29.6
				c0.9,1.4,0.9,2.6,0.6,4.1c-4.1,1.7-7,1.4-9.9-1.2c-3.2-2.6-4.9-5.8-6.4-9.6c-2.6-6.7-3.8-13.9-5.2-20.6s-2-13.6,0-20.6
				C251.8,120.6,253,118,257.1,117.7z"/>
				<path class="st11" d="M381.2,190.2c-5.2,0.3-10.1,0-15.1-1.7c-2.9-1.2-5.8-1.4-9-0.9c-1.4,0.3-2.6,0.6-3.2,1.7
				c-2.3,3.8-6.4,4.9-11,5.2c-6.4,0.6-12.5,0.9-18.6-1.2c-1.4-0.6-3.2-1.2-4.1-2.3c-2.6-3.8-6.7-3.8-10.7-3.2
				c-7.8,1.5-15.7,0.6-23.8,0.6c-2.6,0-4.6-0.9-7-1.7c-1.5-0.6-2-1.4-2-2.6c-0.6-10.7-4.6-20.6-8.4-30.4c-1.7-4.4-2.9-8.7-4.4-13.1
				c-2-6.4,0.3-12.5,0.9-18.8c0.9-8.7,2-17.7,5.2-26.1c1.5-3.8,3.8-7.3,4.9-11.3c1.7-5.5,2.6-11,4.1-16.5c1.2-4.9,4.4-8.7,8.4-12.2
				c2.6-2.3,5.8-4.3,9-5.8c4.4-1.7,9-1.2,13.6,0.3c9.3,3.5,18.9,4.3,29,2c6.7-1.5,13.3-1.7,20,0.3c3.8,1.2,7.8,1.7,11.9,2
				c2.9,0,5.5,0.9,7.8,2.3c3.2,1.7,6.4,3.5,9.3,5.2c4.6,2.9,5.2,7.5,6.4,11.9c1.2,4.3,4.4,19.4,6.7,22c4.1,5.2,4.9,11,5.8,16.8
				c0.9,5.2,1.2,10.4,2.6,15.7c1.7,5.5,1.7,11.3-0.6,16.8c-0.6,1.5-0.9,3.2-1.2,4.9c-0.6,5.8-3.2,11.3-5.2,16.8
				c-1.7,4.6-2.9,9.6-4.4,14.5c-2,7.3-3.8,8.4-12.5,8.4C383.8,190.2,382.6,190.2,381.2,190.2z"/>
				<g>
					<g>
						<path class="st12" d="M291,139.8L291,139.8L291,139.8C290.7,139.8,290.7,139.8,291,139.8L291,139.8z"/>
						<g>
							<path class="st13" d="M290.7,123.8c0-2.6,0.3-5.2,1.7-7.5c1.7-2.6,4.4-4.1,7.8-3.8c3.2,0,5.5,1.4,7,4.1c1.2,2.3,2,4.4,2,7
							c0.3,6.1-2.9,9.6-9.3,9.6S290.4,130.2,290.7,123.8z M300.3,118c0.6,1.2,1.5,2,2.9,1.7c1.2-0.3,2.3-1.2,2-2.3
							c-0.6-1.2-1.7-1.7-2.9-1.2C300.8,116.3,300.3,117.2,300.3,118z"/>
							<path class="st14" d="M300.3,118c0-1.2,0.6-1.7,1.7-2c1.5-0.3,2.6,0.3,2.9,1.2c0.6,1.4-0.6,2-2,2.3
							C301.7,120.1,300.8,119.2,300.3,118z"/>
						</g>
						<g>
							<path class="st13" d="M354.8,123c0-2.6,0.9-6.1,4.6-8.4c3.2-2.3,7.8-2.3,10.4,0.3c2.3,2.6,4.3,5.2,4.6,8.7
							c0.3,5.5-3.2,9.3-9.3,9.6C358.3,133.4,354.8,130.2,354.8,123z M367.5,116.9c-0.9,0.3-2,0.6-2.3,1.5c-0.3,1.2,0.9,2,2,2
							s2-0.6,2-1.4C369.6,117.7,368.7,117.2,367.5,116.9z"/>
							<path class="st14" d="M367.3,117.2c1.2,0.3,1.7,0.9,1.7,2c0,1.2-0.9,1.4-2,1.4c-1.4,0-2.3-0.9-2-2
							C365.2,117.7,366.4,117.2,367.3,117.2z"/>
						</g>
					</g>
					<g>
						<path class="st15" d="M309,98.6c0.3,0,0.9,0,1.7,0c2-0.3,2.9,0.9,2.9,2.3c0.3,1.7-1.5,1.7-2.9,1.7c-4.1,0-7.8,0-11.9,0.3
						c-5.2,0.6-10.4,1.5-15.4,2.6c-0.6,0.3-1.4,0.3-2,0.6c-1.2,0.6-2.6,0.6-3.2-0.9c-0.3-1.2,0.9-1.7,2-2c3.5-0.9,6.7-2,10.1-2.6
						C296.2,99.5,302.3,98.9,309,98.6z"/>
						<path class="st15" d="M355.1,99.5c9.6,0.3,18.9,2,27.8,5.2c1.5,0.6,3.5,0.6,2.9,2.3c-0.6,1.4-2.6,0.9-3.8,0.6
						c-9-2.6-18.3-4.1-28.1-4.1c-1.5,0-3.2,0-2.9-1.7c0-1.7,1.4-2.3,3.2-2.3C354.5,99.5,354.8,99.5,355.1,99.5z"/>
					</g>
				</g>
				<path class="st15" d="M418.9,113.7c0-3.2,0-6.4,0-9.6c-0.9-4.3-0.3-9-0.3-12.8C418,71,414.8,51,403.2,33.9
				c-1.7-1.5-3.5-2.9-4.9-4.6c-2.6-2.6-5.8-4.6-9-7c-4.9-2.3-10.2-4.9-14.8-7.5c-0.9-0.3-1.7-0.6-2.6-0.9c-0.9,0-1.7-0.3-2.6-0.6
				c-7-0.9-13.6-2.6-20.6-3.2h-0.3c-0.6,0.3-1.2,0.3-1.7,0.3c-3.2-0.6-6.4,0-9.6,0c-3.5,0-7.3,0.3-10.7,0.6
				c-6.4,0.9-12.5,1.4-18,4.4c-3.8,2-7.5,3.8-11.3,5.5c-1.5,0.6-2.6,1.7-4.1,2c-0.6,0.6-1.5,0.9-2.3,0.9c-0.6,0.3-0.9,0.3-1.5,0.6
				c-0.3,0.9-0.3,1.2-0.9,1.5c-2,0.9-4.1,2-6.1,2.9c-3.2,2.3-6.1,4.3-8.4,7.3c-0.9,0.9-1.7,1.7-2.9,2.6c-0.3,0.6-0.9,0.9-1.2,1.4
				c0,0,0,0-0.3,0.3c0,0.3,0,0.6-0.3,0.9c-2,2.3-4.1,4.6-6.4,7.3c-2.3,4.9-4.1,10.2-5.8,15.4c-1.7,7.5-2.6,15.4-3.2,23.2
				c0.6,5.8,1.2,11.3,1.7,17.1c0,0.3-0.3,0.6-0.3,0.9c0.3,0.9,0.3,1.7,0.6,2.9c0.3,3.5-0.3,7,0.9,10.4c2,1.7,1.7,4.1,1.4,5.8
				c-0.9,6.4,0,12.2,2,18.3c3.2,10.1,6.1,20.3,11.6,29.6c0.9,1.4,0.9,2.6,0.6,4.1c0,5.8,1.2,11.6,3.2,17.1c2,3.5,4.1,7,6.1,10.7v0.3
				c0.9,0.6,1.7,1.2,2.3,2c5.2,7.3,12.2,13.3,19.4,19.1c3.5,2.6,8.1,4.1,12.5,5.2c11.9,2.6,23.5,3.2,35.4,0c5.5-1.4,10.1-4.3,15.1-7
				c10.1-5.8,19.4-11.9,26.4-20.6c1.4-2,2.6-4.1,3.8-6.1c0-0.6,0.3-0.9,0.6-1.5c2-3.2,3.5-6.4,4.3-9.9c0,0,0,0,0.3-0.3
				c0.9-1.7,1.7-3.5,2.6-5.2c0-6.7,0.9-13.3,4.6-19.4c2-3.2,2-7,2.9-10.4c2-6.7,2.9-13.6,5.5-20.3c0.9-4.6,1.7-9.3,2-14.2l0,0
				C418.9,114.8,418.9,114.3,418.9,113.7z M408.7,145.9c-0.6,1.4-0.9,3.2-1.2,4.9c-0.6,5.8-3.2,11.3-5.2,16.8
				c-1.7,4.6-2.9,9.6-4.4,14.5c-2,7.3-3.8,8.4-12.5,8.4H381c-5.2,0.3-10.1,0-15.1-1.7c-2.9-1.2-5.8-1.4-9-0.9
				c-1.5,0.3-2.6,0.6-3.2,1.7c-2.3,3.8-6.4,4.9-11,5.2c-6.4,0.6-12.5,0.9-18.6-1.2c-1.4-0.6-3.2-1.2-4.1-2.3
				c-2.6-3.8-6.7-3.8-10.7-3.2c-7.8,1.5-15.7,0.6-23.8,0.6c-2.6,0-4.6-0.9-7-1.7c-1.4-0.6-2-1.4-2-2.6c-0.6-10.7-4.6-20.6-8.4-30.4
				c-1.7-4.4-2.9-8.7-4.4-13.1c-2-6.4,0.3-12.5,0.9-18.9c0.9-8.7,2-17.7,5.2-26.1c1.5-3.8,3.8-7.3,4.9-11.3c1.7-5.5,2.6-11,4.1-16.5
				c1.2-4.9,4.3-8.7,8.4-12.2c2.6-2.3,5.8-4.4,9-5.8c4.3-1.7,9-1.2,13.6,0.3c9.3,3.5,18.8,4.3,29,2c6.7-1.5,13.3-1.7,20,0.3
				c3.8,1.2,7.8,1.7,11.9,2c2.9,0,5.5,0.9,7.8,2.3c3.2,1.7,6.4,3.5,9.3,5.2c4.6,2.9,5.2,7.5,6.4,11.9s1.2,8.7,1.4,13.3
				c0.3,3.2,2.9,6.1,4.9,9c4.1,5.2,4.9,11,5.8,16.8c0.9,5.2,1.2,10.4,2.6,15.7C410.8,134.6,410.8,140.4,408.7,145.9z"/>
			</g>
			<path class="st16" d="M319.1,180.7c2.9-0.3,5.8,2.3,8.7,3.2c8.1,2.3,15.7,1.2,23.5-3.2c0.6-0.3,1.4-0.9,2-1.2l0,0
			c-0.3,3.2-1.7,3.5-2.9,4.1c-6.7,3.5-13.3,4.9-20.3,2.9c-2.9-0.9-5.8-1.4-8.4-3.2C320.6,183,319.7,182.4,319.1,180.7L319.1,180.7z" />
			<path class="st17" d="M332.2,133.4c-5.5,5.8-3.5,13.3,1.2,17.7"/>
		</g>
	</g>
	<rect x="49.1" y="522.9" class="st18" width="776.8" height="32.9"/>
	<rect x="91.8" y="555.8" class="st18" width="692.9" height="13.5"/>
	<rect x="91.8" y="555.4" class="st6" width="692.9" height="3.5"/>
	<g>
		<line class="st19" x1="657.9" y1="376.9" x2="657.9" y2="373.5"/>
		<g>
			<path class="st4" d="M761.9,466.2H630c-3.5,0-6.3,2.8-6.3,6.3l0,0c0,3.5,2.8,6.3,6.3,6.3h132.5l0.6,10.2H627.5
			c-7.3,0-13.3-7.5-13.3-16.7l0,0c0-9.2,5.9-16.7,13.3-16.7h134.9"/>
			<path class="st20" d="M757.2,478.1H628.4c-3.3,0-5.9-2.6-5.9-5.8l0,0c0-3.2,2.6-5.8,5.9-5.8h128.9"/>
		</g>
		<g>
			<path class="st21" d="M783.8,499.8H651.9c-3.5,0-6.3,2.8-6.3,6.3l0,0c0,3.5,2.8,6.3,6.3,6.3h132.5l0.6,10.2H649.4
			c-7.3,0-13.3-7.5-13.3-16.7l0,0c0-9.2,5.9-16.7,13.3-16.7h134.9"/>
			<path class="st20" d="M780.3,511.7H651.4c-3.3,0-5.9-2.6-5.9-5.8l0,0c0-3.2,2.6-5.8,5.9-5.8h128.9"/>
		</g>
		<path class="st22" d="M720.8,372.5V433c0,12.5-9.6,22.7-21.5,22.7h-21.5c-11.9,0-21.5-10.2-21.5-22.7v-60.5"/>
		<path id="steam2" class="st23" d="M674.2,324.3c7.4,3.2,12.8,9.1,8,16.6c-5.3,8.3-22.4,19.1-6.3,23.8"/>
		<path id="steam1" class="st23" d="M697.8,311.1c7.4,3.2,12.8,9.1,8,16.6c-5.3,8.3-22.4,19.1-6.3,23.8"/>
		<path class="st24" d="M716.4,384.7c6.2-1.1,12.9-3.2,16.7,2.3c2.8,4,4.8,11.9,4,16.7c-1.5,9.7-15.9,22.8-25.9,23.1"/>
	</g>
</svg>
