<?xml version="1.0" standalone="no"?>
<!DOCTYPE svg PUBLIC "-//W3C//DTD SVG 20010904//EN"
 "http://www.w3.org/TR/2001/REC-SVG-20010904/DTD/svg10.dtd">
<svg version="1.0" xmlns="http://www.w3.org/2000/svg"
 width="784.000000pt" height="784.000000pt" viewBox="0 0 784.000000 784.000000"
 preserveAspectRatio="xMidYMid meet">
<metadata>
Created by potrace 1.11, written by Peter Selinger 2001-2013
</metadata>
<g transform="translate(0.000000,784.000000) scale(0.100000,-0.100000)"
fill="#000000" stroke="none">
<path d="M3937 7694 c-1 -1 -45 -3 -97 -5 -52 -1 -99 -4 -103 -7 -4 -2 -40 -5
-80 -7 -60 -3 -246 -28 -282 -39 -5 -1 -28 -6 -50 -11 -22 -4 -44 -10 -50 -14
-5 -3 -19 -7 -29 -8 -11 -2 -94 -40 -185 -86 -91 -45 -167 -81 -168 -80 -2 2
-20 -7 -40 -19 -72 -40 -168 -85 -196 -92 -16 -4 -41 -20 -55 -35 -15 -15 -62
-44 -104 -64 -68 -32 -161 -90 -194 -121 -120 -112 -214 -208 -234 -237 -23
-33 -82 -104 -153 -183 -47 -52 -72 -107 -152 -336 -42 -121 -59 -180 -71
-256 -3 -20 -8 -46 -10 -58 -4 -22 -12 -84 -19 -146 -2 -19 -5 -35 -6 -35 -5
0 -22 -202 -22 -270 0 -33 3 -89 7 -125 4 -36 9 -83 11 -105 2 -22 7 -65 11
-95 3 -30 8 -91 10 -135 2 -44 6 -98 9 -120 2 -22 6 -88 8 -147 3 -58 7 -111
11 -116 3 -6 -7 -13 -23 -17 -74 -16 -108 -73 -138 -225 -24 -125 -22 -283 4
-430 4 -19 8 -44 9 -55 1 -11 3 -20 4 -20 1 0 3 -7 5 -15 12 -58 37 -177 39
-185 2 -5 6 -28 10 -50 9 -46 54 -212 63 -235 3 -8 7 -17 8 -20 1 -3 7 -18 13
-33 7 -16 12 -31 12 -35 0 -4 16 -40 37 -80 46 -88 131 -180 200 -215 35 -19
154 -17 178 3 8 7 15 11 16 9 0 -2 2 -29 4 -59 7 -107 19 -197 31 -230 3 -8 8
-33 11 -55 3 -22 8 -44 12 -50 4 -5 13 -28 19 -50 6 -22 30 -70 52 -107 22
-37 40 -72 40 -77 0 -6 5 -11 10 -11 6 0 10 -9 10 -20 0 -11 4 -20 8 -20 5 0
19 -22 32 -50 13 -27 39 -65 59 -84 20 -19 44 -45 54 -58 10 -12 28 -36 40
-52 47 -62 176 -195 258 -266 118 -103 131 -118 121 -137 -5 -10 -17 -34 -26
-54 -10 -22 -24 -36 -34 -36 -9 1 -44 -2 -77 -6 -33 -5 -78 -10 -100 -12 -22
-2 -53 -6 -70 -9 -29 -5 -216 -33 -280 -42 -16 -2 -41 -6 -55 -9 -13 -2 -40
-7 -60 -10 -20 -3 -47 -8 -60 -10 -14 -3 -38 -7 -55 -10 -16 -2 -41 -7 -55
-10 -14 -3 -41 -8 -60 -11 -19 -3 -53 -9 -75 -14 -22 -5 -56 -12 -75 -15 -19
-3 -80 -17 -135 -30 -55 -13 -111 -26 -125 -29 -26 -4 -106 -25 -195 -52 -27
-8 -59 -16 -70 -18 -11 -3 -53 -16 -93 -30 -39 -14 -72 -22 -72 -18 0 4 -10
-9 -21 -28 -12 -19 -62 -73 -112 -120 -114 -107 -380 -372 -427 -425 -68 -78
-105 -121 -135 -159 -16 -21 -39 -48 -50 -61 -38 -42 -60 -70 -115 -145 -30
-41 -57 -77 -60 -80 -6 -6 -35 -48 -108 -152 l-53 -78 3865 0 3865 0 -17 30
c-9 16 -20 30 -24 30 -5 0 -8 5 -8 11 0 10 -140 225 -229 351 -22 32 -57 81
-77 110 -21 29 -41 54 -46 56 -4 2 -8 8 -8 14 0 6 -11 24 -25 42 -31 38 -33
41 -70 91 -17 22 -33 42 -37 43 -5 2 -8 10 -8 17 0 7 -3 15 -7 17 -10 4 -134
162 -195 248 -26 36 -56 74 -67 84 -12 11 -21 25 -21 33 0 7 -4 13 -9 13 -5 0
-12 8 -16 19 -9 31 -159 99 -255 116 -47 8 -96 17 -110 19 -14 3 -54 10 -90
16 -36 6 -76 13 -90 16 -14 2 -41 7 -60 9 -19 3 -62 10 -95 17 -33 6 -76 12
-95 14 -19 1 -36 3 -37 4 -5 4 -15 6 -73 15 -56 8 -64 9 -135 19 -22 3 -51 8
-65 11 -14 3 -49 7 -78 11 -29 3 -63 7 -75 10 -12 3 -38 7 -57 9 -82 9 -126
16 -140 20 -8 2 -44 7 -80 10 -36 4 -74 9 -85 11 -11 3 -42 6 -70 9 -27 3 -68
8 -90 11 -62 10 -77 11 -122 13 -39 1 -44 4 -62 39 -11 21 -22 58 -26 82 -4
25 -9 48 -11 52 -3 5 0 8 6 8 6 0 9 4 6 9 -8 13 4 42 14 36 5 -3 12 0 17 8 4
7 19 18 33 25 53 27 70 39 63 45 -3 4 -1 7 6 7 23 0 177 125 282 230 133 132
165 179 305 450 19 37 37 82 41 105 2 11 25 64 51 118 l47 98 40 -7 c82 -14
150 -12 206 6 31 9 63 22 70 29 8 6 39 31 69 55 81 64 143 138 191 226 13 25
26 47 29 50 3 3 7 12 9 20 5 19 41 130 48 150 3 8 7 24 9 35 1 11 7 40 14 65
6 25 13 58 15 74 2 16 11 52 19 80 37 127 45 215 41 421 -6 249 -9 271 -56
375 -34 75 -74 89 -179 59 -35 -10 -98 -78 -130 -141 -18 -37 -20 -32 -10 22
16 85 23 155 22 205 -1 28 -4 124 -7 215 -3 91 -8 273 -10 405 -4 213 -10 380
-15 380 -1 0 -3 24 -5 53 -2 29 -6 73 -9 98 -3 24 -9 65 -12 92 -5 38 -37 207
-59 307 -10 47 -27 112 -35 130 -4 11 -20 58 -35 105 -31 97 -39 116 -108 260
-81 166 -125 230 -230 331 -119 115 -111 108 -178 155 -30 21 -56 41 -59 44
-22 23 -169 101 -186 99 -4 0 -10 3 -13 8 -3 4 -60 35 -126 68 -66 33 -122 63
-125 66 -6 7 -66 27 -99 34 -11 2 -24 6 -29 8 -4 3 -32 8 -62 12 -30 3 -75 11
-100 17 -43 9 -60 12 -137 22 -18 3 -40 7 -50 10 -10 3 -36 8 -58 11 -22 4
-51 9 -65 11 -24 5 -438 12 -443 8z m-1597 -4880 c0 -2 -13 2 -30 11 -16 9
-30 18 -30 21 0 2 14 -2 30 -11 17 -9 30 -18 30 -21z m2244 -2 c3 -5 -1 -9 -9
-9 -8 0 -12 4 -9 9 3 4 7 8 9 8 2 0 6 -4 9 -8z m-2207 -8 c-3 -3 -12 -4 -19
-1 -8 3 -5 6 6 6 11 1 17 -2 13 -5z m833 -4 c0 -5 -12 -10 -27 -9 l-28 1 25 8
c14 4 26 8 28 9 1 1 2 -3 2 -9z m105 0 c3 -5 1 -10 -4 -10 -6 0 -11 5 -11 10
0 6 2 10 4 10 3 0 8 -4 11 -10z m1195 6 c0 -3 -4 -8 -10 -11 -5 -3 -10 -1 -10
4 0 6 5 11 10 11 6 0 10 -2 10 -4z m37 -2 c-3 -3 -12 -4 -19 -1 -8 3 -5 6 6 6
11 1 17 -2 13 -5z m118 -4 c17 -8 16 -8 -7 -7 -16 1 -28 5 -28 9 0 10 9 9 35
-2z m-2248 -6 c-3 -3 -12 -4 -19 -1 -8 3 -5 6 6 6 11 1 17 -2 13 -5z m958 -14
c3 -5 -4 -6 -15 -3 -11 3 -22 9 -25 13 -3 5 4 6 15 3 11 -3 22 -9 25 -13z
m1092 14 c-3 -3 -12 -4 -19 -1 -8 3 -5 6 6 6 11 1 17 -2 13 -5z m1058 -13
c-10 -17 -45 -33 -45 -21 0 5 7 10 15 10 9 0 18 7 22 15 3 9 8 14 10 11 3 -3
2 -9 -2 -15z m-3035 -3 c0 -5 -12 -5 -27 -2 -40 10 -42 15 -5 12 18 -1 32 -6
32 -10z m653 5 c-7 -2 -21 -2 -30 0 -10 3 -4 5 12 5 17 0 24 -2 18 -5z m1593
-6 c4 -3 -4 -4 -16 -2 -12 2 -25 7 -28 10 -3 3 4 4 16 2 12 -2 24 -6 28 -10z
m-2193 -4 c-7 -2 -19 -2 -25 0 -7 3 -2 5 12 5 14 0 19 -2 13 -5z m56 -3 c-6
-5 -18 -6 -26 -3 -19 8 -16 11 13 11 17 0 22 -3 13 -8z m54 3 c-7 -2 -19 -2
-25 0 -7 3 -2 5 12 5 14 0 19 -2 13 -5z m57 -3 c0 -5 -2 -10 -4 -10 -3 0 -8 5
-11 10 -3 6 -1 10 4 10 6 0 11 -4 11 -10z m74 1 c4 -5 -3 -7 -14 -4 -23 6 -26
13 -6 13 8 0 17 -4 20 -9z m50 1 c2 -4 -4 -8 -14 -8 -10 0 -16 4 -14 8 3 4 9
8 14 8 5 0 11 -4 14 -8z m51 -2 c3 -5 1 -10 -4 -10 -6 0 -11 5 -11 10 0 6 2
10 4 10 3 0 8 -4 11 -10z m45 4 c0 -8 -19 -13 -24 -6 -3 5 1 9 9 9 8 0 15 -2
15 -3z m78 -1 c-10 -2 -26 -2 -35 0 -10 3 -2 5 17 5 19 0 27 -2 18 -5z m413
-20 c13 -17 13 -17 -6 -3 -11 8 -22 16 -24 17 -2 2 0 3 6 3 6 0 17 -8 24 -17z
m1364 7 c13 -6 15 -9 5 -9 -8 0 -22 4 -30 9 -18 12 -2 12 25 0z m103 -24 c8
-9 -62 5 -72 15 -5 4 8 4 29 -1 20 -4 39 -11 43 -14z m582 14 c0 -5 -8 -10
-17 -11 -10 0 -27 -3 -38 -5 -31 -8 -225 -11 -225 -4 0 3 28 7 63 8 92 3 190
12 196 17 8 9 21 5 21 -5z m-543 -16 c-3 -3 -12 -4 -19 -1 -8 3 -5 6 6 6 11 1
17 -2 13 -5z m38 -4 c3 -5 1 -10 -4 -10 -6 0 -11 5 -11 10 0 6 2 10 4 10 3 0
8 -4 11 -10z m181 1 c-8 -12 -52 -20 -66 -11 -6 4 3 7 20 8 18 0 35 3 38 6 8
9 14 7 8 -3z m-766 -5 c0 -2 -8 -10 -17 -17 -16 -13 -17 -12 -4 4 13 16 21 21
21 13z m627 -2 c-3 -3 -12 -4 -19 -1 -8 3 -5 6 6 6 11 1 17 -2 13 -5z m46 -1
c-7 -2 -19 -2 -25 0 -7 3 -2 5 12 5 14 0 19 -2 13 -5z m-1562 -40 c13 -17 13
-17 -6 -3 -11 8 -22 16 -24 17 -2 2 0 3 6 3 6 0 17 -8 24 -17z m848 4 c-2 -1
-13 -9 -24 -17 -19 -14 -19 -14 -6 3 7 9 18 17 24 17 6 0 8 -1 6 -3z m-754
-47 c3 -5 2 -10 -4 -10 -5 0 -13 5 -16 10 -3 6 -2 10 4 10 5 0 13 -4 16 -10z
m665 0 c0 -5 -5 -10 -11 -10 -5 0 -7 5 -4 10 3 6 8 10 11 10 2 0 4 -4 4 -10z
m-584 -23 c4 -3 -4 -4 -16 -2 -12 2 -25 7 -28 10 -3 3 4 4 16 2 12 -2 24 -6
28 -10z m529 3 c-3 -5 -12 -10 -18 -10 -7 0 -6 4 3 10 19 12 23 12 15 0z m-91
-8 c2 -4 -7 -8 -22 -9 -24 -2 -24 -1 -7 7 11 5 21 9 22 9 1 1 4 -3 7 -7z
m-377 -8 c-3 -3 -12 -4 -19 -1 -8 3 -5 6 6 6 11 1 17 -2 13 -5z m43 2 c0 -11
-19 -15 -25 -6 -3 5 1 10 9 10 9 0 16 -2 16 -4z m90 -6 c0 -5 -10 -10 -22 -9
-22 0 -22 1 -3 9 11 5 21 9 23 9 1 1 2 -3 2 -9z m110 -5 c0 -2 -9 -3 -19 -2
-11 0 -18 5 -15 9 4 6 34 0 34 -7z m80 11 c0 -7 -40 -14 -44 -7 -3 4 6 8 20 9
13 1 24 0 24 -2z m-153 -12 c-3 -3 -12 -4 -19 -1 -8 3 -5 6 6 6 11 1 17 -2 13
-5z"/>
</g>
</svg>
